<?xml version="1.0" encoding="utf-8"?>
<!-- Generator: Adobe Illustrator 19.2.1, SVG Export Plug-In . SVG Version: 6.00 Build 0)  -->
<svg version="1.1" id="Capa_1" xmlns="http://www.w3.org/2000/svg" xmlns:xlink="http://www.w3.org/1999/xlink" x="0px" y="0px"
	 viewBox="0 0 874.3 1224" style="enable-background:new 0 0 874.3 1224;" xml:space="preserve">
<style type="text/css">
	.st0{opacity:0.3;}
	.st1{fill:none;}
	.st2{fill:#FFFFFF;}
</style>
<g class="st0">
	<path class="st1" d="M430.8,435.5c-4.6-0.8-7.6,0.2-7.6,0.6c0,1.7,1.3,2.6,1.9,2.9c0.9,0.5,3.2,0.7,4.8,0.3
		c0.9-0.2,2.2-1.2,2.6-1.6C432.9,437.2,431.5,435.6,430.8,435.5z"/>
	<path class="st1" d="M441.5,441.8c0-0.6,0-3,0.4-3.1c0.3-0.1,1,0.2,2.4,0.6c0.1,0,0.2,0.1,0.3,0.1c1.5,0.3,3.9,0.1,4.8-0.3
		c0.6-0.3,1.9-1.2,1.9-2.9c0-0.4-3-1.4-7.6-0.6c-0.1,0-0.1,0.1-0.2,0.1c-0.6,0-0.1-1.9,1.2-2.1c1.6-0.3,3.4-0.4,4.9-0.4
		s2.8,0.5,3.6,0.8c1.3,0.5,1.7-1,1.2-1.3c-0.9-0.6-2.9-1.8-3.8-2c-0.9-0.2-6.8-0.4-10.7,1.1c-0.1,0-0.1,0-0.1,0s-0.1,0-0.1,0.1v0.1
		c-0.2,0.7-0.3,2.5-0.4,3.7c0,0.6,0.3,5.6,0.8,7.3C440.3,443.9,441.5,442.4,441.5,441.8z"/>
	<path class="st1" d="M421.2,433.8c0.8-0.3,2.1-0.8,3.6-0.8c2.8-0.1,6.2,0.5,8.8,1.1c0.4,0.2,1.6-2.1,0.8-2.4
		c-4-1.5-9.8-1.3-10.7-1.1c-0.9,0.2-2.9,1.4-3.8,2C419.5,433,419.8,434.4,421.2,433.8z"/>
	<path class="st1" d="M433.3,450.3c1.1,0.3,2.7,1.2,3.9,1.2s2.8-0.9,3.9-1.2c1.1-0.3,0.1-1.4-0.9-1.4s-2.1,0.5-3,0.5s-2.1-0.5-3-0.5
		C433.2,448.9,432.2,450,433.3,450.3z"/>
	<path class="st1" d="M442,552c0.5,0.2,0.9,0.5,1.3,0.9c0.4,0.5,0.8,1.2,1.3,2c2.1,4.3,3.4,12,9.3,15.9c0.6,0.3,1,0.1,1.2-0.2
		c0.1,0,0.1,0,0.1,0c0.3-0.3,0.2-0.7-0.1-1c-0.1,0-0.1-0.1-0.1-0.1c-0.8-0.6-1.5-1.4-2.1-2.3v-0.1c-4.1-6-3.2-15-10.3-16.6
		C441.5,550.3,441,551.7,442,552z"/>
	<path class="st1" d="M421.3,567.2C421.3,567.3,421.3,567.3,421.3,567.2c-0.6,0.9-1.3,1.7-2.1,2.4c-0.1,0-0.1,0.1-0.1,0.1
		c-0.3,0.2-0.3,0.7-0.1,1c0.1,0,0.1,0,0.1,0c0.3,0.4,0.7,0.5,1.2,0.2c5.8-3.9,7.1-11.6,9.3-15.9c0.4-0.8,0.9-1.5,1.3-2
		c0.4-0.4,0.8-0.7,1.3-0.9c1.1-0.4,0.6-1.9-0.5-1.6C424.7,552.1,425.5,561.1,421.3,567.2z"/>
	<path class="st1" d="M445.3,495.7c2.8-2.2,6.8-4.9,13.6-6.2c0.9-0.2,0.9-1.8-0.2-1.7c-4.2,0.6-11.5,1.5-15.2,5.5
		C442.2,494.7,443.7,497,445.3,495.7z"/>
	<path class="st1" d="M618.1,861.6c2-4.3,2.2-4.7,10.1-1.9l26.1,9.5c8.1,2.9,8.2,3.4,6.9,8.3l-0.2,0.7l3.9,1.4l0.3-0.7
		c2.4-6,5-13.7,6.7-18.8c2.3-6.3,3-11.5,2.1-15.6c-1.1-5.2-4.5-9-10-11c-6.4-2.3-12.3,0-16.6,6.3c-0.1-4.8-2.3-9.9-7.8-11.9
		c-3.7-1.3-7.1-1.2-10,0.3c-3.7,1.9-6.5,6-8.2,12c-1.8,6.5-4.1,13-7,20L614,861l3.8,1.3L618.1,861.6z M646.1,853.8
		c2.7-7.5,8.1-10.4,14.8-8c3.3,1.2,5.6,3,6.6,5.4c0.9,1.9,0.9,4.1,0.1,6.3c-0.5,1.4-1,2.1-1.7,2.5c-1.2,0.6-3.4,0.2-7.6-1.2
		l-12.4-4.3L646.1,853.8z M625.5,843.9c0.5-1.3,2.3-5.1,7-5.1c1.1,0,2.5,0.2,4.1,0.8c5.6,2,7.2,6,5,12.2l-0.3,0.9l-13.1-4.8
		c-2.5-0.9-3.2-1.3-3.3-1.4C624.8,846.3,624.9,845.6,625.5,843.9z"/>
	<path class="st1" d="M669.3,820.7c6.1,2.7,6,3.8,5.9,7v1.4l4.1,0.8l0.1-0.8c0.9-5.6,1.7-11.4,2.3-17.6l0.1-0.8l-4.1-0.6l-0.5,3
		c-0.1,0.9-0.3,2-0.8,2.3s-2-0.2-3.5-0.7l-0.8-0.3c-2.8-1-5.7-2-7.7-2.9l0.7-12.4c1.6-0.6,3.6-1.1,5.4-1.7c1.5-0.4,2.9-0.8,4-1.2
		c1.1-0.4,2.6-0.8,3.2-0.4c0.3,0.2,0.5,0.8,0.6,1.8l0.1,2.7l4.2,0.3v-0.8c0.3-6.9,0.3-14.2,0.3-21.2v-0.8h-4l-0.2,1.1
		c-0.7,3.5-0.8,4.5-7.7,6.5c-10.1,3-19.4,5.7-27.6,8l-15.9,4.4l1.2,5L669.3,820.7z M659.1,800.7l-0.5,8.9l-13.1-5.1L659.1,800.7z"/>
	<path class="st1" d="M310.9,270.5h-23.1v34.8c9.2-3.5,19.8-7.7,27.1-10.5C312.8,287,311.4,278.9,310.9,270.5z"/>
	<polygon class="st1" points="451.9,319.5 450.9,327.2 458.2,325.7 463.3,332.3 467.7,325.5 475.6,327.2 474.6,318.9 480.7,314.9 
		474.7,310.2 475.6,302.6 468.1,303.7 463.2,297.4 458.6,303.7 450.9,302.5 451.9,310.2 445.7,314.8 	"/>
	<path class="st1" d="M586.5,270.5h-23.1c-0.5,8.3-1.9,16.5-4,24.3c7.2,2.8,17.9,6.9,27.1,10.5V270.5z"/>
	<path class="st1" d="M470.1,909.4c-4.6,3.3-14.2,17.8-32.8,17.8c-18.6,0-28.2-14.5-32.8-17.8c-14.2-10.1-30.6-11.3-48.9-2.5
		l-4.6,2.2c24.3,17.3,54.1,27.5,86.2,27.5s61.8-10.1,86.3-27.5l-4.6-2.2C500.7,898.1,484.3,899.3,470.1,909.4z"/>
	<path class="st1" d="M237.7,365.2c0.6-0.3,2.2-0.8,2.7-0.5c0.4,0.2,0.5,1.4,0.6,1.8l0.4,3.3h4.1v-23.7h-4.1l-0.1,0.7
		c-0.4,3.7-0.6,4.9-7.8,7.5c-7.6,2.8-27.5,10.1-41.6,15.4l-0.5,0.2v5.2l0.5,0.2c16.5,5.8,40.7,15.6,40.9,15.7c7.9,3.3,8,3.9,8.5,8.2
		l0.1,0.7h4.1v-19.7h-4.1l-0.3,3c-0.1,1.3-0.4,2-0.8,2.3c-0.8,0.5-3.1-0.1-5-0.7l-2.5-0.8c-5.5-1.8-17.6-5.7-24.4-8.1l5.6-2.1
		C223.5,370.3,234.2,366.3,237.7,365.2z"/>
	<path class="st1" d="M191.3,304.4h31.2c8.2,0,12.7,0.5,15.3,0.8c2,0.3,3.2,1.3,3.4,5.3v0.8h4.2v-20.6h-4.1v0.8
		c-0.3,5.2-1.4,6.3-3.4,6.6c-2.6,0.4-7.1,0.8-15.3,0.8v-0.1h-12.1l34.9-28.5v-14.5h-4.1l-0.1,0.8c-0.3,3.2-0.9,4.7-2.4,5.9
		c-1.7,1.2-3.5,1.2-8.6,1.2h-15.8c-6.2,0-11.4-0.3-15.5-0.8c-2-0.3-3.2-1.3-3.4-5.3v-0.8h-4.1v20.6h4.1v-0.8
		c0.3-5.2,1.4-6.3,3.4-6.6c4.1-0.5,9.2-0.8,15.5-0.8h14.4l-37.5,29.3V304.4z"/>
	<path class="st1" d="M245.5,317.1h-4.1l-0.1,0.8c-0.5,5.1-0.5,5.5-9,5.5h-27.8c-8.5,0-8.6-0.4-9-5.5l-0.1-0.8h-4.1v24.2h4.1
		l0.1-0.7c0.5-5.1,0.5-5.5,9-5.5h27.8c8.5,0,8.6,0.4,9,5.5l0.1,0.7h4.1V317.1z"/>
	<path class="st1" d="M194.9,496.9l0.2-0.6c0.5-1.7,1.2-2.7,3-4.2c1.5-1.3,4.6-3.3,8.9-6c3.3-1.9,8-4.5,10.6-5.8
		c2.7,6.3,7.5,9.6,13.9,9.6c4.7,0,8.9-2,11.1-5.4c2.1-3.1,2.9-7.2,2.9-14.2v-21.6h-4.1l-0.1,0.7c-0.4,4.9-0.4,5.4-9,5.4h-27.5
		c-8.5,0-8.8-0.5-9.2-5.7l-0.1-0.7h-4.1v23.9h4.1l0.1-0.7c0.4-5.1,0.7-5.6,9.2-5.6h9.6v1c0,2-0.4,2.9-2.7,3.9
		c-4.2,2-8.9,4.2-12.7,6.6c-5,3.2-7.1,6.1-7.7,15.6l-0.2,3.6L194.9,496.9z M219,466h18.9c2.6,0,2.6,0,2.6,3c0,3.3-2.2,8.8-10.2,8.8
		c-2.9,0-6.9-0.7-9.4-3.9c-1.4-1.6-1.9-3.4-1.9-6.5V466z"/>
	<path class="st1" d="M717.2,139.9H157.3v647.4c0,154.6,125.3,279.9,279.9,279.9c154.5,0,279.9-125.3,280-280V139.9z M699.5,244.9
		v542.4c0,144.9-117.5,262.4-262.4,262.4S174.7,932.2,174.7,787.3V244.9v-87.5h524.8V244.9z"/>
	<path class="st1" d="M238.6,433.7c-1.1,1-3.2,1.8-7,2.6l-0.7,0.1l0.4,4.3l0.8-0.1c5.3-0.3,11.2-0.7,12.6-0.8l0.5-0.2v-36.7h-4.1
		l-0.1,0.7c-0.4,4.9-0.4,5.4-9,5.4h-27.5c-8.5,0-8.8-0.5-9.2-6.1l-0.1-0.7h-4.1v39.3l0.6,0.2c2.3,0.7,11,2.3,13.9,2.7l0.8,0.1
		l0.9-4.2l-0.7-0.2c-2.7-0.9-6.4-2.2-8-3.6c-1.7-1.4-1.8-4.8-1.8-8.1c0-0.9,0-1.7,0-2.4c0-1.8-0.1-3,0.3-3.8
		c0.5-1.2,2.2-1.5,7.9-1.5h11.7v4.8c0,6.1,0,6.1-6,6.8l-0.7,0.1v4.3h19.2v-4.3l-0.7-0.1c-6-0.7-6-0.7-6-6.8v-4.8h15.7c2,0,2,0,2,2.3
		v3C240.2,430.4,239.7,432.7,238.6,433.7z"/>
	<path class="st1" d="M207.9,534.1c9.7,0,14-7,16.3-12.3l1.1-2.5c2.4-5.5,5.1-7.9,8.7-7.9c4.3,0,7.2,2.6,7.2,6.6c0,5.9-5,8-9.8,9.6
		l-0.7,0.2l0.9,4.2l0.8-0.1c5.4-0.9,8.7-1.3,11.2-1.6l0.5-0.1l0.2-0.5c0.2-0.6,0.4-1.2,0.6-1.8c0.2-0.5,0.3-1,0.5-1.5
		c0.8-2.2,1.2-4.7,1.2-7.3c0-10.5-6.8-17.8-16.5-17.8c-6.8,0-12.1,4.2-15.9,12.4l-0.7,1.5c-2.8,6.1-5.3,8.2-10,8.2
		c-3.8,0-7.7-2.2-7.7-7.1c0-7,8.1-11.2,12.4-12.5l0.8-0.3l-1.6-4.2l-2.7,0.5c-4.2,0.7-8.6,1.5-10.4,2l-0.3,0.1l-0.2,0.3
		c-0.7,1.4-1.3,2.9-1.9,4.7c-0.9,2.4-1.4,5.3-1.5,8.2C190.4,526.3,197.6,534.1,207.9,534.1z"/>
	<path class="st1" d="M349.1,908.2V803.4l8.1-3.9v97.6c18.7-7.3,36.3-5.1,51.3,5.7c6.8,4.9,15,16.3,28.1,16.3
		c13.1,0,21.3-11.4,28.1-16.3c15-10.7,32.6-12.9,51.3-5.7v-97.6l8.1,3.9v104.7c37.5-27.2,61.9-71.3,61.9-121V476.2
		c-3.3-4.4-21.8-28.2-40.4-52.2c2.7-4.6,5.2-9.3,7.5-14c15.2,22.4,30.2,44.4,33,48.6v-81.8c-0.8-0.5-6.1-4-13-8.6
		c1.5-3.2,2.9-6.8,4.1-11c4.8,3.8,8.4,6.6,8.9,7v-48.1c-10.2-2.6-23.1-6-31.4-8.2c-3,7.9-6.9,15.4-11.4,22.5
		c0.5,0.3,4.6,3.6,10.1,7.9c-0.3,0.6-0.7,1.1-1,1.7c-0.2,0.5-0.5,0.9-0.7,1.3c-0.3,0.4-0.7,0.9-1.1,1.6c-1.2,1.8-2.9,4.3-4.2,7.4
		c-6.4-4.3-11.2-7.5-11.9-7.9c-4.9,6-10.2,11.4-16.1,16.4c0.8,1.2,7.5,11.1,16.4,24.2c-0.5,0.5-1,1-1.6,1.5
		c-3.1,2.7-6.6,5.9-10.4,9.9c-10.3-13.4-18.1-23.4-19.2-24.8c-6,3.7-12.3,7-18.9,9.7c0.4,1.3,6.6,22.1,15,50.2
		c-1.6,1.6-3.6,3.4-5.9,5.4c-2.2,1.9-4.5,4.1-7,6.4c-10.9-31.1-19.3-55-19.7-56.2c-9.7,2.4-19.9,3.7-30.3,3.7
		c-10.3,0-20.4-1.2-30.1-3.6c-0.3,0.9-8.7,24.9-19.7,56.3c-2.5-2.4-4.9-4.6-7.1-6.5c-2.2-1.9-4.2-3.7-5.8-5.3
		c8.4-28.1,14.6-48.9,15-50.2c-6.6-2.7-12.9-6-18.9-9.7c-1,1.2-8.7,11.3-19.2,24.8c-3.8-4-7.4-7.2-10.5-10c-0.5-0.5-1-1-1.5-1.4
		c8.8-12.9,15.4-22.7,16.4-24.2c-5.9-5-11.3-10.5-16.2-16.4c-0.9,0.6-5.6,3.7-11.9,7.9c-1.2-3.1-3-5.7-4.2-7.5
		c-0.5-0.6-0.8-1.2-1.1-1.6c-0.2-0.4-0.5-0.9-0.7-1.3c-0.3-0.5-0.6-1.1-0.9-1.6c5.5-4.2,9.5-7.4,10.1-7.9
		c-4.6-7.1-8.4-14.7-11.5-22.6c-8.4,2.2-21.2,5.6-31.4,8.2v48.2c0.4-0.3,4-3.2,9-7.1c1.2,4.2,2.7,7.8,4.1,11
		c-7.1,4.8-12.5,8.4-13,8.7v82c3.2-4.6,18-26.5,33.1-48.7c2.3,4.7,4.8,9.4,7.5,14c-18.4,23.8-36.7,47.4-40.5,52.3h-0.6v310.6
		C287.2,836.9,311.6,881,349.1,908.2z M411.3,869.5c-1.4,6.3-2.7,12.3-3,16.1c-0.2,2.6,0.1,5.1,0.8,7.5c-14.8-8.9-30.5-9.5-43.4-5.5
		v-97.1c12.4-4.7,27.5-3.6,35.9,0.2c1.8,9.3,4.5,18.9,6.9,27.8c3.3,12,6.4,23.3,6.4,30.2C414.9,853.5,413.1,861.6,411.3,869.5z
		 M508.9,887.6c-13-4-28.6-3.4-43.4,5.5c0.7-2.4,1-4.9,0.8-7.5c-0.2-3.8-1.6-9.8-3-16.1c-1.8-7.8-3.6-15.9-3.6-20.8
		c0-6.9,3.1-18.2,6.4-30.2c2.5-8.9,5.1-18.5,6.9-27.8c8.4-3.8,23.4-4.9,35.9-0.2V887.6z M548.4,591.5c1,3.1-6.5,6-7.8,2.6
		c0,0-18-51.4-36.2-103.3c3.7-4.4,6.9-9.1,9.7-13.7C530.8,532.7,548.4,591.5,548.4,591.5z M417.5,428.9c-0.2-6.3,1.5-11.4,5-15.1
		s8.8-5.7,14.8-5.7s11.3,2.1,14.8,5.7c3.6,3.6,5.2,8.7,5,15.1c-0.1,1.2-0.1,2.3-0.2,3.3c-0.6,5.9-2.3,16.9-4.2,22
		c-2.5,6.6-9,13-10.1,13.9c-1.1,0.8-3.8,1-5.4,1c-1.7,0-4.3-0.2-5.4-1c-1.1-0.9-7.6-7.3-10.1-13.9c-2-5.1-3.6-16.1-4.2-22
		C417.4,431.1,417.4,430,417.5,428.9z M313.8,380c-0.1-0.3-0.5-1.2-1.1-2.5c-2.6-6-8.6-19.8-9.8-23.7c-0.7-2.3-2-12-2.6-18.4
		c0.9-0.2,1.6,0.2,1.9,1.2c0.9,2.8,2.8,12.3,3.6,13.2c0.9,1,5.8,5.7,7.2,7.4c1.4,1.7,2.2,3.5,2.3,4.5c0,0.8,0.8,0.7,0.9,0.1
		c0.1-0.6,0.8-4.8-2.1-7.7c-2.6-2.7-5.8-4.7-6.6-5.6c-0.2-0.5-1.2-7.7-2.8-12.8c-0.7-2.3-3-2.3-4.4-2.1c0-0.6-0.1-1.2-0.1-1.7
		c-0.2-3.7,0.2-4.7,0.5-4.9c0.1-0.1,0.2-0.2,0.6-0.1c1.6,0.2,3.4,3.2,4.9,7.6l0.4,1.3c1,3,1.9,6,4.8,11c0.2,0.4,0.7,0.5,1.1,0.3
		c0.4-0.2,0.5-0.7,0.3-1.1c-1.2-1.9-2-3.6-2.6-5c1.4,0.1,2.5,1,3.4,3.7c1,2.8,2.8,5,4.1,6.6c0.4,0.6,0.8,1,1.1,1.4
		c4.1,5.8,0.8,11.5,0.7,11.7c-0.1,0.1-0.1,0.3-0.1,0.5c0.6,3.3,2.3,7.4,3.7,10.2c2.1,4.2,5.7,8.8,10.3,13.2
		c13.8,13.2,24.1,25.2,32.8,44.3c0,0.1,0,0.2,0.1,0.2c2.1,2.4,5.4,5.7,9.1,9.5c8,8.1,17.9,18.3,21.6,25.2c0.1,0.1,0.2,0.2,0.3,0.3
		c1.6,1,4.3,1.8,7.3,2.7c5.9,1.8,13.2,3.9,18.2,9.5c0.1,0.1,0.2,0.2,0.3,0.2c0.6,1.1,1.3,2.3,2.5,3.5c0.2,0.1,0.4,0.2,0.6,0.2
		s0.4-0.1,0.6-0.2c0.3-0.3,0.3-0.8,0-1.1c-2.8-3-3.3-5.8-3.4-6.7c-0.4-2.1-0.2-4.4,0-6.8c0-0.6,0.1-1.2,0.1-1.8
		c2.7,2.4,6.3,5.2,7.8,5.5c2.1,0.4,5.1,0.4,5.5,0.4c0.4,0,3.4,0,5.5-0.4c1.6-0.3,5.1-3.1,7.8-5.5c0,0.6,0.1,1.2,0.1,1.8
		c0.1,2.4,0.3,4.6,0,6.8c-0.1,0.9-0.6,3.7-3.4,6.7c-0.3,0.3-0.3,0.8,0,1.1c0.2,0.1,0.4,0.2,0.6,0.2s0.4,0,0.6-0.2
		c1.1-1.2,1.9-2.4,2.5-3.5c0.1,0,0.2-0.1,0.3-0.2c5-5.6,12.3-7.8,18.2-9.5c3-0.8,5.6-1.6,7.3-2.7c0.1-0.1,0.2-0.2,0.3-0.3
		c3.7-6.9,13.6-17.1,21.6-25.2c3.8-3.8,7-7,9.1-9.5c0-0.1,0.1-0.1,0.1-0.2c8.7-19.1,19-31.1,32.8-44.3c4.6-4.3,8.2-8.9,10.3-13.2
		c1.4-2.8,3.1-6.9,3.7-10.2c0-0.1,0-0.3-0.1-0.5s-3.3-5.8,0.7-11.7c0.3-0.4,0.7-0.9,1.1-1.4c1.4-1.6,3.2-3.8,4.1-6.6
		c0.9-2.7,2-3.6,3.4-3.7c-0.7,1.5-1.5,3.1-2.6,5c-0.2,0.4-0.1,0.9,0.3,1.1c0.4,0.2,0.9,0.1,1.1-0.3c2.9-5,3.9-8.1,4.8-11l0.4-1.3
		c1.5-4.5,3.3-7.4,4.9-7.6c0.5,0,0.6,0.1,0.6,0.1c0.3,0.2,0.7,1.1,0.5,4.9c0,0.5-0.1,1.1-0.1,1.7c-1.4-0.2-3.7-0.2-4.4,2.1
		c-1.6,5.1-2.5,12.3-2.8,12.8c-0.8,0.9-4,2.9-6.6,5.6c-2.8,3-2.1,7.1-2.1,7.7c0,0.6,0.9,0.7,0.9-0.1c0-0.9,0.9-2.8,2.3-4.5
		c1.4-1.8,6.2-6.4,7.2-7.4c0.9-0.9,2.8-10.4,3.6-13.2c0.3-1.1,1.1-1.4,1.9-1.2c-0.6,6.4-1.9,16.1-2.6,18.4
		c-1.2,3.9-7.2,17.8-9.8,23.7c-0.6,1.3-1,2.2-1.1,2.5c-6.1,14.5-27.3,53.7-39.7,63.8c-0.2,0.1-0.3,0.3-0.3,0.4
		c-6.1,21-27.8,47.1-35,54.3c-0.1,0.1-0.2,0.3-0.2,0.5c-1,10.5-7.1,25.8-9.5,30.4c-2.8,5.4-7.4,7.1-13.7,6.8
		c-0.9-0.1-1.8-0.1-2.7-0.2c-1.6-0.2-3.2-0.4-4.9-0.7c-0.4-0.1-0.8,0.2-0.9,0.6c-0.1,0.3,0.1,0.6,0.3,0.8c0.1,0.1,0.2,0.2,0.3,0.2
		c0.7,0.2,4.3,1,10.6,1.7c4.4,0.4,6.8,0.2,8.4-0.8c-0.3,7.5-1.1,17.9-3.6,25c-1.5,4-4,9-5.8,11.2c-0.5,0.5,0.1,1.4,0.9,0.9
		c1.3-0.9,3.6-2.7,5.5-4.9c0.6,6.9,0.4,13.8,0.2,19.1c-0.3,3.2-1.8,11.8-4.9,17.2c-0.5,0.6,0.5,1.9,1.3,1.2c0.9-0.8,3.6-4.8,4.8-7
		c3.1,11.5,7.5,29,3.6,62.2c-2.9,24.8-5.5,36.6-7.4,45.3c-1.1,4.7-1.9,8.5-2.4,12.7c-1.4,11.8-0.6,21,0.1,30
		c0.5,6.5,1,12.6,0.7,19.3c-1.2,23.8-5.4,39.6-8.8,52.2c-2.2,8.2-4.1,15.3-4.5,22.3c-0.5,7.2-0.1,15.2,1,20.3
		c2.1,10.3,3.3,19.3,3.2,23.4c-0.2,5.9-7.5,11.8-12.2,14.3c-1.1,0.4-2.4,0.6-3.2,0.2c-0.2-0.1-0.8-0.4-0.9-2
		c-0.3-8.4,0.3-23,0.7-32.6c0.2-4.2,0.3-7.5,0.3-8.9c0-2.6-0.4-8.7-0.9-16.4c-0.7-11.1-1.6-24.8-1.6-33c0-6.7,0.5-10.9,1-15.4
		s1-9.1,1-16.5c0-8.6-0.7-18.5-1.3-26.5c-0.4-5.4-0.7-10.1-0.7-12.9c0-4.8,0.4-7.4,0.8-9.9c0.3-2.2,0.6-4.2,0.6-7.3
		c0-3.8-0.4-7.4-0.8-10.6c-0.2-2.3-0.5-4.3-0.5-6c0-0.6,0-1.2,0-1.9c0-11.4,0.8-51.6,1.5-60c8-1.8,10-10.4,14.4-16.1
		c0.6-0.7,1.2-1.4,1.7-1.9c0.4-0.3,0.8-0.7,1.2-1c1-0.7-0.1-2-1-1.4c-9.5,5.8-9.9,17.1-19.4,17.1c-9.5-0.1-9.9-11.4-19.4-17.1
		c-0.9-0.6-1.9,0.7-1,1.4c0.4,0.3,0.8,0.6,1.2,1c0.5,0.5,1.1,1.2,1.7,1.9c4.3,5.6,6.4,14.3,14.4,16.1c0.7,8.4,1.5,48.5,1.5,60
		c0,0.7,0,1.4,0,1.9c0,1.7-0.2,3.7-0.5,6c-0.4,3.2-0.8,6.9-0.8,10.6c0,3.1,0.3,5.1,0.6,7.3c0.4,2.5,0.8,5.1,0.8,9.9
		c0,2.7-0.3,7.4-0.7,12.9c-0.5,8-1.2,17.9-1.2,26.5c0,7.3,0.5,12,1,16.5c0.4,4.4,0.9,8.7,0.9,15.4c0,8.2-0.9,21.9-1.6,33
		c-0.5,7.7-0.9,13.8-0.9,16.4c0,1.4,0.1,4.7,0.3,8.9c0.4,9.7,1,24.2,0.7,32.6c-0.1,1.6-0.7,1.9-0.9,2c-0.8,0.3-2.1,0.2-3.3-0.2
		c-4.7-2.5-12-8.4-12.2-14.3c-0.2-4.1,1.1-13,3.2-23.4c1-5.1,1.4-13.1,1-20.3c-0.4-7-2.3-14.1-4.5-22.3c-3.4-12.6-7.6-28.3-8.8-52.2
		c-0.3-6.7,0.2-12.8,0.7-19.3c0.7-8.9,1.5-18.2,0.1-30c-0.4-4.2-1.3-8-2.3-12.7c-1.9-8.7-4.5-20.5-7.4-45.3
		c-3.8-33.2,0.5-50.6,3.6-62.2c1.2,2.3,3.9,6.2,4.8,7c0.8,0.8,1.8-0.5,1.3-1.2c-3.1-5.4-4.6-14-4.9-17.2c-0.1-5.3-0.3-12.2,0.2-19.1
		c1.8,2.2,4.2,4.1,5.5,4.9c0.8,0.5,1.4-0.4,0.9-0.9c-1.9-2.3-4.3-7.2-5.8-11.2c-2.5-7.1-3.3-17.5-3.6-25c1.6,1.1,4,1.3,8.4,0.8
		c6.3-0.6,9.9-1.5,10.6-1.7c0.2,0,0.2-0.1,0.3-0.2c0.2-0.2,0.3-0.5,0.3-0.8c-0.1-0.4-0.5-0.7-0.9-0.6c-1.8,0.3-3.4,0.5-4.9,0.7
		c-0.9,0.1-1.8,0.1-2.7,0.2c-6.3,0.2-10.9-1.4-13.7-6.8c-2.4-4.6-8.5-20-9.5-30.4c0-0.2-0.1-0.4-0.2-0.5c-7.2-7.2-28.9-33.4-35-54.3
		c-0.1-0.2-0.2-0.3-0.3-0.4C341.7,433.6,320.5,394.5,313.8,380z M325.9,591.6c0,0,17.6-58.8,34.3-114.4c2.9,4.7,6.2,9.3,9.8,13.7
		c-18.2,51.8-36.3,103.3-36.3,103.3C332.5,597.6,325,594.7,325.9,591.6z"/>
	<path class="st1" d="M244.2,862.6l1.8,3.9l0.6-0.1c3.7-0.8,6.1-0.9,7.5-0.5c1.3,0.4,2.6,1.7,5.2,7.3l0.5,1L228,888.9
		c-7.8,3.5-8.2,3.2-11.1-2l-0.4-0.7l-3.8,1.7l0.4,0.7c3.6,7.8,7.5,15.4,11.6,22.4l0.4,0.7l3.6-1.8l-0.5-1.3c-2.2-5.8-2.3-6,4.6-9.2
		l32.1-14.9c0.9,1.6,1.7,3,2.4,4.1c1.4,2.2,2.3,3.7,2,4.4c-0.8,1.6-2.6,3.3-5.8,5.5l-0.6,0.4l2.1,3.7l0.7-0.4
		c2.8-1.6,9.7-5.3,13.3-7.1l0.7-0.3l-1.1-2.4l-0.3-0.1c-1.6-0.5-2.1-0.9-3.1-2.6c-5.3-8.2-10.1-17.3-14.2-26.9c-0.8-1.6-1-2.1,0-3.9
		l0.2-0.4l-1.1-2.4l-0.7,0.3c-3.7,1.6-9.1,3.8-14.4,5.9L244.2,862.6z"/>
	<path class="st1" d="M437.1,962.3c96.7,0,175-78.4,175-175V244.9H262.2h-0.1v542.4C262.1,884,340.4,962.3,437.1,962.3z M507,314.9
		c0,24.1-19.5,43.7-43.7,43.7c-24.1,0-43.7-19.5-43.7-43.7c0-24.1,19.5-43.7,43.7-43.7C487.4,271.2,507,290.8,507,314.9z
		 M341.4,285.7c1.8-1.9,13.6-12.2,24.2-13.5c14.9-1.9,18.1,1.9,28,1.6c11-0.4,26.9-8.9,45.1-6.8c1.5,0.2,1.8,2.3-0.2,2.6h-0.1
		c-17.2,3.1-31.1,15.7-36,32.2c0,0.2-0.1,0.3-0.1,0.4c-0.1,0.3-0.2,0.6-0.3,0.9c-1.2,3.9-1.7,8-1.7,11.8c0,2.5,0.3,5.2,0.8,7.9
		c0.1,0.1,0.1,0.2,0.1,0.3c0.1,0.7,0.3,1.5,0.5,2.3c4,16.9,17.2,30.2,34,34.3c2.2,0.3,2.1,2.9,0.1,3.2
		c-22.1,0.9-42.8-14.2-48.9-19.7c-3.6-3.3-9-4.2-11-3.5c-0.7,0.2-1.3-1.1-0.5-1.7c4-3.2,10.5-1.3,12.1-1.2c1.7,0,2.6-3.7,1.4-5
		c-1.2-1.4-5.2-4-11.6-4.8c-3.9-0.5-8.2-0.1-10.2,1c-0.8,0.4-1.6-0.6-0.9-1.4c4.5-4.9,10.9-5,17.5-3.7c3.1,0.6,3.1-4.3,1.4-5.7
		c-1.8-1.5-7-4.8-12.8-5.3c-5.3-0.4-11,0.8-13.6,2.9c-0.6,0.5-1.9-0.7-1.5-1.5c1.1-1.8,7.4-6,12.9-6.7s11.5,0.6,14.4,1.3
		c2.6,0.6,3.3-4.5,0.6-6.4c-4.1-2.8-10.2-5.7-20.1-4.9c-6.4,0.5-10.9,3.2-14.2,6c-0.9,0.8-2.5-0.9-1.8-1.7
		c2.1-2.2,10.4-10,20.2-10.9c6.5-0.6,16.5,2.3,20,2.9c3.8,0.6,4.5-5.7,2-7.1c-4.3-2.4-16.4-7.4-27.2-6.2c-10.7,1.2-18.2,6.3-21,7.9
		C342.2,287.9,340.9,286.5,341.4,285.7z M279.9,262.4h39c0,65.3,53.1,118.4,118.4,118.4s118.4-53.1,118.4-118.4h39v524.8
		c0,86.9-70.7,157.5-157.5,157.5c-86.9,0-157.5-70.6-157.3-157.4V262.4z"/>
	<path class="st1" d="M415.3,489.5c6.8,1.3,10.8,4,13.6,6.2c1.7,1.3,3.2-0.9,1.9-2.4c-3.6-4.1-10.9-4.9-15.2-5.5
		C414.5,487.6,414.5,489.3,415.3,489.5z"/>
	<path class="st1" d="M245.9,801.4l-4.5,0.5l0.1,0.8c0.8,5-0.5,5.4-8.6,7.9l-18.3,5.6c-9,2.8-14.1,6.2-16.7,11.3
		c-2.1,4-2.5,9.1-1.1,15.2c1.6,6.6,4.5,11.3,8.9,13.8c2.9,1.7,6.2,2.3,9.3,2.3c4.8,0,9.4-1.4,12.1-2.2c5.1-1.7,18.6-6.2,20.6-6.4
		c2.7-0.3,4.3,1.1,5.2,4.1l0.2,0.8l4.1-1.3l-0.3-0.8c-2-5.6-3.8-11.5-5.6-18.2l-0.2-0.8l-4,0.9l0.1,0.8c1,5.3,0.8,6.7-1.1,7.4
		c-2.3,0.9-19.9,7.2-20.1,7.2c-7.1,2.3-13,2.3-17,0.1c-2.6-1.4-4.2-3.8-5-7c-1.8-7.4,3.1-12.8,15-16.3l16.6-5.2
		c7.5-2.3,7.8-1.5,9.4,3.4l0.2,0.7l4-0.9l-0.2-0.7c-1.6-8.4-2.6-15.7-3-22.2L245.9,801.4z"/>
	<path class="st1" d="M216.7,245.1h5.9c8.2,0,12.7,0.5,15.3,0.8c2,0.3,3.2,1.3,3.4,5.4v0.8h4.2v-20.9h-4.1v0.8
		c-0.3,5.3-1.4,6.4-3.4,6.7c-2.6,0.4-7.1,0.8-15.3,0.8h-5.3c-13.5,0-20.1-4.1-20.1-12.6c0-10.2,10-12.3,18.5-12.3h16.5
		c8.5,0,8.6,1.2,9,6.2l0.1,0.7h4.1V197h-4.1l-0.1,0.7c-0.4,5-0.4,5.1-8.3,5.1h-0.3h-18.4c-9.7,0-15.6,1.9-19.2,6.2
		c-4,4.5-4.6,11.6-4.7,15.3c0,5.8,2.4,11.6,6.2,15.1C200.9,243.3,207.3,245.1,216.7,245.1z"/>
	<path class="st1" d="M656.6,444c15.7,0,27.2-10.9,27.2-25.9c0-16-11.8-27.2-28.8-27.2c-15.5,0-27.2,10.9-27.2,25.4
		C627.8,434.5,642.3,444,656.6,444z M657.5,403.8c13.3,0,21,4.6,21,12.5c0,8.9-9.5,14.7-24.2,14.7c-12.9,0-21.3-5-21.4-12.8
		C632.9,409,641.9,403.8,657.5,403.8z"/>
	<path class="st1" d="M307.1,922.5c0.1,0,0.1,0,0.2,0c0.8,0,1.5-0.6,2.2-1.8l0.7-1.2c0.9-2,0.6-3.4-1.1-4.5l-13-8.7l-2.2,2.6
		l10.9,12.2C305.6,922.1,306.3,922.5,307.1,922.5z"/>
	<path class="st1" d="M232.3,685.6h-27.5c-8.5,0-8.8-0.5-9.2-5.8l-0.1-0.8h-4.1v20.2c0,20.8,11,33.3,29.4,33.3
		c6.5,0,12.9-2.5,17.2-6.8c4.9-4.9,7.5-12.6,7.5-22.3v-23.7h-4.1l-0.1,0.7C240.9,685,240.9,685.6,232.3,685.6z M218.5,719.7
		c-13.3,0-21.9-6.7-21.9-17c0-4.7,1.2-5.5,8.6-5.5h31.3c2.1,0,3.3,0.1,3.5,0.2c0.1,0.2,0.4,1.5,0.4,3.9
		C240.4,713.7,233.2,719.7,218.5,719.7z"/>
	<path class="st1" d="M195.6,562.7c0.4-5,0.7-5.5,9.2-5.5h27.5c8.5,0,8.6,0.5,9,5.5l0.1,0.7h4.1v-24.2h-4.1l-0.1,0.7
		c-0.4,5.1-0.4,5.6-9,5.6h-27.5c-8.5,0-8.8-0.4-9.2-5.5l-0.1-0.8h-4.1v24.2h4.1L195.6,562.7z"/>
	<path class="st1" d="M191.4,641.8h4.1l0.3-2.6c0.1-1.3,0.4-2,0.8-2.3c0.6-0.4,1.9-0.1,3.8,0.4c3.6,1,6.4,1.9,8.4,2.7v12.5
		c-1.8,0.7-4,1.6-6,2.3l-3,1.1c-1,0.4-2.6,0.9-3.2,0.5c-0.3-0.2-0.6-0.8-0.7-1.8l-0.4-2.7h-4v22.6h4.1l0.1-0.7
		c0.4-3.6,0.8-4.7,8.2-7.3c9.9-3.6,19-6.8,27.1-9.5l15.6-5.3l-1.5-4.9l-41.5-15.6c-7.2-2.6-7.5-3.5-8-7.6l-0.1-0.7h-4.1V641.8z
		 M214.8,641.6l13.5,4.5l-13.5,4.5V641.6z"/>
	<path class="st1" d="M296.8,916.8c-7.3-8.2-15.5-9.7-21.1-9.4c-6.7,0.3-13.6,3.2-18.9,7.9c-11.7,10.5-13,26.2-3,37.4
		c5.1,5.7,11.8,9,18.9,9.2c0.3,0,0.6,0,0.9,0.1c7,0,13.8-2.8,19.8-8.2C305,943.5,306.4,927.6,296.8,916.8z M282.9,945.7
		c-5.2,4.7-10,7.4-14.3,8.1c-3.9,0.6-7.2-0.5-9.7-3.3c-5.9-6.6-2.7-17.3,8.3-27.1c4.9-4.4,9.9-7.1,14.3-7.9c0.8-0.1,1.6-0.2,2.4-0.2
		c3.1,0,5.7,1.1,7.7,3.3C297.7,925.4,294.5,935.3,282.9,945.7z"/>
	<path class="st1" d="M356.6,965.7l0.7,0.3l2-3.5l-0.8-0.4c-6.3-2.9-12-5.9-17-8.8l-0.7-0.4l-2.2,3.5l0.6,0.4c4.6,3.1,5,4.5,4.2,6.2
		c-1.1,2.4-3.1,6.4-7.4,13.3l-6.4,10.2l-5.8-44.8l-0.3-0.2c-3.3-2.4-6.6-5-10-7.9l-0.7-0.6l-2.5,3.5l0.6,0.5
		c2.3,1.7,2.5,3.9,2.7,6.3c0.1,2.1-0.9,3.6-3.5,7.8l-8.4,13.4c-4.3,6.9-7,10.4-8.7,12.5c-1.3,1.5-2.7,1.4-6.3-0.7l-0.7-0.4l-2.2,3.4
		l0.6,0.4c5.2,4.1,10.5,8,15.7,11.5l0.7,0.5l2.2-3.5l-0.6-0.4c-4.4-3.1-4.2-5.3-3.4-7c1.2-2.7,3.2-6.5,7.4-13.3l7.6-12.2l4.8,47v0.4
		l5.2,2.8l16.8-26.1c4.3-6.9,7-10.4,8.7-12.5C351.2,964.8,353.7,964.4,356.6,965.7z"/>
	<path class="st1" d="M138.7,71h-2.1v10.4h2.1c2.5,0,3.8-2.1,3.8-5.2C142.5,73.1,141.2,71,138.7,71z"/>
	<path class="st1" d="M197,810.7c0.1-0.4,0.1-0.8,0.2-1.2c0.4-2.4,0.6-4.4,6.7-6.6c9.9-3.6,19-6.8,27.1-9.5l15.6-5.3l-1.5-4.9
		l-41.5-15.6c-7.2-2.6-7.5-3.5-8-7.6l-0.1-0.7h-4.1v18.9h4.1l0.3-2.6c0.1-1.3,0.4-2,0.8-2.3c0.6-0.4,1.9-0.1,3.8,0.4l0.8,0.2
		c2.8,0.9,5.8,1.7,7.9,2.5v12.5c-1.6,0.7-3.5,1.3-5.3,2c-1.4,0.5-2.8,1-3.9,1.4c-1,0.4-2.5,0.9-3,0.6c-0.3-0.2-0.5-0.8-0.7-2
		l-0.8-2.5h-4v0.8c0.1,7.9,0.6,15.2,1.3,21.9l0.2,0.8l4-0.7L197,810.7z M214.8,778.2l13.5,4.4l-13.5,4.5V778.2z"/>
	<path class="st1" d="M191.4,591.1c0,20.8,11,33.3,29.4,33.3c6.5,0,12.9-2.5,17.2-6.8c4.9-4.9,7.5-12.6,7.5-22.3v-23.7h-4.1
		l-0.1,0.7c-0.4,4.6-0.4,5.2-9,5.2h-27.5c-8.5,0-8.8-0.5-9.2-5.8l-0.1-0.8v0h-4.1V591.1z M205.2,589.1h31.3c2.1,0,3.3,0.1,3.5,0.2
		c0.1,0.2,0.4,1.5,0.4,3.9c0,12.4-7.2,18.4-21.9,18.4c-13.3,0-21.9-6.6-21.9-17C196.6,589.9,197.8,589.1,205.2,589.1z"/>
	<path class="st1" d="M136.3,953.4c-2.2-5.7-9.2-7.2-11.4,0c-14.1,46.7,1.9,87.5,30.3,107.6c2.2,1.6,4.5-1.5,2.4-3.1
		c-12.8-9.5-21.8-24.3-25.8-42.2c7.4,8.6,16.1,17.5,22.1,22.8c1.6,1.4,3.9-0.8,2.6-2.3c-8.6-9.7-17-18.9-26.7-34.9
		c-0.2-3.6-0.2-7.2-0.1-10.9c10.7,14,20.4,25.8,32.8,39.1c1.5,1.6,3.9-0.8,2.6-2.3c-8.2-9.2-24.3-30.5-34.6-46.9
		c0.5-3.2,1-6.5,1.7-9.8c11.5,21.3,37.4,49.6,50.4,60c2.2,1.7,4.6-1.4,2.4-3.5C169,1010.5,146.5,979.5,136.3,953.4z"/>
	<path class="st1" d="M15.9,801.5c-2.2,3.8-2.8,9.3-0.3,13.5c4.5-6,12.2-12.9,23.6-16.1C28.2,795.2,18.2,797.5,15.9,801.5z"/>
	<path class="st1" d="M254.1,1078.4c-7.9,0-14.4,6.5-14.4,14.4s6.5,14.4,14.4,14.4c8,0,14.4-6.5,14.4-14.4S262,1078.4,254.1,1078.4z
		 M254.1,1099c-3.5,0-6.3-2.8-6.3-6.3s2.8-6.3,6.3-6.3s6.3,2.9,6.3,6.3C260.4,1096.2,257.6,1099,254.1,1099z"/>
	<path class="st1" d="M382.5,970.5c-17.5-5-30.6,6.4-34.5,20.2c-2,7.2-1.5,14.5,1.6,20.5c3.1,6.3,8.8,10.8,15.9,12.8
		c2.8,0.7,5.4,1.1,8,1.1c12.1,0,22.2-8,26-21.5c2.1-7.4,1.4-14.8-1.7-20.9C394.6,976.7,389.2,972.4,382.5,970.5z M386.3,1002.5
		c-3.6,12.9-10.1,19-17.7,16.9c-4.4-1.2-7.3-4.5-8.6-9.6c-1.2-4.8-0.9-11.1,1-17.7c3.1-11,9-17.5,15.4-17.5c0.9,0,1.8,0.1,2.7,0.4
		c4.4,1.2,7.2,4.2,8.5,8.9C388.8,988.6,388.4,995.1,386.3,1002.5z"/>
	<path class="st1" d="M529.4,1010.5c-0.5,0-0.9,0.1-1.3,0.2c-2.9,0.6-4,0.8-7.9-4.5c-6.3-8.7-11.8-16.3-16.8-23.3l-9.5-13.5
		l-4.3,2.8l-3.1,44.2c-0.4,6.1-0.9,6.3-3.7,7.4c-0.5,0.1-1,0.3-1.6,0.6l-0.6,0.3l0.8,4l0.8-0.1c5.4-1,11.1-2.3,17-3.7l0.8-0.2
		l-1.2-4l-2.6,0.6c-0.8,0.2-2,0.3-2.4,0c-0.5-0.4-0.6-1.9-0.6-3.5v-0.8c0-3-0.1-6.1,0.1-8.3l11.9-3.6c1,1.4,2.3,3,3.4,4.6
		c0.9,1.2,1.8,2.4,2.5,3.3c0.7,0.9,1.5,2.1,1.4,2.7c-0.1,0.4-0.6,0.7-1.6,1.2l-2.4,1.2l1.2,3.9l0.8-0.2c6.8-2.2,13.6-4.6,20.1-7.2
		l0.7-0.3l-1.2-3.9L529.4,1010.5z M493.3,1002.9l0.4-14.2l8.1,11.7L493.3,1002.9z"/>
	<path class="st1" d="M629.5,593.9l41.5,15.6c7,2.6,7.1,3.4,7.6,7.6l0.1,0.7h4.1v-18.9h-4.1l-0.3,2.6c-0.1,0.8-0.3,2-0.7,2.3
		c-0.5,0.3-2-0.1-3.5-0.5l-0.8-0.2c-2.9-0.9-5.8-1.7-7.9-2.5v-12.5c1.6-0.7,3.5-1.3,5.3-2c1.4-0.5,2.8-1,3.9-1.4
		c1.1-0.4,2.5-0.9,3-0.6c0.3,0.2,0.5,0.8,0.7,1.9l0.4,2.7h4.1v-22.6h-4.1l-0.1,0.7c-0.5,3.7-0.6,4.7-7.9,7.3
		c-9.9,3.6-19,6.8-27.1,9.5l-15.6,5.4L629.5,593.9z M659.8,590v8.9l-13.4-4.4L659.8,590z"/>
	<path class="st1" d="M663,366.3c4.3-2,9.1-4.2,12.9-6.6c5-3.2,7.1-6.1,7.7-15.6l0.2-3.6l-3.9-0.3l-0.2,0.6
		c-0.6,1.7-1.3,2.7-3.1,4.2c-1.6,1.3-4.6,3.3-9,6c-3.3,1.9-8.1,4.5-10.7,5.8c-2.8-6.3-7.7-9.6-14.1-9.6c-4.7,0-8.9,2-11.1,5.4
		c-2.1,3.1-2.9,7.3-2.9,14.2v21.6h4.1l0.1-0.7c0.5-4.9,0.5-5.4,9-5.4h27.7c8.5,0,8.6,0.4,9,5.7l0.1,0.8h4.1v-23.9h-4.1l-0.1,0.7
		c-0.5,5.1-0.5,5.5-9,5.5v0.1h-9.5v-1C660.2,368.2,660.6,367.3,663,366.3z M655.6,371.1h-19c-2.7,0-2.7,0-2.7-3
		c0-4.1,2.7-8.8,10.1-8.8c2.9,0,6.9,0.6,9.7,3.9c1.4,1.6,1.9,3.5,1.9,6.5V371.1z"/>
	<path class="st1" d="M628.8,562.7h4.1l0.1-0.8c0.5-5.3,0.5-5.7,9-5.7h27.9c8.5,0,8.6,0.4,9,6.1l0.1,0.8h4.2v-38l-0.6-0.2
		c-2.2-0.7-10.6-2.2-13.7-2.7l-0.8-0.1l-0.9,4.2l0.7,0.2c3.6,1.1,6.2,2.3,7.7,3.5c1.8,1.6,2.2,5.1,2.2,7.7c0,2-0.1,4.2-0.6,5.4
		c-0.5,1-1.7,1.4-7.7,1.4H642c-8.5,0-8.6-0.5-9-5.9l-0.1-0.7v0.2h-4.1V562.7z"/>
	<path class="st1" d="M628.8,519h4.1l0.1-0.7c0.5-5.1,0.5-5.5,9-5.5h27.8c8.5,0,8.6,0.4,9,5.5l0.1,0.7h4.1v-24.1h-4.1l-0.1,0.7
		c-0.5,5.2-0.5,5.6-9,5.6H642c-8.5,0-8.6-0.5-9-5.6l-0.1-0.7v-0.1h-4.1V519z"/>
	<path class="st1" d="M678.8,253.4c-0.5,5.1-0.5,5.5-9,5.5H642c-8.5,0-8.6-0.4-9-5.5l-0.1-0.7h-4.1v24.1h4.1l0.1-0.7
		c0.5-5.1,0.5-5.5,9-5.5h27.8c8.5,0,8.6,0.4,9,5.5l0.1,0.7h4.1v-24.1h-4.1L678.8,253.4z"/>
	<path class="st1" d="M636.5,288.8c-2-0.3-3.2-1.3-3.4-5.3v-0.8h-4.2v20.6h4.2v-0.8c0.3-5.2,1.3-6.3,3.4-6.6
		c2.6-0.4,7.1-0.8,15.3-0.8h12.1l-35.1,28.5v14.5h4.2v-0.8c0.3-3.3,0.9-4.7,2.4-5.9c1.7-1.2,3.6-1.2,8.6-1.2h16
		c8.2,0,12.6,0.5,15.3,0.8c2,0.3,3.2,1.3,3.4,5.3v0.8h4.2v-20.6h-4.2v0.8c-0.2,5.2-1.3,6.3-3.4,6.6c-2.9,0.4-7.2,0.8-15.3,0.8h-14.5
		l37.7-29.1l0.3-0.3v-5.7h-31.7C643.8,289.6,639.4,289.1,636.5,288.8z"/>
	<path class="st1" d="M641.8,755.1c-8.4,0-8.5-0.5-8.9-5.2l-0.1-0.7h-4.1v24.2h4.1l0.1-0.8c0.4-5.4,0.5-5.8,8.9-5.8H666
		c5.5,0,10,0.1,14,0.8c4.7,0.8,7.7,3.1,9.5,7.1l0.3,0.7l4-1.7l-0.2-0.7c-0.8-3.3-2.4-6.7-4.4-9.5c-5.9-8.4-14.4-8.4-22.6-8.4H641.8z
		"/>
	<path class="st1" d="M633.1,910.8l-0.5-0.6l-3.3,2.8l0.4,0.6c2.3,3.4,3.6,5.9,3.9,7.6c0.4,1.8-0.8,4.4-3.5,7.9
		c-1.8,2.3-3.1,4-4.2,4.5c-1.1,0.5-2.3,0.1-6.9-3.5l-9.3-7.2l2.9-3.8c3.7-4.8,3.7-4.8,8.9-1.7l0.6,0.4l2.6-3.4l-15.1-11.7l-2.6,3.4
		l0.5,0.5c4.3,4.2,4.3,4.2,0.6,9l-2.9,3.8l-11.7-9.1c-0.5-0.4-1.4-1.1-1.4-1.3s0.6-0.9,1.2-1.7l1.8-2.3c0.8-1,1.4-1.9,2-2.7
		c1.3-1.9,2.1-3,3.1-3.1c1.5-0.2,3.8,0.6,7.4,2.4l0.7,0.3l2.3-3.6l-0.7-0.4c-4.4-2.9-9.6-6.4-10.7-7.2l-0.7-0.5l-0.4,0.7
		c-6,9.5-13.1,18.5-21.5,27.5L576,919l3.3,2.6l0.5-0.5c3.3-3.5,3.9-3.7,10.7,1.6l21.7,16.9c6.7,5.2,6.4,5.7,3.3,10.4l-0.4,0.6
		l3.2,2.5l0.5-0.5c9.2-10,16.9-19.9,23.6-30.2l0-0.7l-0.3-0.4C640.8,919.3,635.3,913.1,633.1,910.8z"/>
	<path class="st1" d="M576.6,932.2c-7.1-1.1-14.9,1.3-22.5,6.9c-5.9,4.5-12.3,8.9-18.9,12.9l-0.8,0.5l2.5,3.4l0.6-0.4
		c4.1-2.5,4.5-2.8,9.5,4l17,23.2c5,6.8,4.7,7.1,0.6,10.6l-0.6,0.5l2.5,3.3l16.3-12c7.7-5.7,12.8-12.4,14.8-19.5
		c2.2-7.9,0.4-15.9-5.3-23.6C588.5,936.8,582.6,933.1,576.6,932.2z M582.4,978.8c-3.8,2.9-5,2.5-9.3-3.4l-18.5-25.1
		c-1.2-1.6-1.8-2.7-1.9-2.9c0.1-0.2,0.9-1.2,2.9-2.6c3.9-2.9,7.6-4.3,11.2-4.3c5.7,0,11.2,3.7,16.5,10.8c3.8,5.2,5.8,10.5,5.6,15.4
		C588.8,971.6,586.5,975.8,582.4,978.8z"/>
	<path class="st1" d="M671,240.3c7,2.6,7.1,3.4,7.6,7.6l0.1,0.7h4.1v-18.9h-4.1l-0.3,2.6c-0.1,0.8-0.3,2-0.7,2.3
		c-0.5,0.3-2-0.1-3.5-0.5l-0.8-0.2c-2.9-0.9-5.8-1.7-7.9-2.5v-12.5c1.6-0.6,3.5-1.3,5.3-2c1.4-0.5,2.8-1,3.9-1.4s2.5-0.9,3-0.6
		c0.3,0.2,0.5,0.8,0.7,1.9l0.4,2.7h4.1v-22.6h-4.1l-0.1,0.7c-0.5,3.7-0.6,4.7-7.9,7.3c-9.9,3.6-19,6.8-27.1,9.5l-15.6,5.4l1.4,4.9
		L671,240.3z M659.8,220.8v9l-13.4-4.5L659.8,220.8z"/>
	<path class="st1" d="M470.9,1026.3c-0.6,0-1.3-0.1-1.8-0.1c-3.7-0.2-3.7-0.2-4.1-7.3l-1.6-27.5c-0.5-8.9-0.2-10.3,5-11l0.7-0.1
		l-0.1-4.2l-0.9,0.2c-5.2,0.8-9.8,1.3-15.2,1.8h-0.5l-13.4,35.7l-16.3-35.7h-0.5c-5.1-0.5-10.2-1-15.2-1.8l-1-0.1l0.1,4.2l0.6,0.1
		c5.7,1.3,6.4,4.2,6.1,14.8l-0.4,16.2c-0.2,7.4-0.5,10.8-0.8,13.2c-0.2,2-1.2,2.1-4.1,2.2H406l-0.4,4l0.8,0.1
		c5.3,0.7,11.3,1.2,18.5,1.6l0.9,0.1l-0.1-4.2H425c-5-0.2-6-1.2-6.3-3.5c-0.4-2.5-0.5-5.9-0.5-12.7V996l16.1,36.8l3.7,0.1l14.5-40
		l1,26.5c0.4,8.3,0.4,8.3-4.8,9l-0.7,0.1l0.1,4.1h0.8c8.4-0.4,15.6-1.1,22-2l0.8-0.2l-0.1-4L470.9,1026.3z"/>
	<path class="st1" d="M670.8,717.9c1.4-0.5,2.8-1,3.9-1.4c1.1-0.4,2.5-0.9,3-0.6c0.3,0.2,0.5,0.8,0.7,1.9l0.4,2.7h4.1v-22.6h-4.1
		l-0.1,0.7c-0.5,3.7-0.6,4.7-7.9,7.3c-9.9,3.6-19,6.8-27.1,9.5l-15.6,5.3l1.4,4.9l41.5,15.6c7,2.6,7.1,3.4,7.6,7.6l0.1,0.7h4.1
		v-18.9h-4.1l-0.3,2.6c-0.1,0.8-0.3,2-0.7,2.3c-0.5,0.3-2-0.1-3.5-0.5l-0.8-0.2c-2.8-0.8-5.8-1.7-7.9-2.4v-12.5
		C667.1,719.3,669,718.6,670.8,717.9z M659.8,730.7l-13.4-4.4l13.4-4.6V730.7z"/>
	<path class="st1" d="M635.7,454.1c1.2-1,3.3-1.9,7-2.6l0.7-0.1l-0.4-4.3l-0.8,0.1c-5.3,0.3-11.2,0.7-12.6,0.8h-0.8v39.3h4.1
		l0.1-0.7c0.5-4.9,0.5-5.4,9-5.4h27.8c8.5,0,8.6,0.5,9,5.4l0.1,0.7h4.1v-25.1h-4.2l-0.1,0.8c-0.5,6.1-0.5,6.6-9,6.6h-11.4v-6
		c0-6.1,0-6.1,5.8-6.8l0.7-0.1v-4.3h-18.6v4.3l0.7,0.1c5.7,0.7,5.7,0.7,5.7,6.8v6h-16.5c-2,0-2,0-2-2.3v-5.5
		C634.1,457.4,634.6,455.1,635.7,454.1z"/>
	<path class="st1" d="M681.7,622.9l-0.4-0.1c-3-1.2-9.3-2.8-13.9-3.9l-0.8-0.2l-0.9,4.2l0.6,0.3c7.9,3.7,12.5,7.3,12.5,14.8
		c0,9.8-9.6,16.4-23.9,16.4c-10.8,0-21.7-5.1-21.7-16.5c0-7,3.3-10.8,11.3-12.9l0.7-0.2l-0.7-4.2l-1.6,0.1
		c-4.6,0.4-7.9,0.7-12.1,1.3l-0.5,0.1l-0.1,0.5c-0.1,0.3-0.2,0.7-0.3,1.2c-0.6,2.5-1.8,7.1-1.8,12.7c0,17.9,12,30.8,28.7,30.8
		c12.6,0,27.3-7.7,27.3-29.5c0-5.4-1.8-12.5-2.3-14.5L681.7,622.9z"/>
	<path class="st1" d="M620.4,71h-2.2v23.3h2.2c3.4,0,5.1-4.2,5.1-11.6C625.5,75,623.9,71,620.4,71z"/>
	<path class="st1" d="M620.2,1078.4c-7.9,0-14.4,6.5-14.4,14.4s6.5,14.4,14.4,14.4c7.9,0,14.4-6.5,14.4-14.4
		S628.2,1078.4,620.2,1078.4z M620.2,1099c-3.5,0-6.3-2.8-6.3-6.3s2.8-6.3,6.3-6.3s6.3,2.9,6.3,6.3
		C626.5,1096.2,623.7,1099,620.2,1099z"/>
	<polygon class="st1" points="589.4,72.5 586.9,87.8 591.9,87.8 	"/>
	<polygon class="st1" points="313,72.5 310.5,87.8 315.5,87.8 	"/>
	<polygon class="st1" points="386.1,72.5 383.6,87.8 388.6,87.8 	"/>
	<path class="st1" d="M444.4,94.8c3.1,0,4.1-5.3,4.1-12.2c0-7-1-12.2-4.1-12.2c-3.2,0-4.2,5.3-4.2,12.2
		C440.2,89.4,441.3,94.8,444.4,94.8z"/>
	<path class="st1" d="M506,76.2c0-3.1-1.3-5.2-3.8-5.2h-2.1v10.4h2.1C504.7,81.4,506,79.3,506,76.2z"/>
	<path class="st1" d="M733.4,71h-2.1v10.5h2.1c2.6,0,3.9-2.1,3.8-5.3C737.2,73.1,735.9,71,733.4,71z"/>
	<path class="st1" d="M67.9,476.3c-9.6,31.6-14.3,68.2-15.3,96.2c-0.1,2.3,3.2,2.4,3.4,0.2c2.2-27.6,8.4-59.2,17.1-85.5
		c2,3,3.7,6.1,5.4,9.3C71.8,516.3,68,544.6,68,561.6c0,2.3,3.4,2.2,3.5-0.1c0.6-15.4,5.6-37.2,11.5-55.3c1.9,4.8,3.6,9.9,4.9,15.1
		c-3.8,11.6-7.7,27.3-8.7,42.4c-0.2,2.3,3.1,2.6,3.4,0.4c1.3-11.4,4.3-22.1,7.6-31.7c2.6,15.5,2.4,32-0.9,48.4
		c-0.6,2.8,2.8,3.2,3.4,1.4c12.2-38.9,4-81.3-17.6-107.3C73,472.5,69.1,472.6,67.9,476.3z"/>
	<path class="st1" d="M737.7,953.4c-10.2,26.1-32.7,57.1-48.7,73.6c-2,2.2,0.4,5.3,2.6,3.5c13-10.3,39-38.7,50.4-60
		c0.7,3.3,1.3,6.6,1.7,9.8c-10.3,16.4-26.4,37.6-34.6,46.9c-1.3,1.4,1.2,3.8,2.6,2.3c12.3-13.2,22.1-25.1,32.8-39.1
		c0.2,3.7,0.1,7.3-0.1,10.9c-9.7,16-18,25.1-26.7,34.9c-1.3,1.4,1,3.7,2.6,2.3c5.9-5.3,14.7-14.1,22.1-22.8
		c-4,17.9-13,32.7-25.8,42.2c-2.1,1.6,0.1,4.7,2.4,3.1c28.4-20.1,44.4-61,30.1-107.6C746.9,946.2,740,947.7,737.7,953.4z"/>
	<path class="st1" d="M827.1,652.1c-7.9,0-14.4,6.4-14.4,14.4c0,7.9,6.5,14.4,14.4,14.4s14.4-6.5,14.4-14.4S835,652.1,827.1,652.1z
		 M827.1,672.8c-3.5,0-6.3-2.8-6.3-6.3s2.8-6.3,6.3-6.3s6.3,2.8,6.3,6.3C833.4,670,830.6,672.8,827.1,672.8z"/>
	<path class="st1" d="M806,476.1c-1.1-3.6-4.9-3.8-7-1.3c-21.5,26-29.7,68.4-17.6,107.3c0.5,1.8,4,1.4,3.4-1.4
		c-3.2-16.4-3.4-32.9-0.9-48.4c3.4,9.6,6.3,20.3,7.6,31.7c0.3,2.2,3.6,1.9,3.5-0.4c-1-15.1-4.9-30.8-8.7-42.4
		c1.3-5.2,2.9-10.2,4.9-15.1c6,18.1,10.9,39.9,11.5,55.3c0.1,2.3,3.5,2.4,3.5,0.1c0-17-3.8-45.3-10.5-65.1c1.7-3.2,3.5-6.3,5.4-9.3
		c8.8,26.3,14.9,57.9,17.1,85.5c0.2,2.2,3.5,2,3.1-0.3C820.3,544.3,815.6,507.7,806,476.1z"/>
	<path class="st1" d="M47.2,680.9c7.9,0,14.4-6.5,14.4-14.4s-6.4-14.4-14.4-14.4c-7.9,0-14.4,6.4-14.4,14.4
		C32.8,674.4,39.3,680.9,47.2,680.9z M47.2,660.2c3.5,0,6.3,2.8,6.3,6.3s-2.8,6.3-6.3,6.3s-6.3-2.8-6.3-6.3S43.7,660.2,47.2,660.2z"
		/>
	<path class="st1" d="M835.1,798.9c9.9,2.7,18.5,9.3,23.6,16.1c2.5-4.2,1.8-9.7-0.3-13.5C856.1,797.5,846.1,795.2,835.1,798.9z"/>
	<path class="st1" d="M269.3,71h-2.1v10.5h2.1c2.5,0,3.8-2.1,3.8-5.3C273.1,73.1,271.8,71,269.3,71z"/>
	<path class="st1" d="M186.9,71h-2.1v10.5h2.1c2.5,0,3.8-2.1,3.8-5.3C190.7,73.1,189.4,71,186.9,71z"/>
	<path class="st1" d="M167,82.7c0-7-1-12.2-4.1-12.2c-3.2,0-4.2,5.2-4.2,12.2c0,6.8,1.1,12.2,4.2,12.2C166,94.9,167,89.6,167,82.7z"
		/>
	<polygon class="st1" points="238.3,72.5 235.8,87.8 240.8,87.8 	"/>
	<path class="st2" d="M504.4,490.8c18.2,51.9,36.2,103.3,36.2,103.3c1.3,3.4,8.8,0.5,7.8-2.6c0,0-17.6-58.8-34.3-114.4
		C511.3,481.7,508.1,486.4,504.4,490.8z"/>
	<path class="st2" d="M473,790.7c-1.8,9.3-4.4,18.9-6.9,27.8c-3.3,12-6.4,23.3-6.4,30.2c0,4.9,1.8,13,3.6,20.8
		c1.4,6.3,2.8,12.3,3,16.1c0.2,2.6-0.1,5.1-0.8,7.5c14.8-8.9,30.4-9.5,43.4-5.5v-97.1C496.4,785.8,481.4,786.9,473,790.7z"/>
	<path class="st2" d="M421.7,454.2c2.5,6.6,9,13,10.1,13.9c1.1,0.8,3.7,1,5.4,1c1.6,0,4.3-0.2,5.4-1c1.1-0.9,7.6-7.3,10.1-13.9
		c1.9-5.1,3.6-16.1,4.2-22c0.1-1,0.1-2.1,0.2-3.3c0.2-6.4-1.4-11.5-5-15.1c-3.5-3.6-8.8-5.7-14.8-5.7s-11.3,2-14.8,5.7
		s-5.2,8.8-5,15.1c-0.1,1.1-0.1,2.2,0,3.3C418.1,438.1,419.7,449.1,421.7,454.2z M432.5,437.7c-0.4,0.4-1.7,1.4-2.6,1.6
		c-1.6,0.4-3.9,0.2-4.8-0.3c-0.6-0.3-1.9-1.2-1.9-2.9c0-0.4,3-1.4,7.6-0.6C431.5,435.6,432.9,437.2,432.5,437.7z M439.7,432v-0.1
		c0-0.1,0.1-0.1,0.1-0.1s0,0,0.1,0c3.9-1.5,9.8-1.3,10.7-1.1c0.9,0.2,2.9,1.4,3.8,2c0.5,0.3,0.1,1.8-1.2,1.3
		c-0.8-0.3-2.1-0.8-3.6-0.8s-3.3,0.1-4.9,0.4c-1.3,0.2-1.8,2.1-1.2,2.1c0.1,0,0.1-0.1,0.2-0.1c4.6-0.8,7.6,0.2,7.6,0.6
		c0,1.7-1.3,2.6-1.9,2.9c-0.9,0.4-3.3,0.6-4.8,0.3c-0.1,0-0.2-0.1-0.3-0.1c-1.4-0.4-2.1-0.7-2.4-0.6c-0.4,0.1-0.4,2.5-0.4,3.1
		c0,0.6-1.2,2.1-1.4,1.2c-0.5-1.7-0.8-6.7-0.8-7.3C439.4,434.5,439.5,432.7,439.7,432z M440.2,448.9c1,0,2,1.1,0.9,1.4
		c-1.1,0.3-2.7,1.2-3.9,1.2s-2.8-0.9-3.9-1.2c-1.1-0.3-0.1-1.4,0.9-1.4c0.9,0,2.1,0.5,3,0.5S439.2,448.9,440.2,448.9z M419.9,432.6
		c0.9-0.6,2.9-1.8,3.8-2c0.9-0.2,6.7-0.4,10.7,1.1c0.8,0.3-0.4,2.6-0.8,2.4c-2.6-0.6-6-1.2-8.8-1.1c-1.5,0-2.8,0.5-3.6,0.8
		C419.8,434.4,419.5,433,419.9,432.6z"/>
	<path class="st2" d="M401.6,790.7c-8.4-3.8-23.5-4.9-35.9-0.2v97.1c12.9-4,28.6-3.4,43.4,5.5c-0.7-2.4-1-4.9-0.8-7.5
		c0.3-3.8,1.6-9.8,3-16.1c1.8-7.9,3.6-16,3.6-20.8c0-6.9-3.1-18.2-6.4-30.2C406.1,809.6,403.4,800,401.6,790.7z"/>
	<path class="st2" d="M628.2,847.9l13.1,4.8l0.3-0.9c2.2-6.2,0.6-10.2-5-12.2c-1.6-0.6-3-0.8-4.1-0.8c-4.7,0-6.5,3.8-7,5.1
		c-0.6,1.7-0.7,2.4-0.6,2.6C625,846.6,625.7,847,628.2,847.9z"/>
	<path class="st2" d="M419.6,314.9c0,24.2,19.6,43.7,43.7,43.7c24.2,0,43.7-19.6,43.7-43.7c0-24.1-19.6-43.7-43.7-43.7
		C439.1,271.2,419.6,290.8,419.6,314.9z M450.9,302.5l7.7,1.2l4.6-6.3l4.9,6.3l7.5-1.1l-0.9,7.6l6,4.7l-6.1,4l1,8.3l-7.9-1.7
		l-4.4,6.8l-5.1-6.6l-7.3,1.5l1-7.7l-6.2-4.7l6.2-4.6L450.9,302.5z"/>
	<polygon class="st2" points="659.1,800.7 645.5,804.5 658.6,809.6 	"/>
	<path class="st2" d="M343,287.5c2.8-1.6,10.3-6.7,21-7.9c10.8-1.2,22.9,3.8,27.2,6.2c2.5,1.4,1.8,7.7-2,7.1
		c-3.5-0.6-13.5-3.5-20-2.9c-9.8,0.9-18.1,8.7-20.2,10.9c-0.7,0.8,0.9,2.5,1.8,1.7c3.3-2.8,7.8-5.5,14.2-6c9.9-0.8,16,2.1,20.1,4.9
		c2.7,1.9,2,7-0.6,6.4c-2.9-0.7-8.9-2-14.4-1.3s-11.8,4.9-12.9,6.7c-0.4,0.8,0.9,2,1.5,1.5c2.6-2.1,8.3-3.3,13.6-2.9
		c5.8,0.5,11,3.8,12.8,5.3c1.7,1.4,1.7,6.3-1.4,5.7c-6.6-1.3-13-1.2-17.5,3.7c-0.7,0.8,0.1,1.8,0.9,1.4c2-1.1,6.3-1.5,10.2-1
		c6.4,0.8,10.4,3.4,11.6,4.8c1.2,1.3,0.3,5-1.4,5c-1.6-0.1-8.1-2-12.1,1.2c-0.8,0.6-0.2,1.9,0.5,1.7c2-0.7,7.4,0.2,11,3.5
		c6.1,5.5,26.8,20.6,48.9,19.7c2-0.3,2.1-2.9-0.1-3.2c-16.8-4.1-30-17.4-34-34.3c-0.2-0.8-0.4-1.6-0.5-2.3c0-0.1,0-0.2-0.1-0.3
		c-0.5-2.7-0.8-5.4-0.8-7.9c0-3.8,0.5-7.9,1.7-11.8c0.1-0.3,0.2-0.6,0.3-0.9c0-0.1,0.1-0.2,0.1-0.4c4.9-16.5,18.8-29.1,36-32.2h0.1
		c2-0.3,1.7-2.4,0.2-2.6c-18.2-2.1-34.1,6.4-45.1,6.8c-9.9,0.3-13.1-3.5-28-1.6c-10.6,1.3-22.4,11.6-24.2,13.5
		C340.9,286.5,342.2,287.9,343,287.5z"/>
	<path class="st2" d="M665.9,860c0.7-0.4,1.2-1.1,1.7-2.5c0.8-2.2,0.8-4.4-0.1-6.3c-1-2.4-3.3-4.2-6.6-5.4c-6.7-2.4-12.1,0.5-14.8,8
		l-0.2,0.7l12.4,4.3C662.5,860.2,664.7,860.6,665.9,860z"/>
	<path class="st2" d="M734.6,787.3V139.9v-8.7v-8.7H139.7v8.7v8.7v647.3c0,164.3,133.2,297.4,297.4,297.4S734.6,951.5,734.6,787.3z
		 M437.2,1067.2c-154.6,0-279.9-125.3-279.9-279.9V139.9h559.9v647.3C717.1,941.9,591.7,1067.2,437.2,1067.2z"/>
	<path class="st2" d="M174.7,244.9v542.4c0,144.9,117.5,262.4,262.4,262.4s262.4-117.5,262.4-262.4V244.9v-87.5H174.7V244.9z
		 M192.7,811.1c-0.7-6.7-1.2-14-1.3-21.9v-0.8h4l0.8,2.5c0.2,1.2,0.4,1.8,0.7,2c0.5,0.3,2-0.2,3-0.6c1.1-0.4,2.5-0.9,3.9-1.4
		c1.8-0.7,3.7-1.3,5.3-2v-12.5c-2.1-0.8-5.1-1.6-7.9-2.5l-0.8-0.2c-1.9-0.5-3.2-0.8-3.8-0.4c-0.4,0.3-0.7,1-0.8,2.3l-0.3,2.6h-4.1
		v-18.9h4.1l0.1,0.7c0.5,4.1,0.8,5,8,7.6l41.5,15.6l1.5,4.9l-15.6,5.3c-8.1,2.7-17.2,5.9-27.1,9.5c-6.1,2.2-6.3,4.2-6.7,6.6
		c-0.1,0.4-0.1,0.8-0.2,1.2l-0.1,0.5l-4,0.7L192.7,811.1z M195.5,570.9L195.5,570.9l0.1,0.8c0.4,5.3,0.7,5.8,9.2,5.8h27.5
		c8.6,0,8.6-0.6,9-5.2l0.1-0.7h4.1v23.7c0,9.7-2.6,17.4-7.5,22.3c-4.3,4.3-10.7,6.8-17.2,6.8c-18.4,0-29.4-12.5-29.4-33.3v-20.2
		H195.5z M191.4,563.4v-24.2h4.1l0.1,0.8c0.4,5.1,0.7,5.5,9.2,5.5h27.5c8.6,0,8.6-0.5,9-5.6l0.1-0.7h4.1v24.2h-4.1l-0.1-0.7
		c-0.4-5-0.5-5.5-9-5.5h-27.5c-8.5,0-8.8,0.5-9.2,5.5l-0.1,0.7H191.4z M195.5,622.9l0.1,0.7c0.5,4.1,0.8,5,8,7.6l41.5,15.6l1.5,4.9
		L231,657c-8.1,2.7-17.2,5.9-27.1,9.5c-7.4,2.6-7.8,3.7-8.2,7.3l-0.1,0.7h-4.1v-22.6h4l0.4,2.7c0.1,1,0.4,1.6,0.7,1.8
		c0.6,0.4,2.2-0.1,3.2-0.5l3-1.1c2-0.7,4.2-1.6,6-2.3V640c-2-0.8-4.8-1.7-8.4-2.7c-1.9-0.5-3.2-0.8-3.8-0.4c-0.4,0.3-0.7,1-0.8,2.3
		l-0.3,2.6h-4.1v-18.9H195.5z M245.5,679.7v23.7c0,9.7-2.6,17.4-7.5,22.3c-4.3,4.3-10.7,6.8-17.2,6.8c-18.4,0-29.4-12.5-29.4-33.3
		V679h4.1l0.1,0.8c0.4,5.3,0.7,5.8,9.2,5.8h27.5c8.6,0,8.6-0.6,9-5.2l0.1-0.7H245.5z M272.7,961.9c-7.1-0.2-13.8-3.5-18.9-9.2
		c-10-11.2-8.7-26.9,3-37.4c5.3-4.7,12.2-7.6,18.9-7.9c5.6-0.3,13.8,1.2,21.1,9.4c9.6,10.8,8.2,26.7-3.4,37
		c-6,5.4-12.8,8.2-19.8,8.2C273.3,961.9,273,961.9,272.7,961.9z M293.9,908.9l2.2-2.6l13,8.7c1.7,1.1,2,2.5,1.1,4.5l-0.7,1.2
		c-0.7,1.2-1.4,1.8-2.2,1.8c-0.1,0-0.1,0-0.2,0c-0.8,0-1.5-0.4-2.3-1.4L293.9,908.9z M324,1005.5l-5.2-2.8v-0.4l-4.8-47l-7.6,12.2
		c-4.2,6.8-6.2,10.6-7.4,13.3c-0.8,1.7-1,3.9,3.4,7l0.6,0.4l-2.2,3.5l-0.7-0.5c-5.2-3.5-10.5-7.4-15.7-11.5l-0.6-0.4l2.2-3.4
		l0.7,0.4c3.6,2.1,5,2.2,6.3,0.7c1.7-2.1,4.4-5.6,8.7-12.5l8.4-13.4c2.6-4.2,3.6-5.7,3.5-7.8c-0.2-2.4-0.4-4.6-2.7-6.3l-0.6-0.5
		l2.5-3.5l0.7,0.6c3.4,2.9,6.7,5.5,10,7.9l0.3,0.2l5.8,44.8l6.4-10.2c4.3-6.9,6.3-10.9,7.4-13.3c0.8-1.7,0.4-3.1-4.2-6.2l-0.6-0.4
		l2.2-3.5l0.7,0.4c5,2.9,10.7,5.9,17,8.8l0.8,0.4l-2,3.5l-0.7-0.3c-2.9-1.3-5.4-0.9-7.1,1.2c-1.7,2.1-4.4,5.6-8.7,12.5L324,1005.5z
		 M399.5,1003.6c-3.8,13.5-13.9,21.5-26,21.5c-2.6,0-5.2-0.4-8-1.1c-7.1-2-12.8-6.5-15.9-12.8c-3.1-6-3.6-13.3-1.6-20.5
		c3.9-13.8,17-25.2,34.5-20.2c6.7,1.9,12.1,6.2,15.3,12.2C400.9,988.8,401.6,996.2,399.5,1003.6z M470.9,1030.6
		c-6.4,0.9-13.6,1.6-22,2h-0.8l-0.1-4.1l0.7-0.1c5.2-0.7,5.2-0.7,4.8-9l-1-26.5l-14.5,40l-3.7-0.1L418.2,996v16.3
		c0,6.8,0.1,10.2,0.5,12.7c0.3,2.3,1.3,3.3,6.3,3.5h0.7l0.1,4.2l-0.9-0.1c-7.2-0.4-13.2-0.9-18.5-1.6l-0.8-0.1l0.4-4h1.5
		c2.9-0.1,3.9-0.2,4.1-2.2c0.3-2.4,0.6-5.8,0.8-13.2l0.4-16.2c0.3-10.6-0.4-13.5-6.1-14.8l-0.6-0.1l-0.1-4.2l1,0.1
		c5,0.8,10.1,1.3,15.2,1.8h0.5l16.3,35.7l13.4-35.7h0.5c5.4-0.5,10-1,15.2-1.8l0.9-0.2l0.1,4.2l-0.7,0.1c-5.2,0.7-5.5,2.1-5,11
		l1.6,27.5c0.4,7.1,0.4,7.1,4.1,7.3c0.5,0,1.2,0.1,1.8,0.1l0.7,0.1l0.1,4L470.9,1030.6z M530.6,1014.6c-6.5,2.6-13.3,5-20.1,7.2
		l-0.8,0.2l-1.2-3.9l2.4-1.2c1-0.5,1.5-0.8,1.6-1.2c0.1-0.6-0.7-1.8-1.4-2.7c-0.7-0.9-1.6-2.1-2.5-3.3c-1.1-1.6-2.4-3.2-3.4-4.6
		l-11.9,3.6c-0.2,2.2-0.1,5.3-0.1,8.3v0.8c0,1.6,0.1,3.1,0.6,3.5c0.4,0.3,1.6,0.2,2.4,0l2.6-0.6l1.2,4l-0.8,0.2
		c-5.9,1.4-11.6,2.7-17,3.7l-0.8,0.1l-0.8-4l0.6-0.3c0.6-0.3,1.1-0.5,1.6-0.6c2.8-1.1,3.3-1.3,3.7-7.4l3.1-44.2l4.3-2.8l9.5,13.5
		c5,7,10.5,14.6,16.8,23.3c3.9,5.3,5,5.1,7.9,4.5c0.4-0.1,0.8-0.2,1.3-0.2l0.7-0.1l1.2,3.9L530.6,1014.6z M597.6,965.6
		c-2,7.1-7.1,13.8-14.8,19.5l-16.3,12l-2.5-3.3l0.6-0.5c4.1-3.5,4.4-3.8-0.6-10.6l-17-23.2c-5-6.8-5.4-6.5-9.5-4l-0.6,0.4l-2.5-3.4
		l0.8-0.5c6.6-4,13-8.4,18.9-12.9c7.6-5.6,15.4-8,22.5-6.9c6,0.9,11.9,4.6,15.7,9.8C598,949.7,599.8,957.7,597.6,965.6z
		 M642.4,922.4c-6.7,10.3-14.4,20.2-23.6,30.2l-0.5,0.5l-3.2-2.5l0.4-0.6c3.1-4.7,3.4-5.2-3.3-10.4l-21.7-16.9
		c-6.8-5.3-7.4-5.1-10.7-1.6l-0.5,0.5L576,919l0.6-0.6c8.4-9,15.5-18,21.5-27.5l0.4-0.7l0.7,0.5c1.1,0.8,6.3,4.3,10.7,7.2l0.7,0.4
		l-2.3,3.6l-0.7-0.3c-3.6-1.8-5.9-2.6-7.4-2.4c-1,0.1-1.8,1.2-3.1,3.1c-0.6,0.8-1.2,1.7-2,2.7l-1.8,2.3c-0.6,0.8-1.2,1.5-1.2,1.7
		s0.9,0.9,1.4,1.3l11.7,9.1l2.9-3.8c3.7-4.8,3.7-4.8-0.6-9l-0.5-0.5l2.6-3.4l15.1,11.7l-2.6,3.4l-0.6-0.4c-5.2-3.1-5.2-3.1-8.9,1.7
		l-2.9,3.8l9.3,7.2c4.6,3.6,5.8,4,6.9,3.5c1.1-0.5,2.4-2.2,4.2-4.5c2.7-3.5,3.9-6.1,3.5-7.9c-0.3-1.7-1.6-4.2-3.9-7.6l-0.4-0.6
		l3.3-2.8l0.5,0.6c2.2,2.3,7.7,8.5,9,10.5l0.3,0.4L642.4,922.4z M689.2,763.5c2,2.8,3.6,6.2,4.4,9.5l0.2,0.7l-4,1.7l-0.3-0.7
		c-1.8-4-4.8-6.3-9.5-7.1c-4-0.7-8.5-0.8-14-0.8h-24.2c-8.4,0-8.5,0.4-8.9,5.8l-0.1,0.8h-4.1v-24.2h4.1l0.1,0.7
		c0.4,4.7,0.5,5.2,8.9,5.2h24.8C674.8,755.1,683.3,755.1,689.2,763.5z M673.4,734.8l0.8,0.2c1.5,0.4,3,0.8,3.5,0.5
		c0.4-0.3,0.6-1.5,0.7-2.3l0.3-2.6h4.1v18.9h-4.1l-0.1-0.7c-0.5-4.2-0.6-5-7.6-7.6l-41.5-15.6l-1.4-4.9l15.6-5.3
		c8.1-2.7,17.2-5.9,27.1-9.5c7.3-2.6,7.4-3.6,7.9-7.3l0.1-0.7h4.1v22.6h-4.1l-0.4-2.7c-0.2-1.1-0.4-1.7-0.7-1.9
		c-0.5-0.3-1.9,0.2-3,0.6c-1.1,0.4-2.5,0.9-3.9,1.4c-1.8,0.7-3.7,1.4-5.3,2v12.5C667.6,733.1,670.6,734,673.4,734.8z M656.8,667.3
		c-16.7,0-28.7-12.9-28.7-30.8c0-5.6,1.2-10.2,1.8-12.7c0.1-0.5,0.2-0.9,0.3-1.2l0.1-0.5l0.5-0.1c4.2-0.6,7.5-0.9,12.1-1.3l1.6-0.1
		l0.7,4.2l-0.7,0.2c-8,2.1-11.3,5.9-11.3,12.9c0,11.4,10.9,16.5,21.7,16.5c14.3,0,23.9-6.6,23.9-16.4c0-7.5-4.6-11.1-12.5-14.8
		l-0.6-0.3l0.9-4.2l0.8,0.2c4.6,1.1,10.9,2.7,13.9,3.9l0.4,0.1l0.1,0.4c0.5,2,2.3,9.1,2.3,14.5C684.1,659.6,669.4,667.3,656.8,667.3
		z M636.1,469.6h16.5v-6c0-6.1,0-6.1-5.7-6.8l-0.7-0.1v-4.3h18.6v4.3l-0.7,0.1c-5.8,0.7-5.8,0.7-5.8,6.8v6h11.4c8.5,0,8.5-0.5,9-6.6
		l0.1-0.8h4.2v25.1h-4.1l-0.1-0.7c-0.4-4.9-0.5-5.4-9-5.4H642c-8.5,0-8.5,0.5-9,5.4l-0.1,0.7h-4.1V448h0.8c1.4-0.1,7.3-0.5,12.6-0.8
		l0.8-0.1l0.4,4.3l-0.7,0.1c-3.7,0.7-5.8,1.6-7,2.6c-1.1,1-1.6,3.3-1.6,7.7v5.5C634.1,469.6,634.1,469.6,636.1,469.6z M632.9,494.8
		L632.9,494.8l0.1,0.8c0.4,5.1,0.5,5.6,9,5.6h27.8c8.5,0,8.5-0.4,9-5.6l0.1-0.7h4.1V519h-4.1l-0.1-0.7c-0.4-5.1-0.5-5.5-9-5.5H642
		c-8.5,0-8.5,0.4-9,5.5l-0.1,0.7h-4.1v-24.2H632.9z M632.9,538.1v-0.2l0.1,0.7c0.4,5.4,0.5,5.9,9,5.9h27.5c6,0,7.2-0.4,7.7-1.4
		c0.5-1.2,0.6-3.4,0.6-5.4c0-2.6-0.4-6.1-2.2-7.7c-1.5-1.2-4.1-2.4-7.7-3.5l-0.7-0.2l0.9-4.2l0.8,0.1c3.1,0.5,11.5,2,13.7,2.7
		l0.6,0.2v38H679l-0.1-0.8c-0.4-5.7-0.5-6.1-9-6.1H642c-8.5,0-8.5,0.4-9,5.7l-0.1,0.8h-4.1v-24.6H632.9z M643.7,583.6
		c8.1-2.7,17.2-5.9,27.1-9.5c7.3-2.6,7.4-3.6,7.9-7.3l0.1-0.7h4.1v22.6h-4.1l-0.4-2.7c-0.2-1.1-0.4-1.7-0.7-1.9
		c-0.5-0.3-1.9,0.2-3,0.6c-1.1,0.4-2.5,0.9-3.9,1.4c-1.8,0.7-3.7,1.3-5.3,2v12.5c2.1,0.8,5,1.6,7.9,2.5l0.8,0.2
		c1.5,0.4,3,0.8,3.5,0.5c0.4-0.3,0.6-1.5,0.7-2.3l0.3-2.6h4.1v18.9h-4.1l-0.1-0.7c-0.5-4.2-0.6-5-7.6-7.6l-41.5-15.6l-1.4-4.9
		L643.7,583.6z M669.7,371.2L669.7,371.2c8.5-0.1,8.5-0.5,9-5.6l0.1-0.7h4.1v23.9h-4.1l-0.1-0.8c-0.4-5.3-0.5-5.7-9-5.7H642
		c-8.5,0-8.5,0.5-9,5.4l-0.1,0.7h-4.1v-21.6c0-6.9,0.8-11.1,2.9-14.2c2.2-3.4,6.4-5.4,11.1-5.4c6.4,0,11.3,3.3,14.1,9.6
		c2.6-1.3,7.4-3.9,10.7-5.8c4.4-2.7,7.4-4.7,9-6c1.8-1.5,2.5-2.5,3.1-4.2l0.2-0.6l3.9,0.3l-0.2,3.6c-0.6,9.5-2.7,12.4-7.7,15.6
		c-3.8,2.4-8.6,4.6-12.9,6.6c-2.4,1-2.8,1.9-2.8,3.9v1H669.7z M683.5,295.3l-0.3,0.3l-37.7,29.1H660c8.1,0,12.4-0.4,15.3-0.8
		c2.1-0.3,3.2-1.4,3.4-6.6v-0.8h4.2v20.6h-4.2v-0.8c-0.2-4-1.4-5-3.4-5.3c-2.7-0.3-7.1-0.8-15.3-0.8h-16c-5,0-6.9,0-8.6,1.2
		c-1.5,1.2-2.1,2.6-2.4,5.9v0.8h-4.2v-14.5l35.1-28.5h-12.1c-8.2,0-12.7,0.4-15.3,0.8c-2.1,0.3-3.1,1.4-3.4,6.6v0.8h-4.2v-20.6h4.2
		v0.8c0.2,4,1.4,5,3.4,5.3c2.9,0.3,7.3,0.8,15.3,0.8h31.7V295.3z M683,276.8h-4.1l-0.1-0.7c-0.4-5.1-0.5-5.5-9-5.5H642
		c-8.5,0-8.5,0.4-9,5.5l-0.1,0.7h-4.1v-24.1h4.1l0.1,0.7c0.4,5.1,0.5,5.5,9,5.5h27.8c8.5,0,8.5-0.4,9-5.5l0.1-0.7h4.1V276.8z
		 M643.7,214.4c8.1-2.7,17.2-5.9,27.1-9.5c7.3-2.6,7.4-3.6,7.9-7.3l0.1-0.7h4.1v22.6h-4.1l-0.4-2.7c-0.2-1.1-0.4-1.7-0.7-1.9
		c-0.5-0.3-1.9,0.2-3,0.6s-2.5,0.9-3.9,1.4c-1.8,0.7-3.7,1.4-5.3,2v12.5c2.1,0.8,5,1.6,7.9,2.5l0.8,0.2c1.5,0.4,3,0.8,3.5,0.5
		c0.4-0.3,0.6-1.5,0.7-2.3l0.3-2.6h4.1v18.9h-4.1l-0.1-0.7c-0.5-4.2-0.6-5-7.6-7.6l-41.5-15.6l-1.4-4.9L643.7,214.4z M655,390.9
		c17,0,28.8,11.2,28.8,27.2c0,15-11.5,25.9-27.2,25.9c-14.3,0-28.8-9.5-28.8-27.7C627.8,401.8,639.5,390.9,655,390.9z M643.4,793.4
		c8.2-2.3,17.5-5,27.6-8c6.9-2,7-3,7.7-6.5l0.2-1.1h4v0.8c0,7,0,14.3-0.3,21.2v0.8l-4.2-0.3l-0.1-2.7c-0.1-1-0.3-1.6-0.6-1.8
		c-0.6-0.4-2.1,0-3.2,0.4c-1.1,0.4-2.5,0.8-4,1.2c-1.8,0.6-3.8,1.1-5.4,1.7l-0.7,12.4c2,0.9,4.9,1.9,7.7,2.9l0.8,0.3
		c1.5,0.5,3,1,3.5,0.7s0.7-1.4,0.8-2.3l0.5-3l4.1,0.6l-0.1,0.8c-0.6,6.2-1.4,12-2.3,17.6l-0.1,0.8l-4.1-0.8v-1.4
		c0.1-3.2,0.2-4.3-5.9-7l-40.6-17.9l-1.2-5L643.4,793.4z M614.4,860.2c2.9-7,5.2-13.5,7-20c1.7-6,4.5-10.1,8.2-12
		c2.9-1.5,6.3-1.6,10-0.3c5.5,2,7.7,7.1,7.8,11.9c4.3-6.3,10.2-8.6,16.6-6.3c5.5,2,8.9,5.8,10,11c0.9,4.1,0.2,9.3-2.1,15.6
		c-1.7,5.1-4.3,12.8-6.7,18.8l-0.3,0.7l-3.9-1.4l0.2-0.7c1.3-4.9,1.2-5.4-6.9-8.3l-26.1-9.5c-7.9-2.8-8.1-2.4-10.1,1.9l-0.3,0.7
		L614,861L614.4,860.2z M262.1,244.9h0.1h349.9v542.4c0,96.6-78.3,175-175,175s-175-78.3-175-175V244.9z M260.1,856.1l1.1,2.4
		l-0.2,0.4c-1,1.8-0.8,2.3,0,3.9c4.1,9.6,8.9,18.7,14.2,26.9c1,1.7,1.5,2.1,3.1,2.6l0.3,0.1l1.1,2.4l-0.7,0.3
		c-3.6,1.8-10.5,5.5-13.3,7.1l-0.7,0.4l-2.1-3.7l0.6-0.4c3.2-2.2,5-3.9,5.8-5.5c0.3-0.7-0.6-2.2-2-4.4c-0.7-1.1-1.5-2.5-2.4-4.1
		l-32.1,14.9c-6.9,3.2-6.8,3.4-4.6,9.2l0.5,1.3l-3.6,1.8l-0.4-0.7c-4.1-7-8-14.6-11.6-22.4l-0.4-0.7l3.8-1.7l0.4,0.7
		c2.9,5.2,3.3,5.5,11.1,2l31.8-14.7l-0.5-1c-2.6-5.6-3.9-6.9-5.2-7.3c-1.4-0.4-3.8-0.3-7.5,0.5l-0.6,0.1l-1.8-3.9l0.8-0.3
		c5.3-2.1,10.7-4.3,14.4-5.9L260.1,856.1z M249.2,825.1l-4,0.9l-0.2-0.7c-1.6-4.9-1.9-5.7-9.4-3.4l-16.6,5.2
		c-11.9,3.5-16.8,8.9-15,16.3c0.8,3.2,2.4,5.6,5,7c4,2.2,9.9,2.2,17-0.1c0.2,0,17.8-6.3,20.1-7.2c1.9-0.7,2.1-2.1,1.1-7.4l-0.1-0.8
		l4-0.9l0.2,0.8c1.8,6.7,3.6,12.6,5.6,18.2l0.3,0.8l-4.1,1.3l-0.2-0.8c-0.9-3-2.5-4.4-5.2-4.1c-2,0.2-15.5,4.7-20.6,6.4
		c-2.7,0.8-7.3,2.2-12.1,2.2c-3.1,0-6.4-0.6-9.3-2.3c-4.4-2.5-7.3-7.2-8.9-13.8c-1.4-6.1-1-11.2,1.1-15.2c2.6-5.1,7.7-8.5,16.7-11.3
		l18.3-5.6c8.1-2.5,9.4-2.9,8.6-7.9l-0.1-0.8l4.5-0.5l0.1,0.8c0.4,6.5,1.4,13.8,3,22.2L249.2,825.1z M195.1,209
		c3.6-4.3,9.5-6.2,19.2-6.2h18.4h0.3c7.9,0,7.9-0.1,8.3-5.1l0.1-0.7h4.1v24.5h-4.1l-0.1-0.7c-0.4-5-0.5-6.2-9-6.2h-16.5
		c-8.5,0-18.5,2.1-18.5,12.3c0,8.5,6.6,12.6,20.1,12.6h5.3c8.2,0,12.7-0.4,15.3-0.8c2-0.3,3.1-1.4,3.4-6.7v-0.8h4.1v20.9h-4.2v-0.8
		c-0.2-4.1-1.4-5.1-3.4-5.4c-2.6-0.3-7.1-0.8-15.3-0.8h-5.9c-9.4,0-15.8-1.8-20.1-5.7c-3.8-3.5-6.2-9.3-6.2-15.1
		C190.5,220.6,191.1,213.5,195.1,209z M232.8,384l2.5,0.8c1.9,0.6,4.2,1.2,5,0.7c0.4-0.3,0.7-1,0.8-2.3l0.3-3h4.1v19.7h-4.1
		l-0.1-0.7c-0.5-4.3-0.6-4.9-8.5-8.2c-0.2-0.1-24.4-9.9-40.9-15.7l-0.5-0.2v-5.2l0.5-0.2c14.1-5.3,34-12.6,41.6-15.4
		c7.2-2.6,7.4-3.8,7.8-7.5l0.1-0.7h4.1v23.7h-4.1l-0.4-3.3c-0.1-0.4-0.2-1.6-0.6-1.8c-0.5-0.3-2.1,0.2-2.7,0.5
		c-3.5,1.1-14.2,5.1-23.7,8.6l-5.6,2.1C215.2,378.3,227.3,382.2,232.8,384z M238.2,420.7h-15.7v4.8c0,6.1,0,6.1,6,6.8l0.7,0.1v4.3
		H210v-4.3l0.7-0.1c6-0.7,6-0.7,6-6.8v-4.8H205c-5.7,0-7.4,0.3-7.9,1.5c-0.4,0.8-0.3,2-0.3,3.8c0,0.7,0,1.5,0,2.4
		c0,3.3,0.1,6.7,1.8,8.1c1.6,1.4,5.3,2.7,8,3.6l0.7,0.2l-0.9,4.2l-0.8-0.1c-2.9-0.4-11.6-2-13.9-2.7l-0.6-0.2v-39.3h4.1l0.1,0.7
		c0.4,5.6,0.7,6.1,9.2,6.1H232c8.6,0,8.6-0.5,9-5.4l0.1-0.7h4.1v36.7l-0.5,0.2c-1.4,0.1-7.3,0.5-12.6,0.8l-0.8,0.1l-0.4-4.3l0.7-0.1
		c3.8-0.8,5.9-1.6,7-2.6c1.1-1,1.6-3.3,1.6-7.7v-3C240.2,420.7,240.2,420.7,238.2,420.7z M191.3,493.1c0.6-9.5,2.7-12.4,7.7-15.6
		c3.8-2.4,8.5-4.6,12.7-6.6c2.3-1,2.7-1.9,2.7-3.9v-1h-9.6c-8.5,0-8.8,0.5-9.2,5.6l-0.1,0.7h-4.1v-23.9h4.1l0.1,0.7
		c0.4,5.2,0.7,5.7,9.2,5.7h27.5c8.6,0,8.6-0.5,9-5.4l0.1-0.7h4.1v21.6c0,7-0.8,11.1-2.9,14.2c-2.2,3.4-6.4,5.4-11.1,5.4
		c-6.4,0-11.2-3.3-13.9-9.6c-2.6,1.3-7.3,3.9-10.6,5.8c-4.3,2.7-7.4,4.7-8.9,6c-1.8,1.5-2.5,2.5-3,4.2l-0.2,0.6l-3.8-0.2
		L191.3,493.1z M241.4,341.3l-0.1-0.7c-0.4-5.1-0.5-5.5-9-5.5h-27.8c-8.5,0-8.5,0.4-9,5.5l-0.1,0.7h-4.1v-24.2h4.1l0.1,0.8
		c0.4,5.1,0.5,5.5,9,5.5h27.8c8.5,0,8.5-0.4,9-5.5l0.1-0.8h4.1v24.2H241.4z M214.4,269.2c-6.3,0-11.4,0.3-15.5,0.8
		c-2,0.3-3.1,1.4-3.4,6.6v0.8h-4.1v-20.6h4.1v0.8c0.2,4,1.4,5,3.4,5.3c4.1,0.5,9.3,0.8,15.5,0.8h15.8c5.1,0,6.9,0,8.6-1.2
		c1.5-1.2,2.1-2.7,2.4-5.9l0.1-0.8h4.1v14.5l-34.9,28.5h12.1v0.1c8.2,0,12.7-0.4,15.3-0.8c2-0.3,3.1-1.4,3.4-6.6v-0.8h4.1v20.6h-4.2
		v-0.8c-0.2-4-1.4-5-3.4-5.3c-2.6-0.3-7.1-0.8-15.3-0.8h-31.2v-5.9l37.5-29.3H214.4z M191.9,506.9c0.6-1.8,1.2-3.3,1.9-4.7l0.2-0.3
		l0.3-0.1c1.8-0.5,6.2-1.3,10.4-2l2.7-0.5l1.6,4.2l-0.8,0.3c-4.3,1.3-12.4,5.5-12.4,12.5c0,4.9,3.9,7.1,7.7,7.1
		c4.7,0,7.2-2.1,10-8.2l0.7-1.5c3.8-8.2,9.1-12.4,15.9-12.4c9.7,0,16.5,7.3,16.5,17.8c0,2.6-0.4,5.1-1.2,7.3c-0.2,0.5-0.3,1-0.5,1.5
		c-0.2,0.6-0.4,1.2-0.6,1.8l-0.2,0.5l-0.5,0.1c-2.5,0.3-5.8,0.7-11.2,1.6l-0.8,0.1l-0.9-4.2l0.7-0.2c4.8-1.6,9.8-3.7,9.8-9.6
		c0-4-2.9-6.6-7.2-6.6c-3.6,0-6.3,2.4-8.7,7.9l-1.1,2.5c-2.3,5.3-6.6,12.3-16.3,12.3c-10.3,0-17.5-7.8-17.5-19
		C190.5,512.2,191,509.3,191.9,506.9z"/>
	<path class="st2" d="M587.1,1124.9l-9.3-8.1l-8.8,8.5l-45.4-34.8c-1.8,0.5-4.2,1.1-6.1,1.7l58.7,44.8
		C579.2,1134.2,584.6,1128.2,587.1,1124.9z"/>
	<path class="st2" d="M296.5,1116.8l-9.3,8.1c2.5,3.4,7.9,9.3,11,12l58.7-44.8c-1.9-0.5-4.3-1.1-6.1-1.7l-45.4,34.8L296.5,1116.8z"
		/>
	<path class="st2" d="M230.3,477.8c8,0,10.2-5.5,10.2-8.8c0-3,0-3-2.6-3H219v1.4c0,3.1,0.5,4.9,1.9,6.5
		C223.4,477.1,227.4,477.8,230.3,477.8z"/>
	<path class="st2" d="M437.2,944.7c86.8,0,157.5-70.6,157.5-157.5V262.4h-39c0,65.3-53.1,118.4-118.4,118.4s-118.4-53.1-118.4-118.4
		h-39v524.9C279.7,874.1,350.3,944.7,437.2,944.7z M437.2,936.6c-32.1,0-61.9-10.2-86.2-27.5l4.6-2.2c18.3-8.8,34.7-7.6,48.9,2.5
		c4.6,3.3,14.2,17.8,32.8,17.8c18.6,0,28.2-14.5,32.8-17.8c14.2-10.1,30.6-11.3,48.8-2.5l4.6,2.2C499,926.5,469.3,936.6,437.2,936.6
		z M563.4,270.5h23.1v34.8c-9.2-3.6-19.9-7.7-27.1-10.5C561.5,287,562.9,278.8,563.4,270.5z M287.8,270.5h23.1
		c0.5,8.4,1.9,16.5,4,24.3c-7.3,2.8-17.9,7-27.1,10.5V270.5z M287.2,476.6h0.6c3.8-4.9,22.1-28.5,40.5-52.3c-2.7-4.6-5.2-9.3-7.5-14
		c-15.1,22.2-29.9,44.1-33.1,48.7v-82c0.5-0.3,5.9-3.9,13-8.7c-1.4-3.2-2.9-6.8-4.1-11c-5,3.9-8.6,6.8-9,7.1v-48.2
		c10.2-2.6,23-6,31.4-8.2c3.1,7.9,6.9,15.5,11.5,22.6c-0.6,0.5-4.6,3.7-10.1,7.9c0.3,0.5,0.6,1.1,0.9,1.6c0.2,0.4,0.5,0.9,0.7,1.3
		c0.3,0.4,0.6,1,1.1,1.6c1.2,1.8,3,4.4,4.2,7.5c6.3-4.2,11-7.3,11.9-7.9c4.9,5.9,10.3,11.4,16.2,16.4c-1,1.5-7.6,11.3-16.4,24.2
		c0.5,0.4,1,0.9,1.5,1.4c3.1,2.8,6.7,6,10.5,10c10.5-13.5,18.2-23.6,19.2-24.8c6,3.7,12.3,7,18.9,9.7c-0.4,1.3-6.6,22.1-15,50.2
		c1.6,1.6,3.6,3.4,5.8,5.3c2.2,1.9,4.6,4.1,7.1,6.5c11-31.4,19.4-55.4,19.7-56.3c9.7,2.4,19.8,3.6,30.1,3.6
		c10.4,0,20.6-1.3,30.3-3.7c0.4,1.2,8.8,25.1,19.7,56.2c2.5-2.3,4.8-4.5,7-6.4c2.3-2,4.3-3.8,5.9-5.4c-8.4-28.1-14.6-48.9-15-50.2
		c6.6-2.7,12.9-6,18.9-9.7c1.1,1.4,8.9,11.4,19.2,24.8c3.8-4,7.3-7.2,10.4-9.9c0.6-0.5,1.1-1,1.6-1.5c-8.9-13.1-15.6-23-16.4-24.2
		c5.9-5,11.2-10.4,16.1-16.4c0.7,0.4,5.5,3.6,11.9,7.9c1.3-3.1,3-5.6,4.2-7.4c0.4-0.7,0.8-1.2,1.1-1.6c0.2-0.4,0.5-0.8,0.7-1.3
		c0.3-0.6,0.7-1.1,1-1.7c-5.5-4.3-9.6-7.6-10.1-7.9c4.5-7.1,8.4-14.6,11.4-22.5c8.3,2.2,21.2,5.6,31.4,8.2v48.1
		c-0.5-0.4-4.1-3.2-8.9-7c-1.2,4.2-2.6,7.8-4.1,11c6.9,4.6,12.2,8.1,13,8.6v81.8c-2.8-4.2-17.8-26.2-33-48.6
		c-2.3,4.7-4.8,9.4-7.5,14c18.6,24,37.1,47.8,40.4,52.2v310.9c0,49.7-24.4,93.8-61.9,121V803.4l-8.1-3.9v97.6
		c-18.7-7.2-36.3-5-51.3,5.7c-6.8,4.9-15,16.3-28.1,16.3c-13.1,0-21.3-11.4-28.1-16.3c-15-10.8-32.6-13-51.3-5.7v-97.6l-8.1,3.9
		v104.8c-37.5-27.2-61.9-71.3-61.9-121V476.6z"/>
	<path class="st2" d="M333.7,594.2c0,0,18.1-51.5,36.3-103.3c-3.6-4.4-6.9-9-9.8-13.7c-16.7,55.6-34.3,114.4-34.3,114.4
		C325,594.7,332.5,597.6,333.7,594.2z"/>
	<path class="st2" d="M354.1,443.8c0.1,0.1,0.2,0.2,0.3,0.4c6.1,20.9,27.8,47.1,35,54.3c0.1,0.1,0.2,0.3,0.2,0.5
		c1,10.4,7.1,25.8,9.5,30.4c2.8,5.4,7.4,7,13.7,6.8c0.9-0.1,1.8-0.1,2.7-0.2c1.5-0.2,3.1-0.4,4.9-0.7c0.4-0.1,0.8,0.2,0.9,0.6
		c0,0.3-0.1,0.6-0.3,0.8c-0.1,0.1-0.1,0.2-0.3,0.2c-0.7,0.2-4.3,1.1-10.6,1.7c-4.4,0.5-6.8,0.3-8.4-0.8c0.3,7.5,1.1,17.9,3.6,25
		c1.5,4,3.9,8.9,5.8,11.2c0.5,0.5-0.1,1.4-0.9,0.9c-1.3-0.8-3.7-2.7-5.5-4.9c-0.5,6.9-0.3,13.8-0.2,19.1c0.3,3.2,1.8,11.8,4.9,17.2
		c0.5,0.7-0.5,2-1.3,1.2c-0.9-0.8-3.6-4.7-4.8-7c-3.1,11.6-7.4,29-3.6,62.2c2.9,24.8,5.5,36.6,7.4,45.3c1,4.7,1.9,8.5,2.3,12.7
		c1.4,11.8,0.6,21.1-0.1,30c-0.5,6.5-1,12.6-0.7,19.3c1.2,23.9,5.4,39.6,8.8,52.2c2.2,8.2,4.1,15.3,4.5,22.3c0.4,7.2,0,15.2-1,20.3
		c-2.1,10.4-3.4,19.3-3.2,23.4c0.2,5.9,7.5,11.8,12.2,14.3c1.2,0.4,2.5,0.5,3.3,0.2c0.2-0.1,0.8-0.4,0.9-2
		c0.3-8.4-0.3-22.9-0.7-32.6c-0.2-4.2-0.3-7.5-0.3-8.9c0-2.6,0.4-8.7,0.9-16.4c0.7-11.1,1.6-24.8,1.6-33c0-6.7-0.5-11-0.9-15.4
		c-0.5-4.5-1-9.2-1-16.5c0-8.6,0.7-18.5,1.2-26.5c0.4-5.5,0.7-10.2,0.7-12.9c0-4.8-0.4-7.4-0.8-9.9c-0.3-2.2-0.6-4.2-0.6-7.3
		c0-3.7,0.4-7.4,0.8-10.6c0.3-2.3,0.5-4.3,0.5-6c0-0.5,0-1.2,0-1.9c0-11.5-0.8-51.6-1.5-60c-8-1.8-10.1-10.5-14.4-16.1
		c-0.6-0.7-1.2-1.4-1.7-1.9c-0.4-0.4-0.8-0.7-1.2-1c-0.9-0.7,0.1-2,1-1.4c9.5,5.7,9.9,17,19.4,17.1c9.5,0,9.9-11.3,19.4-17.1
		c0.9-0.6,2,0.7,1,1.4c-0.4,0.3-0.8,0.7-1.2,1c-0.5,0.5-1.1,1.2-1.7,1.9c-4.4,5.7-6.4,14.3-14.4,16.1c-0.7,8.4-1.5,48.6-1.5,60
		c0,0.7,0,1.3,0,1.9c0,1.7,0.3,3.7,0.5,6c0.4,3.2,0.8,6.8,0.8,10.6c0,3.1-0.3,5.1-0.6,7.3c-0.4,2.5-0.8,5.1-0.8,9.9
		c0,2.8,0.3,7.5,0.7,12.9c0.6,8,1.3,17.9,1.3,26.5c0,7.4-0.5,12-1,16.5s-1,8.7-1,15.4c0,8.2,0.9,21.9,1.6,33
		c0.5,7.7,0.9,13.8,0.9,16.4c0,1.4-0.1,4.7-0.3,8.9c-0.4,9.6-1,24.2-0.7,32.6c0.1,1.6,0.7,1.9,0.9,2c0.8,0.4,2.1,0.2,3.2-0.2
		c4.7-2.5,12-8.4,12.2-14.3c0.1-4.1-1.1-13.1-3.2-23.4c-1.1-5.1-1.5-13.1-1-20.3c0.4-7,2.3-14.1,4.5-22.3
		c3.4-12.6,7.6-28.4,8.8-52.2c0.3-6.7-0.2-12.8-0.7-19.3c-0.7-9-1.5-18.2-0.1-30c0.5-4.2,1.3-8,2.4-12.7c1.9-8.7,4.5-20.5,7.4-45.3
		c3.9-33.2-0.5-50.7-3.6-62.2c-1.2,2.2-3.9,6.2-4.8,7c-0.8,0.7-1.8-0.6-1.3-1.2c3.1-5.4,4.6-14,4.9-17.2c0.2-5.3,0.4-12.2-0.2-19.1
		c-1.9,2.2-4.2,4-5.5,4.9c-0.8,0.5-1.4-0.4-0.9-0.9c1.8-2.2,4.3-7.2,5.8-11.2c2.5-7.1,3.3-17.5,3.6-25c-1.6,1-4,1.2-8.4,0.8
		c-6.3-0.7-9.9-1.5-10.6-1.7c-0.1,0-0.2-0.1-0.3-0.2c-0.2-0.2-0.4-0.5-0.3-0.8c0.1-0.4,0.5-0.7,0.9-0.6c1.7,0.3,3.3,0.5,4.9,0.7
		c0.9,0.1,1.8,0.1,2.7,0.2c6.3,0.3,10.9-1.4,13.7-6.8c2.4-4.6,8.5-19.9,9.5-30.4c0-0.2,0.1-0.4,0.2-0.5c7.2-7.2,28.9-33.3,35-54.3
		c0-0.1,0.1-0.3,0.3-0.4c12.4-10.1,33.6-49.3,39.7-63.8c0.1-0.3,0.5-1.2,1.1-2.5c2.6-5.9,8.6-19.8,9.8-23.7c0.7-2.3,2-12,2.6-18.4
		c-0.8-0.2-1.6,0.1-1.9,1.2c-0.8,2.8-2.7,12.3-3.6,13.2c-1,1-5.8,5.6-7.2,7.4c-1.4,1.7-2.3,3.6-2.3,4.5c0,0.8-0.9,0.7-0.9,0.1
		c0-0.6-0.7-4.7,2.1-7.7c2.6-2.7,5.8-4.7,6.6-5.6c0.3-0.5,1.2-7.7,2.8-12.8c0.7-2.3,3-2.3,4.4-2.1c0-0.6,0.1-1.2,0.1-1.7
		c0.2-3.8-0.2-4.7-0.5-4.9c0,0-0.1-0.1-0.6-0.1c-1.6,0.2-3.4,3.1-4.9,7.6l-0.4,1.3c-0.9,2.9-1.9,6-4.8,11c-0.2,0.4-0.7,0.5-1.1,0.3
		c-0.4-0.2-0.5-0.7-0.3-1.1c1.1-1.9,1.9-3.5,2.6-5c-1.4,0.1-2.5,1-3.4,3.7c-0.9,2.8-2.7,5-4.1,6.6c-0.4,0.5-0.8,1-1.1,1.4
		c-4,5.9-0.8,11.5-0.7,11.7s0.1,0.4,0.1,0.5c-0.6,3.3-2.3,7.4-3.7,10.2c-2.1,4.3-5.7,8.9-10.3,13.2c-13.8,13.2-24.1,25.2-32.8,44.3
		c0,0.1-0.1,0.1-0.1,0.2c-2.1,2.5-5.3,5.7-9.1,9.5c-8,8.1-17.9,18.3-21.6,25.2c-0.1,0.1-0.2,0.2-0.3,0.3c-1.7,1.1-4.3,1.9-7.3,2.7
		c-5.9,1.7-13.2,3.9-18.2,9.5c-0.1,0.1-0.2,0.2-0.3,0.2c-0.6,1.1-1.4,2.3-2.5,3.5c-0.2,0.2-0.4,0.2-0.6,0.2s-0.4-0.1-0.6-0.2
		c-0.3-0.3-0.3-0.8,0-1.1c2.8-3,3.3-5.8,3.4-6.7c0.3-2.2,0.1-4.4,0-6.8c0-0.6-0.1-1.2-0.1-1.8c-2.7,2.4-6.2,5.2-7.8,5.5
		c-2.1,0.4-5.1,0.4-5.5,0.4c-0.4,0-3.4,0-5.5-0.4c-1.5-0.3-5.1-3.1-7.8-5.5c0,0.6-0.1,1.2-0.1,1.8c-0.2,2.4-0.4,4.7,0,6.8
		c0.1,0.9,0.6,3.7,3.4,6.7c0.3,0.3,0.3,0.8,0,1.1c-0.2,0.1-0.4,0.2-0.6,0.2s-0.4-0.1-0.6-0.2c-1.2-1.2-1.9-2.4-2.5-3.5
		c-0.1,0-0.2-0.1-0.3-0.2c-5-5.6-12.3-7.7-18.2-9.5c-3-0.9-5.7-1.7-7.3-2.7c-0.1-0.1-0.2-0.2-0.3-0.3c-3.7-6.9-13.6-17.1-21.6-25.2
		c-3.7-3.8-7-7.1-9.1-9.5c-0.1,0-0.1-0.1-0.1-0.2c-8.7-19.1-19-31.1-32.8-44.3c-4.6-4.4-8.2-9-10.3-13.2c-1.4-2.8-3.1-6.9-3.7-10.2
		c0-0.2,0-0.4,0.1-0.5c0.1-0.2,3.4-5.9-0.7-11.7c-0.3-0.4-0.7-0.8-1.1-1.4c-1.3-1.6-3.1-3.8-4.1-6.6c-0.9-2.7-2-3.6-3.4-3.7
		c0.6,1.4,1.4,3.1,2.6,5c0.2,0.4,0.1,0.9-0.3,1.1c-0.4,0.2-0.9,0.1-1.1-0.3c-2.9-5-3.8-8-4.8-11l-0.4-1.3c-1.5-4.4-3.3-7.4-4.9-7.6
		c-0.4-0.1-0.5,0-0.6,0.1c-0.3,0.2-0.7,1.2-0.5,4.9c0,0.5,0.1,1.1,0.1,1.7c1.4-0.2,3.7-0.2,4.4,2.1c1.6,5.1,2.6,12.3,2.8,12.8
		c0.8,0.9,4,2.9,6.6,5.6c2.9,2.9,2.2,7.1,2.1,7.7c-0.1,0.6-0.9,0.7-0.9-0.1c-0.1-1-0.9-2.8-2.3-4.5c-1.4-1.7-6.3-6.4-7.2-7.4
		c-0.8-0.9-2.7-10.4-3.6-13.2c-0.3-1-1-1.4-1.9-1.2c0.6,6.4,1.9,16.1,2.6,18.4c1.2,3.9,7.2,17.7,9.8,23.7c0.6,1.3,1,2.2,1.1,2.5
		C320.5,394.5,341.7,433.6,354.1,443.8z M443.5,493.3c3.7-4,11-4.9,15.2-5.5c1.1-0.1,1.1,1.5,0.2,1.7c-6.8,1.3-10.8,4-13.6,6.2
		C443.7,497,442.2,494.7,443.5,493.3z M442.6,550.5c7.1,1.6,6.2,10.6,10.3,16.6v0.1c0.6,0.9,1.3,1.7,2.1,2.3c0,0,0,0.1,0.1,0.1
		c0.3,0.3,0.4,0.7,0.1,1c0,0,0,0-0.1,0c-0.2,0.3-0.6,0.5-1.2,0.2c-5.9-3.9-7.2-11.6-9.3-15.9c-0.5-0.8-0.9-1.5-1.3-2
		c-0.4-0.4-0.8-0.7-1.3-0.9C441,551.7,441.5,550.3,442.6,550.5z M431.7,550.5c1.1-0.3,1.6,1.2,0.5,1.6c-0.5,0.2-0.9,0.5-1.3,0.9
		c-0.4,0.5-0.9,1.2-1.3,2c-2.2,4.3-3.5,12-9.3,15.9c-0.5,0.3-0.9,0.2-1.2-0.2c0,0,0,0-0.1,0c-0.2-0.3-0.2-0.8,0.1-1
		c0,0,0-0.1,0.1-0.1c0.8-0.7,1.5-1.5,2.1-2.3c0,0,0,0,0-0.1C425.5,561.1,424.7,552.1,431.7,550.5z M415.6,487.8
		c4.3,0.6,11.6,1.4,15.2,5.5c1.3,1.5-0.2,3.7-1.9,2.4c-2.8-2.2-6.8-4.9-13.6-6.2C414.5,489.3,414.5,487.6,415.6,487.8z"/>
	<polygon class="st2" points="214.8,641.6 214.8,650.6 228.3,646.1 	"/>
	<path class="st2" d="M379.1,975c-0.9-0.3-1.8-0.4-2.7-0.4c-6.4,0-12.3,6.5-15.4,17.5c-1.9,6.6-2.2,12.9-1,17.7
		c1.3,5.1,4.2,8.4,8.6,9.6c7.6,2.1,14.1-4,17.7-16.9c2.1-7.4,2.5-13.9,1.3-18.6C386.3,979.2,383.5,976.2,379.1,975z"/>
	<polygon class="st2" points="214.8,778.2 214.8,787.1 228.3,782.6 	"/>
	<path class="st2" d="M47.2,672.8c3.5,0,6.3-2.8,6.3-6.3s-2.8-6.3-6.3-6.3s-6.3,2.8-6.3,6.3S43.7,672.8,47.2,672.8z"/>
	<path class="st2" d="M291.6,918.6c-2-2.2-4.6-3.3-7.7-3.3c-0.8,0-1.6,0.1-2.4,0.2c-4.4,0.8-9.4,3.5-14.3,7.9
		c-11,9.8-14.2,20.5-8.3,27.1c2.5,2.8,5.8,3.9,9.7,3.3c4.3-0.7,9.1-3.4,14.3-8.1C294.5,935.3,297.7,925.4,291.6,918.6z"/>
	<path class="st2" d="M867.2,800.1c-1.2-4.9-3.5-10.6-7.1-16.1c-23.3-7.9-50.2,5.7-65.5,24.4c-1.6,1.6-3.9-0.8-2.8-2.3
		c15.9-22.3,36.4-31.6,57.8-32.6c-4.3-3.2-9.1-5.4-14.4-6.5c-21.6,6.4-42.6,26.6-50.5,41.1c-1,1.8-4.1,0.5-3.2-1.6
		c5.9-13.6,18.6-28.6,28-34.6c3-1.9,5.7-3.6,8.1-5c-12,2.1-21.3,7.5-21.4,7.6l-2,1.2l-2.1-1.1c-2-1.1-4.1-2.5-6.3-4.2
		c-2.1,12.6-5.6,26.8-8.6,34.3c-0.8,2-4,1.4-3.5-0.9c3.2-13.4,5.2-29.6,5.3-39.2c-2.1-2-4.3-4.3-6.4-6.8c0.3,12.6-0.8,28.2-2.7,36
		c-0.5,2.3-3.8,2-3.5-0.7c1.2-5.7,0.8-35.7-1.8-45.8c-4.8-7-9.1-15.1-12.6-24v63.9c0,138-87.4,256.4-219.4,300.1l35.1,27.3l4.6-4.5
		c3-2.8,7.5-2.9,10.6-0.3l10.7,8.7c3.2,2.8,3.8,7.8,1.2,11.7c-3.4,4.9-9.6,12.4-14.3,15.5c-3.3,2.2-6.9,2.1-9.6,0.1l-10.1-7.9
		l-17.1,26.4c0.1,0.1,39.6,16.3,83.2,5.9c18-4.3,34.6-10.9,48.8-17.9c18.2-13.7,14.7-67.8,12.4-77.1l-37-15.2
		c-1.7-0.6-0.7-3.5,1-3.1c0,0,30.9,7.8,41.2,10.4c0.9,0.2,2.6,2.1,2.9,2.9c4.8,17.4,4.3,53.8-1.5,71.4c3.2-2,6.1-4.1,8.8-6.1
		c83-63.2,90.7-109.8,85.4-261.3c-1.3-38.2,13.3-60.9,40.3-72.9c11.7,4.4,21.5,14.5,26.3,23.5c0.4,0.8,2.1,1.7,3.7,0.7
		c4.3-2.8,8.9-11.9,8.5-19C867.9,804.1,867.7,802,867.2,800.1z M620.2,1107.2c-7.9,0-14.4-6.5-14.4-14.4s6.5-14.4,14.4-14.4
		c8,0,14.4,6.5,14.4,14.4S628.1,1107.2,620.2,1107.2z M719,1061c-2.3,1.6-4.5-1.5-2.4-3.1c12.8-9.5,21.8-24.3,25.8-42.2
		c-7.4,8.7-16.2,17.5-22.1,22.8c-1.6,1.4-3.9-0.9-2.6-2.3c8.7-9.8,17-18.9,26.7-34.9c0.2-3.6,0.3-7.2,0.1-10.9
		c-10.7,14-20.5,25.9-32.8,39.1c-1.4,1.5-3.9-0.9-2.6-2.3c8.2-9.3,24.3-30.5,34.6-46.9c-0.4-3.2-1-6.5-1.7-9.8
		c-11.4,21.3-37.4,49.7-50.4,60c-2.2,1.8-4.6-1.3-2.6-3.5c16-16.5,38.5-47.5,48.7-73.6c2.3-5.7,9.2-7.2,11.4,0
		C763.4,1000,747.4,1040.9,719,1061z M858.7,815c-5.1-6.8-13.7-13.4-23.6-16.1c11-3.7,21-1.4,23.3,2.6
		C860.5,805.3,861.2,810.8,858.7,815z"/>
	<path class="st2" d="M795.7,699.4c-2.6,3.2-6.8,11.5-7.9,14.6l65.1,51.6c0.5-1.7,1.1-3.4,1.6-5.2h-0.1l-54.7-42.6l6-11.2
		L795.7,699.4z"/>
	<path class="st2" d="M236.5,697.2h-31.3c-7.4,0-8.6,0.8-8.6,5.5c0,10.3,8.6,17,21.9,17c14.7,0,21.9-6,21.9-18.4
		c0-2.4-0.3-3.7-0.4-3.9C239.8,697.3,238.6,697.2,236.5,697.2z"/>
	<path class="st2" d="M218.5,611.6c14.7,0,21.9-6,21.9-18.4c0-2.4-0.3-3.7-0.4-3.9c-0.2-0.1-1.4-0.2-3.5-0.2h-31.3
		c-7.4,0-8.6,0.8-8.6,5.5C196.6,605,205.2,611.6,218.5,611.6z"/>
	<path class="st2" d="M254.1,1086.4c-3.5,0-6.3,2.8-6.3,6.3s2.8,6.3,6.3,6.3s6.3-2.8,6.3-6.3
		C260.4,1089.3,257.6,1086.4,254.1,1086.4z"/>
	<path class="st2" d="M654.3,431c14.7,0,24.2-5.8,24.2-14.7c0-7.9-7.7-12.5-21-12.5c-15.6,0-24.6,5.2-24.6,14.4
		C633,426,641.4,431,654.3,431z"/>
	<path class="st2" d="M827.1,660.2c-3.5,0-6.3,2.8-6.3,6.3s2.8,6.3,6.3,6.3s6.3-2.8,6.3-6.3C833.4,663,830.6,660.2,827.1,660.2z"/>
	<path class="st2" d="M802.4,403.1c0-21,18.5-31.2,24.1-31.7c15.2-1.6,33.4,6.1,36.6,21.2c0.7,3.3,6.4,4.1,7.6,0.8
		c1.7-4.6,2.9-9.8,3.3-15.4c-11.7-17.1-34.5-22.3-51.2-20.4c-2.3,0.3-2.6-3.1-0.4-3.6c11.8-2.2,37.1-2.2,51.6,12.1
		c-0.4-4.7-1.4-9.5-2.9-14.1c-3.7-4.7-30.6-9-53.8-3.7c-2,0.4-2.6-3-0.7-3.5c19.3-5.6,39.9-5.4,50.1-2.8c-2.3-4.2-5.3-8.2-8.9-11.7
		c1.6-3.2,3-6.3,4.2-9.4c-12.1,5.7-34.8,11.7-46.2,18.4c-1.7,1-3.8-1.5-1.6-3.3c8.3-6.7,41.8-19,51-25.7c0.8-3.7,1.4-7.3,1.6-10.7
		c-10.7,9.7-35.9,17.5-46.3,26.6c-2.2,2-3.7-1.1-2.2-2.8c10.9-12.1,46-21.6,48-36c-0.9-6.2-2.7-11.9-5.3-16.9
		c-2.5-5.4-8.2-10.2-13-11.6V0H437.2H26v259.1c-4.8,1.4-10.5,6.2-13,11.6c-2.6,5-4.4,10.6-5.3,16.9c2,14.4,37.1,23.9,48,36
		c1.5,1.7,0,4.7-2.2,2.8c-10.4-9.1-35.6-16.9-46.3-26.6c0.2,3.4,0.8,7,1.6,10.7c9.2,6.7,42.7,18.9,51,25.7c2.1,1.7,0.1,4.3-1.6,3.3
		c-11.4-6.7-34.1-12.7-46.2-18.4c1.2,3.1,2.6,6.2,4.2,9.4c-3.6,3.5-6.5,7.4-8.9,11.7c10.3-2.6,30.9-2.8,50.1,2.8
		c1.9,0.6,1.3,4-0.7,3.5C33.6,343,6.7,347.3,3,352c-1.5,4.6-2.5,9.4-2.9,14.1c14.4-14.3,39.8-14.3,51.6-12.1
		c2.2,0.4,1.9,3.8-0.4,3.6c-16.7-1.9-39.5,3.3-51.2,20.4c0.5,5.5,1.6,10.8,3.3,15.4c1.2,3.3,6.9,2.6,7.6-0.8
		c3.3-15.1,21.4-22.8,36.6-21.2c5.7,0.6,24.1,10.8,24.1,31.7c0,40.1-74,131-71.8,231.9c0.9,42.3,8.5,85.5,17.3,117L64,715.5
		l-3.3-5.6c-2-3.5-1-8,2.3-10.4l11-8.3c3.5-2.5,8.5-1.8,11.6,1.7c4,4.5,8.6,13.4,10.4,18.7c1.3,3.7,0.3,7.2-2.3,9.3L69.4,740
		l0.5,0.6L85,762.5c16.3-13.3,35.5-42.5,37-77.8V650c0-22.2-37.5-44.4-49.3-49.8c-11,5.4-23.2,15.3-34.4,25.3
		c-1.6,1-3.2-1.5-2.1-2.5c9.3-11.2,19.8-21.1,31.6-30.7c1.7-1.4,3.8-2.1,5.9-1.1C98.7,602.3,114,616,122,627l-0.1-184.1
		c0-75.6-45.3-131.8-90-148.2c-11-4-13.6-11.6-12.8-17.4c0.6-4.3,3.7-9.8,7.8-10.1c0.8,6.3,2.5,18.3,2.5,18.3c0.2,1.5,1.5,2.5,3,2.3
		c1.3-0.2,2.3-1.3,2.3-2.6v-26.9v-1V8.7h402.4h402.4v248.8v1v26.9c0,1.3,1,2.4,2.3,2.6c1.5,0.2,2.8-0.8,3-2.3c0,0,1.6-12,2.5-18.3
		c4.1,0.3,7.2,5.8,7.8,10.1c0.8,5.8-1.8,13.4-12.8,17.4c-44.7,16.5-90,72.7-90,148.2l-0.1,184.1c8.1-11.1,23.3-24.7,48.3-35.8
		c2.2-1,4.2-0.3,5.9,1.1c11.8,9.6,22.3,19.5,31.6,30.7c1.1,1-0.5,3.5-2.1,2.5c-11.3-10-23.4-19.9-34.4-25.3
		c-11.8,5.3-49.3,27.6-49.3,49.8v34.7c1.5,35.3,20.7,64.5,37,77.8l15.1-21.9l0.5-0.6L780.4,721c-2.6-2.1-3.6-5.6-2.3-9.3
		c1.8-5.3,6.5-14.1,10.4-18.7c3.1-3.5,8.1-4.2,11.6-1.7l11.1,8.3c3.3,2.4,4.3,6.8,2.3,10.4l-3.3,5.6L857,752
		c8.8-31.5,16.4-74.7,17.2-117C876.4,534,802.4,443.2,802.4,403.1z M47.2,652.1c8,0,14.4,6.5,14.4,14.4s-6.5,14.4-14.4,14.4
		c-7.9,0-14.4-6.5-14.4-14.4C32.8,658.5,39.3,652.1,47.2,652.1z M75.1,474.9c21.6,26,29.8,68.4,17.6,107.3c-0.6,1.8-4,1.4-3.4-1.4
		c3.3-16.4,3.5-32.9,0.9-48.4c-3.3,9.6-6.3,20.3-7.6,31.7c-0.3,2.2-3.6,1.9-3.4-0.4c1-15.1,4.9-30.8,8.7-42.4
		c-1.3-5.2-3-10.3-4.9-15.1c-5.9,18.1-10.9,39.9-11.5,55.3c-0.1,2.3-3.5,2.4-3.5,0.1c0-17,3.8-45.3,10.5-65.1
		c-1.7-3.2-3.4-6.3-5.4-9.3c-8.7,26.3-14.9,57.9-17.1,85.5c-0.2,2.2-3.5,2.1-3.4-0.2c1-28,5.7-64.6,15.3-96.2
		C69.1,472.6,73,472.5,75.1,474.9z M818.2,572.6c-2.2-27.6-8.3-59.2-17.1-85.5c-1.9,3-3.7,6.1-5.4,9.3c6.7,19.8,10.5,48.1,10.5,65.1
		c0,2.3-3.4,2.2-3.5-0.1c-0.6-15.4-5.5-37.2-11.5-55.3c-2,4.9-3.6,9.9-4.9,15.1c3.8,11.6,7.7,27.3,8.7,42.4c0.1,2.3-3.2,2.6-3.5,0.4
		c-1.3-11.4-4.2-22.1-7.6-31.7c-2.5,15.5-2.3,32,0.9,48.4c0.6,2.8-2.9,3.2-3.4,1.4c-12.1-38.9-3.9-81.3,17.6-107.3
		c2.1-2.5,5.9-2.3,7,1.3c9.6,31.6,14.3,68.2,15.3,96.2C821.7,574.6,818.4,574.8,818.2,572.6z M827.1,680.9
		c-7.9,0-14.4-6.5-14.4-14.4c0-8,6.5-14.4,14.4-14.4s14.4,6.5,14.4,14.4S835,680.9,827.1,680.9z"/>
	<path class="st2" d="M822.1,289.7v-247V25.2H52.3v17.5v247c5.8,2.3,11.7,5.9,17.5,11v-258h734.8v258.7
		C810.4,296.3,816.2,291.9,822.1,289.7z"/>
	<path class="st2" d="M19.6,760.3c0.7,1.9,1.3,3.6,1.8,5.3L86.5,714c-1-3.2-5.2-11.4-7.9-14.6l-10.2,7.1l6,11.2l-54.7,42.6H19.6z"/>
	<path class="st2" d="M789.5,256.7c0,11-11.1,21.7-20,30.9c-6.2,6.5-17.4,19.8-17.4,40.7V361c0.1,3.6,5.8,3.3,6.3,0.1
		c4.1-26.8,26-44.1,30.4-52.3c5.8-10.7,5.9-16,5.8-38.6c0-3.3-0.2-9.8-0.2-13.9C794.4,252.7,789.5,253.1,789.5,256.7z"/>
	<path class="st2" d="M313.3,1137.8l-10.1,7.9c-2.7,2-6.3,2.1-9.6-0.1c-4.7-3.1-10.9-10.5-14.3-15.5c-2.7-3.9-2.1-8.9,1.2-11.7
		l10.7-8.7c3.1-2.6,7.7-2.5,10.6,0.3l4.6,4.5l35.1-27.3c-132-43.8-219.3-162.2-219.3-300.1v-63.9c-3.5,8.9-7.8,17-12.6,24
		c-2.6,10-3,40.1-1.8,45.8c0.3,2.7-3,3-3.5,0.7c-1.8-7.8-3-23.4-2.7-36c-2.1,2.5-4.2,4.7-6.4,6.8c0.1,9.5,2.2,25.7,5.4,39.2
		c0.5,2.2-2.7,2.8-3.5,0.9c-3-7.5-6.5-21.7-8.5-34.3c-2.1,1.6-4.3,3-6.3,4.2l-2.1,1.1l-2-1.2c-0.1-0.1-9.3-5.5-21.4-7.6
		c2.4,1.4,5.1,3.1,8.1,5c9.4,6,22.1,21,28,34.6c0.9,2.1-2.2,3.5-3.2,1.6c-7.9-14.5-28.9-34.7-50.6-41.1c-5.3,1.1-10.1,3.3-14.4,6.5
		c21.4,1,41.9,10.3,57.8,32.6c1.1,1.4-1.2,3.9-2.8,2.3c-15.3-18.6-42.2-32.2-65.5-24.4c-3.6,5.5-5.9,11.2-7.2,16.1
		c-0.5,1.9-0.8,4-0.8,6.4c-0.4,7.1,4.2,16.2,8.5,19c1.6,1,3.3,0.1,3.7-0.7c4.8-9,14.7-19.3,26.3-23.5c27,12,41.6,34.8,40.3,72.9
		c-5.2,151.6,2.4,198.2,85.4,261.3c2.6,2,5.6,4,8.8,6.1c-5.8-17.6-6.3-54-1.5-71.4c0.3-0.8,2-2.6,2.9-2.9
		c10.3-2.6,41.2-10.4,41.2-10.4c1.7-0.4,2.8,2.5,1,3.1l-36.9,15.2c-2.4,9.3-5.9,63.4,12.3,77.1c14.2,7,30.8,13.6,48.8,17.9
		c43.6,10.4,83.1-5.8,83.2-5.9L313.3,1137.8z M15.6,815c-2.5-4.2-1.9-9.7,0.3-13.5c2.3-4,12.3-6.3,23.3-2.6
		C27.8,802.1,20.1,809,15.6,815z M182.6,1030.5c-13-10.4-38.9-38.7-50.4-60c-0.7,3.3-1.2,6.6-1.7,9.8c10.3,16.4,26.4,37.7,34.6,46.9
		c1.3,1.5-1.1,3.9-2.6,2.3c-12.4-13.3-22.1-25.1-32.8-39.1c-0.1,3.7-0.1,7.3,0.1,10.9c9.7,16,18.1,25.2,26.7,34.9
		c1.3,1.5-1,3.7-2.6,2.3c-6-5.3-14.7-14.2-22.1-22.8c4,17.9,13,32.7,25.8,42.2c2.1,1.6-0.2,4.7-2.4,3.1
		c-28.4-20.1-44.4-60.9-30.3-107.6c2.2-7.2,9.2-5.7,11.4,0c10.2,26.1,32.7,57.1,48.7,73.6C187.2,1029.1,184.8,1032.2,182.6,1030.5z
		 M254.1,1107.2c-7.9,0-14.4-6.5-14.4-14.4s6.5-14.4,14.4-14.4c7.9,0,14.4,6.5,14.4,14.4S262.1,1107.2,254.1,1107.2z"/>
	<path class="st2" d="M644,359.3c-7.4,0-10.1,4.7-10.1,8.8c0,3,0,3,2.7,3h19v-1.4c0-3-0.5-4.9-1.9-6.5
		C650.9,359.9,646.9,359.3,644,359.3z"/>
	<path class="st2" d="M620.2,1086.4c-3.5,0-6.3,2.8-6.3,6.3s2.8,6.3,6.3,6.3s6.3-2.8,6.3-6.3
		C626.5,1089.3,623.7,1086.4,620.2,1086.4z"/>
	<polygon class="st2" points="659.8,220.8 646.4,225.3 659.8,229.8 	"/>
	<polygon class="st2" points="659.8,590 646.4,594.5 659.8,598.9 	"/>
	<path class="st2" d="M115.9,361.1c0.5,3.2,6.2,3.5,6.2-0.1v-32.6c0-20.9-11.2-34.2-17.4-40.7c-8.9-9.2-20-19.9-20-30.9
		c0-3.6-4.9-3.9-4.9-0.4c0,4.1-0.2,10.6-0.2,13.9c-0.1,22.5,0,27.9,5.8,38.6C89.9,317,111.8,334.3,115.9,361.1z"/>
	<polygon class="st2" points="493.3,1002.9 501.8,1000.4 493.7,988.7 	"/>
	<path class="st2" d="M566.8,940.5c-3.6,0-7.3,1.4-11.2,4.3c-2,1.4-2.8,2.4-2.9,2.6c0.1,0.2,0.7,1.3,1.9,2.9l18.5,25.1
		c4.3,5.9,5.5,6.3,9.3,3.4c4.1-3,6.4-7.2,6.5-12.1c0.2-4.9-1.8-10.2-5.6-15.4C578,944.2,572.5,940.5,566.8,940.5z"/>
	<path class="st2" d="M514.5,1142.7c-6.2-7.3-13.4-15.9-13.4-15.9l10.6-21.6c1.2-2.8,0.9-5.6-0.8-7.7c-1.6-1.8-3.9-2.7-6.3-2.4
		c-4.4,0.9-7.3,1.6-12.3,2.5c-3.2,0.4-6.8,0.8-10.6,1.3c-2.9,0.3-3.5,1.9-3.8,2.9l-4.6,14.7c-0.3,0.9,0.5,1.9,1.5,1.8
		c2.2-0.2,3.1-0.3,5-0.6c0.7-0.1,1.3-0.6,1.5-1.3l1.6-4.5c0.7-1.4,3.9-1.3,4,0.6v8.2c0,2.3-1.7,4.2-3.9,4.4l-11.1,1.4
		c-5.7,0.8-8.7-4.3-7.2-9.7l5.2-16.7c-2.9,0.3-8,0.9-10.7,1.1c-2.5,0.2-3,3-3,3l-4.5,21.2c-0.4,1.8-1.9,2.9-3.7,3.2
		c-3.1,0.5-6.6,0.7-10.8,0.7c-4.2,0-7.7-0.2-10.8-0.7c-1.8-0.3-3.3-1.4-3.7-3.2l-4.5-21.2c0,0-0.6-2.7-3-3
		c-2.7-0.2-7.8-0.8-10.7-1.1l5.2,16.7c1.6,5.4-1.4,10.5-7.2,9.7l-11.1-1.4c-2.2-0.3-3.9-2.2-3.9-4.4v-8.2c0-2,3.3-2.1,4-0.6l1.6,4.5
		c0.3,0.7,0.8,1.2,1.5,1.3c1.8,0.3,2.7,0.3,5,0.6c1,0.1,1.8-0.9,1.5-1.8l-4.6-14.7c-0.3-1-1-2.6-3.8-2.9c-3.8-0.4-7.4-0.9-10.6-1.3
		c-5-0.9-7.9-1.5-12.3-2.5c-2.4-0.3-4.8,0.6-6.3,2.4c-1.7,2-2,4.8-0.8,7.7l10.6,21.6c0,0-7.2,8.6-13.4,15.9c0,0-29.7,34.4-30.5,35.3
		c-1.6,1.8-6.3,6.9-1.4,12.3c0.8,0.9,1.7,1.7,2.8,2.5c2.8,2,5.7,3.9,8.9,5.8c5.3,2.5,9.1-1.3,12.7-5.7l33.3-41.3
		c2.3-2.7,5.8-0.5,4.1,2.8l-25,45.6c-2.6,4.7-1.5,10.2,2.8,12.1c4.1,1.6,8.4,3,12.9,4.4c5.9,1.2,9.2-3.9,11.3-8.3l19.1-44.7
		c1.7-3.5,6.4-2.3,5.4,1.7l-10.5,46.1c-1.1,4.5-2.1,10.2,3,11.4c3.7,0.5,7.4,1,11.2,1.3c5.7,0.4,8.9-1.9,9.7-10.5l4.5-46
		c0.2-1.6,1.2-2.3,2.9-2.3c1.6,0,2.7,0.8,2.9,2.3l4.5,46c0.8,8.6,4,10.9,9.7,10.5c3.8-0.3,7.5-0.8,11.2-1.3c5.1-1.2,4.1-6.9,3-11.4
		l-10.5-46.1c-1-3.9,3.8-5.2,5.4-1.7l19.1,44.7c2.1,4.4,5.3,9.5,11.3,8.3c4.4-1.3,8.7-2.8,12.9-4.4c4.3-1.8,5.4-7.3,2.8-12.1
		l-25-45.6c-1.7-3.3,1.8-5.5,4.1-2.8l33.3,41.3c3.6,4.4,7.4,8.2,12.7,5.7c3.2-1.9,6.2-3.9,8.9-5.8c1.1-0.8,2-1.6,2.8-2.5
		c5-5.4,0.2-10.5-1.4-12.3C544.2,1177.1,514.5,1142.7,514.5,1142.7z"/>
	<polygon class="st2" points="659.8,730.7 659.8,721.7 646.4,726.3 	"/>
	<path class="st2" d="M149.3,76.2c0-5.9-3.1-11.1-9.9-11.1H130v35h6.6V87.3h2.8C146.2,87.3,149.3,82.1,149.3,76.2z M138.7,81.4h-2.1
		V71h2.1c2.5,0,3.8,2.1,3.8,5.2C142.5,79.3,141.2,81.4,138.7,81.4z"/>
	<path class="st2" d="M173.8,82.7c0-10.3-3.3-18.1-10.9-18.1c-7.7,0-11,7.8-11,18.1c0,10.3,3.3,18.1,11,18.1
		C170.6,100.8,173.8,93,173.8,82.7z M158.7,82.7c0-7,1-12.2,4.2-12.2c3.1,0,4.1,5.2,4.1,12.2c0,6.9-1,12.2-4.1,12.2
		C159.8,94.9,158.7,89.5,158.7,82.7z"/>
	<path class="st2" d="M197.5,76c0-6.4-4-10.9-9.5-10.9h-9.8v35h6.6V87.3h2.2l3.8,12.9h7.1L193,85.7C194.9,84.6,197.5,81.9,197.5,76z
		 M186.9,81.5h-2.1V71h2.1c2.5,0,3.8,2.1,3.8,5.2C190.7,79.4,189.4,81.5,186.9,81.5z"/>
	<polygon class="st2" points="210.7,65.2 210.7,100.1 226.1,100.1 226.1,94.3 217.3,94.3 217.3,65.2 	"/>
	<path class="st2" d="M241.6,93.6l1,6.5h6.8l-7.3-35h-7.6l-7.3,35h6.8l1-6.5H241.6z M238.3,72.5l2.5,15.3h-5L238.3,72.5z"/>
	<path class="st2" d="M279.9,76c0-6.4-4-10.9-9.5-10.9h-9.8v35h6.6V87.3h2.2l3.8,12.9h7.1l-4.8-14.4C277.4,84.6,279.9,81.9,279.9,76
		z M269.3,81.5h-2.1V71h2.1c2.5,0,3.8,2.1,3.8,5.2C273.1,79.4,271.8,81.5,269.3,81.5z"/>
	<polygon class="st2" points="300,71 300,65.2 284.7,65.2 284.7,100.1 300,100.1 300,94.3 291.3,94.3 291.3,85.2 299.6,85.2 
		299.6,79.4 291.3,79.4 291.3,71 	"/>
	<path class="st2" d="M316.2,93.6l1,6.5h6.8l-7.3-35h-7.6l-7.3,35h6.8l1-6.5H316.2z M313,72.5l2.5,15.3h-5L313,72.5z"/>
	<polygon class="st2" points="326.8,65.2 326.8,100.1 342.1,100.1 342.1,94.3 333.4,94.3 333.4,65.2 	"/>
	<rect x="346" y="65.2" class="st2" width="6.6" height="35"/>
	<polygon class="st2" points="356.8,100.1 373.4,100.1 373.4,94.3 364.1,94.3 373.1,70.5 373.1,65.2 356.8,65.2 356.8,71 365.7,71 
		356.8,94.5 	"/>
	<path class="st2" d="M389.4,93.6l1,6.5h6.8l-7.3-35h-7.6l-7.3,35h6.8l1-6.5H389.4z M386.1,72.5l2.5,15.3h-5L386.1,72.5z"/>
	<path class="st2" d="M409.8,70.5c2,0,2.8,1.6,3.5,4.3l5.3-1.9c-1.1-3.7-3.1-8.2-8.8-8.2c-7.7,0-11,7.7-11,18.1
		c0,10.4,3.3,18.1,11,18.1c5.9,0,7.9-5,8.9-9l-5.2-1.9c-0.5,2.9-1.4,5.1-3.6,5.1c-3.1,0-4.2-5.1-4.2-12.2
		C405.6,75.5,406.7,70.5,409.8,70.5z"/>
	<rect x="422.5" y="65.2" class="st2" width="6.6" height="35"/>
	<polygon class="st2" points="450.4,54.4 445.2,54.4 441.1,62 444.8,62 	"/>
	<path class="st2" d="M433.4,82.7c0,10.3,3.3,18.1,11,18.1s10.9-7.8,10.9-18.1s-3.3-18.1-10.9-18.1
		C436.7,64.6,433.4,72.4,433.4,82.7z M444.4,70.4c3.1,0,4.1,5.2,4.1,12.2c0,6.9-1,12.2-4.1,12.2c-3.1,0-4.2-5.4-4.2-12.2
		C440.2,75.7,441.2,70.4,444.4,70.4z"/>
	<polygon class="st2" points="473.4,100.1 479.6,100.1 479.6,65.2 473,65.2 473,84.5 466.2,65.2 459.6,65.2 459.6,100.1 
		466.2,100.1 466.2,80.1 	"/>
	<path class="st2" d="M502.9,87.3c6.8,0,9.9-5.2,9.9-11.1c0-5.9-3.1-11.1-9.9-11.1h-9.4v0.1v35h6.6V87.3H502.9z M500.1,71h2.1
		c2.5,0,3.8,2.1,3.8,5.2c0,3.1-1.3,5.2-3.8,5.2h-2.1V71z"/>
	<polygon class="st2" points="516.6,65.2 516.6,100.1 531.9,100.1 531.9,94.3 523.2,94.3 523.2,65.2 	"/>
	<polygon class="st2" points="551.1,71 551.1,65.2 535.7,65.2 535.7,100.1 551.1,100.1 551.1,94.3 542.3,94.3 542.3,85.2 
		550.7,85.2 550.7,79.4 542.3,79.4 542.3,71 	"/>
	<polygon class="st2" points="569.4,100.1 575.6,100.1 575.6,65.2 568.9,65.2 568.9,84.5 562.2,65.2 555.6,65.2 555.6,100.1 
		562.2,100.1 562.2,80.1 	"/>
	<path class="st2" d="M592.7,93.6l1,6.5h6.8l-7.3-35h-7.6l-7.3,35h6.8l1-6.5H592.7z M589.4,72.5l2.5,15.3h-5L589.4,72.5z"/>
	<path class="st2" d="M632.4,82.7c0-10-3.5-17.5-11.9-17.5h-8.8v35h8.8C628.9,100.2,632.4,92.8,632.4,82.7z M620.4,94.3h-2.2V71h2.2
		c3.5,0,5.1,4,5.1,11.7C625.5,90.1,623.8,94.3,620.4,94.3z"/>
	<polygon class="st2" points="651.9,71 651.9,65.2 636.6,65.2 636.6,100.1 651.9,100.1 651.9,94.3 643.2,94.3 643.2,85.2 
		651.6,85.2 651.6,79.4 643.2,79.4 643.2,71 	"/>
	<polygon class="st2" points="656.5,65.2 656.5,100.1 671.8,100.1 671.8,94.3 663.1,94.3 663.1,65.2 	"/>
	<path class="st2" d="M690.6,94.9c-2,0-4.3-0.9-5.8-2.8l-2.8,5.2c2.3,2.3,5.2,3.5,9,3.5c5.9,0,9.8-4.2,9.8-10.1
		c0-10.5-11.1-11.2-11.1-16.7c0-2.1,1.4-3.5,3.3-3.5c1.8,0,3.5,0.6,4.8,2l2.5-5.1c-1.9-1.8-4.6-2.8-7.6-2.8c-6.1,0-9.7,4.5-9.7,9.8
		c0,10.6,11.1,10.5,11.1,16.7C694.1,93.3,692.7,94.9,690.6,94.9z"/>
	<polygon class="st2" points="720.2,71 720.2,65.2 704.9,65.2 704.9,100.1 720.2,100.1 720.2,94.3 711.5,94.3 711.5,85.2 
		719.8,85.2 719.8,79.4 711.5,79.4 711.5,71 	"/>
	<path class="st2" d="M744.4,100.2l-4.8-14.4c1.9-1.2,4.4-3.9,4.4-9.8c0-6.4-4-10.9-9.5-10.9h-9.8v35h6.6V87.3h2.2l3.8,12.9H744.4z
		 M733.4,81.5h-2.1V71h2.1c2.5,0,3.8,2.1,3.8,5.2C737.3,79.4,736,81.5,733.4,81.5z"/>
</g>
</svg>
