<?xml version="1.0" encoding="utf-8"?>
<!-- Generator: Adobe Illustrator 22.1.0, SVG Export Plug-In . SVG Version: 6.00 Build 0)  -->
<svg version="1.1" id="Capa_1" xmlns="http://www.w3.org/2000/svg" xmlns:xlink="http://www.w3.org/1999/xlink" x="0px" y="0px"
	 viewBox="0 0 292.2 398.6" style="enable-background:new 0 0 292.2 398.6;" xml:space="preserve">
<style type="text/css">
	.st0{fill:#FFFFFF;}
	.st1{fill:#DD971A;}
	.st2{fill:#00723F;}
	.st3{fill:#204199;}
	.st4{fill:#231F20;}
</style>
<path class="st0" d="M292.2,120.2c0-12.9-2.4-23.4-7.9-35.8V0H146.1H7.9v84.4C2.4,96.8,0,107.3,0,120.2c0,22.9,14.9,28.9,8.3,45.9
	c-5,12.9-8.5,27.1-8.2,40.3C0.3,215.8,1.5,225,3,233l0,0c1.7,8.9,1.3,14.6,0.1,18.4c-3,9,0.4,16.9,4.4,21.1
	c5.2,5.5,12.7,4.9,16.3,11.2c2.5,4.3,1.9,8.6,1.9,15c-0.1,37.6,17.6,80.3,79,86.3c13.5,10.3,29.8,13.4,41.5,13.4s28-3.2,41.5-13.4
	c61.4-6,79.1-48.7,79-86.3c0-6.4-0.6-10.7,1.9-15c3.6-6.4,11.1-5.7,16.3-11.2c4-4.2,7.4-12.2,4.4-21.1c-1.3-3.8-1.7-9.5,0.1-18.4
	l0,0c1.5-8,2.7-17.2,2.9-26.6c0.3-13.2-3.2-27.5-8.2-40.3C277.3,149.1,292.2,143.1,292.2,120.2"/>
<path class="st0" d="M257.1,135.7c0-6.4,5.6-9.5,7.3-9.6c4.6-0.5,10.1,1.9,11.1,6.4c0.2,1,1.9,1.2,2.3,0.2c2.1-5.5,1.4-14-3.9-19.1
	c3.8-7.3,3.3-13.6,1-18.1c-0.8-1.6-2.2-2.9-4-3.5V13.3H21.2V92c-1.8,0.6-3.2,1.9-4,3.5c-2.3,4.5-2.7,10.8,1,18.1
	c-5.3,5.1-6,13.6-3.9,19.1c0.4,1,2.1,0.8,2.3-0.2c1-4.6,6.5-6.9,11.1-6.4c1.7,0.2,7.3,3.3,7.3,9.6c0,12.2-22.5,39.8-21.8,70.4
	c0.3,16.1,3.9,32.6,7.3,42.1c-2.9,2.3-4.5,5.6-5.2,8.1l0,0c-0.2,0.6-0.2,1.2-0.3,1.9c-0.1,2.2,1.3,4.9,2.6,5.8c0.5,0.3,1,0,1.1-0.2
	c2.1-3.8,5.6-6.3,8.1-7.1c8.2,3.7,12.6,10.6,12.2,22.1c-1.6,46,0.7,60.2,25.9,79.4c8.7,6.6,29.2,15.4,46.5,13.4c0,1.4,0.6,2.9,2.1,4
	c7.1,5,18.6,9.7,32.3,9.7l0,0c13.7,0,25.2-4.7,32.3-9.7c1.5-1.1,2.1-2.6,2.1-4c17.3,1.9,37.8-6.8,46.5-13.4
	c25.2-19.2,27.5-33.3,25.9-79.4c-0.4-11.6,4-18.5,12.2-22.1c2.5,0.9,6,3.3,8.1,7.1l0,0c0.1,0.2,0.6,0.5,1.1,0.2
	c1.3-0.8,2.7-3.6,2.6-5.8c0-0.7-0.1-1.4-0.3-1.9l0,0c-0.6-2.5-2.2-5.8-5.2-8.1c3.4-9.4,7-26,7.3-42.1
	C279.5,175.5,257.1,147.9,257.1,135.7"/>
<path class="st1" d="M55.8,50.5v2.7v2.7v196.6c0,49.9,40.4,90.3,90.3,90.3s90.3-40.4,90.3-90.3V55.8v-2.7v-2.7H55.8V50.5z
	 M231.1,252.4c0,47-38.1,85-85,85c-47,0-85-38.1-85-85V55.8h170.1v196.6H231.1z"/>
<path class="st2" d="M225.8,252.4V87.7V61.1H66.4v26.6v164.7c0,44,35.7,79.7,79.7,79.7C190.1,332.1,225.8,296.4,225.8,252.4
	 M146.1,305.6c-29.3,0-53.1-23.8-53.1-53.1V87.7h106.3v164.7C199.2,281.8,175.5,305.6,146.1,305.6"/>
<path class="st2" d="M263,20.9H29.2v5.3v75c1.8,0.7,3.5,1.8,5.3,3.3V26.2h223.2v78.6c1.8-1.5,3.5-2.9,5.3-3.6v-75V20.9z"/>
<path class="st1" d="M108.9,93H98.3v14c3.5-1.4,9.2-3.6,11.8-4.6C109.3,99.4,108.9,96.2,108.9,93 M193.9,129.4
	c-4.4-2.9-13.6-9-19.1-12.7c-1.4,1.7-2.9,3.2-4.6,4.6c8.2,12.1,18.1,26.7,23.7,34.9L193.9,129.4L193.9,129.4z M193.9,93h-10.6
	c0,3.2-0.4,6.4-1.2,9.4c2.6,1,8.3,3.2,11.8,4.6V93z M193.9,110c-3.5-0.9-10.2-2.7-13.2-3.4c-0.9,2.2-2,4.4-3.2,6.4
	c4.7,3.7,11.9,9.4,16.4,13V110z M193.9,252.4v-91.3c-5.2-6.7-18-23.2-28.3-36.5c-1.7,1-3.5,2-5.4,2.7c6.5,21.7,19.6,65.6,19.6,65.6
	c0.3,0.9-2,1.8-2.4,0.8c0,0-15.1-43.2-22.6-64.6c-2.8,0.7-5.8,1.1-8.8,1.1s-5.9-0.4-8.7-1c-7.5,21.4-22.7,64.6-22.7,64.6
	c-0.4,1-2.7,0.2-2.4-0.8c0,0,13.1-43.9,19.7-65.6c-1.9-0.8-3.7-1.7-5.4-2.7c-10.3,13.3-23.2,29.9-28.3,36.6v91.2
	c0,26.4,21.4,47.8,47.8,47.8C172.5,300.2,193.9,278.8,193.9,252.4 M117.4,116.7c-5.6,3.7-14.8,9.8-19.2,12.7v26.9
	c5.6-8.2,15.5-22.9,23.8-35C120.4,119.9,118.8,118.4,117.4,116.7 M111.5,106.5c-3,0.8-9.7,2.5-13.2,3.5v16c4.5-3.6,11.8-9.3,16.4-13
	C113.4,110.9,112.3,108.8,111.5,106.5"/>
<path class="st3" d="M154,95.7c-7.3,0-13.3,5.9-13.3,13.3c0,7.3,5.9,13.3,13.3,13.3c7.3,0,13.3-5.9,13.3-13.3S161.4,95.7,154,95.7
	 M157.8,112.7l-2.4-0.5l-1.3,2.1l-1.5-2l-2.2,0.5l0.3-2.3l-1.9-1.4l1.9-1.4l-0.3-2.4l2.3,0.4l1.4-1.9l1.5,1.9l2.3-0.3l-0.3,2.3
	l1.8,1.4l-1.9,1.2L157.8,112.7z"/>
<path class="st4" d="M135,108.9c0-5.8,4.2-13,12.8-13.7c0.3,0,0.4-0.6,0-0.7c-6-1.2-11.3,1.8-14.9,1.9c-3,0.1-4-1.1-8.5-0.5
	c-3.2,0.4-6.8,3.5-7.3,4.1c-0.2,0.2,0.2,0.7,0.4,0.5c0.9-0.5,3.1-2,6.4-2.4s7,1.2,8.3,1.9c0.8,0.4,0.5,2.3-0.6,2.2
	c-1.1-0.2-4.1-1.1-6.1-0.9c-3,0.3-5.5,2.6-6.2,3.3c-0.2,0.2,0.3,0.8,0.5,0.5c1-0.8,2.4-1.7,4.3-1.8c3-0.2,4.9,0.6,6.1,1.5
	c0.8,0.6,0.6,2.1-0.2,2c-0.9-0.2-2.7-0.6-4.4-0.4c-1.7,0.2-3.6,1.5-3.9,2c-0.1,0.2,0.3,0.6,0.5,0.5c0.8-0.6,2.5-1,4.1-0.9
	c1.8,0.1,3.3,1.1,3.9,1.6c0.5,0.4,0.5,1.9-0.4,1.7c-2-0.4-3.9-0.4-5.3,1.1c-0.2,0.2,0,0.6,0.3,0.4c0.6-0.3,1.9-0.5,3.1-0.3
	c1.9,0.3,3.1,1,3.5,1.5c0.4,0.4,0.1,1.5-0.4,1.5s-2.4-0.6-3.7,0.4c-0.2,0.2-0.1,0.6,0.2,0.5c0.6-0.2,2.2,0.1,3.3,1.1
	c2,1.8,9.5,7.2,16.9,5.7c0.4-0.1,0.3-0.6,0-0.6C138.7,121.7,135,114.4,135,108.9"/>
<path class="st0" d="M212.7,147.9c4.4,0,8-3,8-7.6s-3.4-8-8.5-8c-4.7,0-8,3.3-8,7.5C204.2,145.4,208.8,147.9,212.7,147.9
	 M205.3,140.3c0-3,2.9-4.6,7.7-4.6c4.5,0,6.6,1.6,6.6,4c0,3.1-3.4,4.7-7.6,4.7C207.8,144.5,205.3,142.8,205.3,140.3 M86.8,124.6
	l0.1,0.8h0.8v-6.7h-0.8c-0.1,1.2-0.3,1.7-2.5,2.5c-2.3,0.8-8.3,3-12.6,4.7v1.2c5,1.7,12.1,4.6,12.4,4.8c2.4,1,2.5,1.2,2.7,2.7h0.8
	V129h-0.8l-0.1,0.7c-0.1,1-0.4,1.2-2.1,0.7c-1.1-0.4-6.7-2.1-8.8-2.9c3.3-1.2,8.2-3.1,9.5-3.5C86.4,123.6,86.6,123.7,86.8,124.6
	 M218.2,230.7c1-0.4,1.3-0.3,1.4,0.6l0.1,0.6h0.8v-6.4h-0.8c-0.1,1.2-0.3,1.6-2.5,2.4c-2.5,0.9-5.3,1.9-8.2,2.9l-4.5,1.5l0.3,1.1
	l12.5,4.7c2.2,0.8,2.3,1.1,2.5,2.5h0.8v-5.3h-0.8l-0.1,0.6c-0.1,1.1-0.4,1.1-1.6,0.8c-1-0.3-2.1-0.6-2.8-0.9v-4.1
	C216.1,231.4,217.4,231,218.2,230.7 M214,235.6l-5-1.7v-0.1l5-1.7V235.6z M79.2,87.5H81c2.6,0,3.9,0.1,4.7,0.2
	c0.8,0.1,1.2,0.7,1.2,1.9h0.8v-5.9h-0.8c-0.1,1.6-0.4,2.1-1.2,2.3c-0.8,0.1-2.1,0.2-4.7,0.2h-1.6c-4.2,0-6.3-1.3-6.3-4.1
	c0-2.6,2.1-4,5.9-4h5c2.6,0,2.8,0.4,3,2.1h0.8v-6.9H87c-0.1,1.8-0.4,1.8-3,1.8h-5.5c-2.8,0-4.6,0.5-5.6,1.8c-1,1.2-1.3,3-1.3,4.5
	c0,1.7,0.7,3.4,1.8,4.4C74.7,87.2,76.8,87.5,79.2,87.5 M204.6,183.9h0.8c0.1-1.8,0.3-2,3-2h8.4c2.7,0,2.8,0.2,3,2.1h0.8v-11.1
	c-0.7-0.2-3.2-0.7-4.1-0.8l-0.2,0.8c1.2,0.4,2,0.7,2.4,1.1c0.6,0.5,0.8,1.6,0.8,2.5c0,0.7,0,1.3-0.2,1.7c-0.2,0.5-0.8,0.6-2.6,0.6
	h-8.3c-2.7,0-2.8-0.2-3-2h-0.8L204.6,183.9L204.6,183.9z M107.1,292.8l0.2-0.3c0.2-0.5,0.2-0.8-0.2-1.1l-3.8-2.5l-0.4,0.5l3.2,3.6
	C106.4,293.3,106.8,293.4,107.1,292.8 M206.2,151c0.4-0.4,1.1-0.6,2.2-0.9l-0.1-0.8c-1.6,0.1-3.4,0.2-3.8,0.3v11.5h0.8
	c0.1-1.7,0.3-1.9,3-1.9h8.4c2.7,0,2.8,0.2,3,1.9h0.8V154h-0.8c-0.1,2-0.3,2.2-3,2.2H213v-2.1c0-2,0.1-2.1,2-2.3V151h-5.2v0.8
	c1.8,0.2,1.9,0.3,1.9,2.3v2.1h-5.3c-0.9,0-0.9,0-0.9-0.9v-1.7C205.7,152.2,205.8,151.4,206.2,151 M216.7,165.8h-8.4
	c-2.6,0-2.8-0.2-3-1.9h-0.8v6.8h0.8c0.1-1.7,0.3-1.9,3-1.9h8.4c2.7,0,2.8,0.2,3,1.9h0.8v-6.8h-0.8
	C219.6,165.6,219.4,165.8,216.7,165.8 M214.6,124.3c1.3-0.6,2.7-1.3,3.9-2c1.4-0.9,2.1-1.7,2.2-4.5V117H220c-0.2,0.6-0.5,0.9-1,1.4
	c-0.5,0.4-1.5,1-2.8,1.8c-1.2,0.7-2.8,1.6-3.5,1.9c-0.7-1.8-2-3-4.1-3c-1.4,0-2.5,0.6-3.2,1.5c-0.6,0.9-0.8,2.2-0.8,4.2v6.3h0.8
	c0.1-1.7,0.3-1.9,3-1.9h8.4c2.6,0,2.8,0.2,3,2h0.8v-6.8h-0.8c-0.1,1.7-0.3,1.9-3,1.9h-3.2v-0.5C213.6,125,213.8,124.7,214.6,124.3
	 M212.7,126.2h-6c-1,0-1.1-0.1-1.1-1.2c0-1.3,0.9-2.9,3.3-2.9c1.2,0,2.4,0.4,3.1,1.3c0.5,0.6,0.6,1.2,0.6,2.1L212.7,126.2
	L212.7,126.2z M204.8,193.5l12.5,4.7c2.2,0.8,2.3,1.1,2.5,2.5h0.8v-5.3h-0.8l-0.1,0.6c-0.1,1.1-0.4,1.1-1.6,0.8
	c-1-0.3-2.1-0.6-2.8-0.9v-4.1c0.9-0.3,2.2-0.8,3-1.1c1-0.4,1.3-0.3,1.4,0.6l0.1,0.6h0.8v-6.4h-0.8c-0.1,1.2-0.3,1.6-2.5,2.4
	c-2.5,0.9-5.3,1.9-8.2,2.9l-4.5,1.5L204.8,193.5z M209,193.8l5-1.7v3.4L209,193.8L209,193.8z M220.2,202.7c-0.9-0.4-2.9-0.9-4.2-1.2
	l-0.2,0.8c2.6,1.2,3.9,2.4,3.9,4.7c0,3.1-3,5.2-7.5,5.2c-3.5,0-6.8-1.7-6.8-5.3c0-2,0.8-3.4,3.6-4.2l-0.1-0.8
	c-1.5,0.1-2.6,0.2-3.9,0.4c-0.1,0.7-0.6,2.2-0.6,4.2c0,5.5,3.7,9.1,8.5,9.1c3.9,0,8-2.5,8-8.7C220.9,205.4,220.4,203.3,220.2,202.7
	 M217.2,86c2.2,0.8,2.3,1.1,2.5,2.5h0.8v-5.3h-0.8l-0.1,0.6c-0.1,1.1-0.4,1.1-1.6,0.8c-1-0.3-2.1-0.6-2.8-0.9v-4.1
	c0.9-0.3,2.2-0.8,3-1.1c1-0.4,1.3-0.3,1.4,0.6l0.1,0.6h0.8v-6.4h-0.8c-0.1,1.2-0.3,1.6-2.5,2.4c-2.5,0.9-5.3,1.9-8.2,2.9l-4.5,1.5
	l0.3,1.1L217.2,86z M209,81.7l5-1.7v3.4L209,81.7L209,81.7z M208.3,95.2h8.4c2.7,0,2.8,0.2,3,1.9h0.8v-6.8h-0.8
	c-0.1,1.7-0.3,1.9-3,1.9h-8.4c-2.7,0-2.8-0.2-3-1.9h-0.8v6.8h0.8C205.5,95.4,205.7,95.2,208.3,95.2 M206.6,101.2
	c-0.9-0.1-1.2-0.7-1.3-1.8h-0.8v5.8h0.8c0.1-1.5,0.4-2.1,1.3-2.2c0.8-0.1,2.1-0.2,4.7-0.2h4.3l0,0l-11,9v4h0.8c0.1-1,0.2-1.5,0.8-2
	c0.6-0.4,1.2-0.4,2.7-0.4h4.9c2.6,0,3.9,0.1,4.7,0.2c0.9,0.1,1.2,0.7,1.3,1.8h0.8v-5.8h-0.8c-0.1,1.5-0.4,2.1-1.3,2.2
	c-0.8,0.1-2.1,0.2-4.7,0.2h-5.1l0,0l12-9.2v-1.4h-9.4C208.7,101.4,207.4,101.3,206.6,101.2 M87.6,95.3v-4.1h-0.8
	c-0.1,1-0.2,1.5-0.8,2c-0.6,0.4-1.2,0.4-2.8,0.4h-4.8c-2.6,0-4-0.1-4.7-0.2c-0.8-0.1-1.2-0.7-1.2-1.8h-0.8v5.8h0.8
	c0.1-1.5,0.4-2.1,1.2-2.2c0.8-0.1,2.2-0.2,4.7-0.2h5l0,0l-11.8,9.2v1.4h9.2c2.6,0,3.9,0.1,4.7,0.2c0.8,0.1,1.2,0.7,1.2,1.8h0.8v-5.8
	h-0.8c-0.1,1.5-0.4,2.1-1.2,2.2c-0.8,0.1-2.1,0.2-4.7,0.2h-4.3l0,0L87.6,95.3z M154.3,322.8l-0.5-8.4c-0.1-2.7-0.1-3.4,1.7-3.6V310
	c-1.7,0.3-3.1,0.4-4.6,0.6l-4.2,11.3l-5.1-11.2c-1.5-0.1-3.1-0.3-4.6-0.5v0.8c1.9,0.4,2.1,1.5,2.1,4.7l-0.1,4.9c0,2.2-0.1,3.3-0.2,4
	c-0.1,0.9-0.8,0.8-1.7,0.9l-0.1,0.8c1.7,0.2,3.6,0.4,5.6,0.5V326c-1.5-0.1-2-0.4-2.1-1.3c-0.1-0.7-0.2-1.8-0.2-3.9v-6l0,0l5.3,12
	h0.8l4.7-13h0.1l0.3,9.1c0.1,2.7,0,2.8-1.7,3v0.8c2.4-0.1,4.6-0.3,6.7-0.6v-0.8C154.5,325.2,154.4,325.5,154.3,322.8 M171.1,319.1
	c-1.6-2.1-3.4-4.6-5.1-7.1l-2.8-3.9l-1,0.7l-0.9,13.3c-0.2,2.3-0.5,2.1-1.7,2.7l0.2,0.8c1.6-0.3,3.4-0.7,5.2-1.1l-0.2-0.7l-0.6,0.1
	c-1.1,0.2-1.2-0.1-1.2-1.3c0-1.1,0-2.2,0-3l4-1.2c0.6,0.8,1.4,1.8,1.9,2.5c0.7,0.9,0.6,1.2-0.1,1.5l-0.6,0.3l0.2,0.7
	c2.1-0.6,4.1-1.4,6.1-2.2l-0.2-0.7C172.9,320.7,172.6,321.1,171.1,319.1 M162.9,318.3l0.2-5.3h0.1l3,4.3L162.9,318.3z M188.4,296.7
	c-2.2-0.3-4.5,0.5-6.7,2.1c-1.8,1.4-3.7,2.7-5.8,3.9l0.5,0.6c1.4-0.9,1.6-0.8,3.2,1.3l5.2,7c1.6,2.1,1.5,2.4,0.1,3.6l0.5,0.6
	l4.7-3.5c4.4-3.2,6.4-7.9,2.9-12.8C191.7,297.8,189.9,296.9,188.4,296.7 M190.4,310.8c-1.4,1-1.9,0.7-3.2-1.1l-5.6-7.6
	c-0.4-0.5-0.7-1-0.6-1.1c0.1-0.2,0.4-0.5,1-0.9c2.7-2,5.7-2.2,8.8,2.1C193.1,305.4,193.1,308.8,190.4,310.8 M77.7,156.5
	c-1.3,0.6-2.7,1.3-3.8,2c-1.4,0.9-2,1.7-2.2,4.5v0.8h0.7c0.2-0.6,0.5-0.9,1-1.4c0.5-0.4,1.5-1,2.7-1.8c1.1-0.7,2.8-1.6,3.5-1.9
	c0.7,1.8,2,3,4.1,3c1.4,0,2.6-0.6,3.2-1.5s0.8-2.2,0.8-4.2v-6.3h-0.8c-0.1,1.7-0.4,1.9-3,1.9h-8.4c-2.6,0-2.9-0.2-3-2h-0.8v6.8h0.8
	c0.1-1.7,0.4-1.9,3-1.9h3.1v0.5C78.7,155.8,78.5,156.2,77.7,156.5 M79.6,154.6h6c1,0,1,0.1,1,1.2c0,1.3-0.9,2.9-3.3,2.9
	c-1.2,0-2.3-0.3-3.1-1.3c-0.5-0.6-0.6-1.2-0.6-2.1V154.6z M129.4,308.3c-5.4-1.5-9.1,2.2-10.2,6c-1.2,4.3,0.7,8.5,5.2,9.8
	c4.4,1.2,8.6-1.1,10-6C135.7,313.5,133.4,309.4,129.4,308.3 M130.9,317.9c-1.2,4.3-3.4,6-5.7,5.3c-3-0.8-3.6-4.5-2.5-8.6
	s3.5-6,5.8-5.4C131.4,310,132.2,313.2,130.9,317.9 M214.9,266.7c-2.3-0.8-4.1,0.5-5.3,2.6l0,0c0.3-1.5-0.1-3.6-2.1-4.3
	c-2.4-0.9-4.3,0.5-5.2,3.6c-0.6,2.1-1.3,4.1-2.1,6.1l0.7,0.3c0.7-1.5,0.9-1.6,3.4-0.7l7.9,2.9c2.5,0.9,2.7,1.1,2.2,2.8l0.7,0.3
	c0.7-1.8,1.5-4,2-5.7c0.6-1.7,0.9-3.3,0.6-4.6C217.5,268.5,216.6,267.3,214.9,266.7 M208.4,272.1l-0.2,0.5l-4.2-1.5
	c-0.6-0.2-1.1-0.4-1.2-0.6c0-0.2,0-0.4,0.2-0.9c0.4-1.2,1.6-2.2,3.7-1.5C208.7,268.8,209.1,270.2,208.4,272.1 M216.3,273.8
	c-0.4,1.2-1,1.3-3.1,0.5l-4-1.4l0.2-0.4c0.8-2.3,2.5-3.4,4.8-2.6C216.5,270.8,216.8,272.5,216.3,273.8 M217.2,252.1
	c-2.5,0.7-5.4,1.6-8.4,2.4l-4.6,1.3l0.3,1.2l12.2,5.4c2.1,0.9,2,1.4,1.9,2.6l0.8,0.1c0.3-1.8,0.5-3.6,0.7-5.3l-0.8-0.1l-0.1,0.7
	c-0.2,1.1-0.4,1.1-1.6,0.7c-1-0.4-2.1-0.7-2.8-1l0.2-4.1c0.9-0.3,2.2-0.7,3-0.9c1.1-0.3,1.4-0.2,1.5,0.7v0.6l0.8,0.1
	c0.1-2,0.1-4.1,0.1-6.4h-0.8C219.5,251,219.5,251.4,217.2,252.1 M213.6,259.6l-4.9-1.9v-0.1l5.1-1.4L213.6,259.6z M222.5,245.3
	c-1.7-2.4-3.9-2.4-6.7-2.4h-7.5c-2.6,0-2.8-0.2-2.9-1.8h-0.8v6.8h0.8c0.1-1.8,0.3-2,2.9-2h7.3c1.8,0,3.1,0,4.3,0.3
	c1.5,0.3,2.5,1,3.1,2.3l0.8-0.3C223.5,247.1,223,246.1,222.5,245.3 M204.9,290.7c0.7,1,1.1,1.8,1.2,2.4c0.1,0.8-0.5,1.7-1.1,2.6
	c-0.6,0.8-1,1.2-1.4,1.4c-0.5,0.2-1,0-2.4-1.1l-3-2.3l1-1.3c1.2-1.6,1.4-1.6,3-0.6l0.5-0.7l-4.2-3.3l-0.5,0.7
	c1.4,1.4,1.4,1.5,0.2,3.1l-1,1.3l-3.8-2.9c-0.7-0.5-0.6-0.6-0.1-1.3l0.6-0.7c0.8-1.1,1.2-1.8,1.7-1.8c0.5-0.1,1.3,0.2,2.4,0.8
	l0.5-0.7c-1.3-0.9-2.9-2-3.2-2.2c-1.9,3-4.1,5.7-6.6,8.4l0.6,0.5c1.1-1.2,1.5-1.2,3.6,0.4l6.6,5.1c2.1,1.6,2.1,1.9,1,3.5l0.6,0.5
	c2.6-2.9,5-5.9,7.1-9.1c-0.4-0.6-2.1-2.5-2.7-3.1L204.9,290.7z M103.3,291.9c-3.8-4.2-8.9-3-11.8-0.4c-3.3,3-4,7.6-0.9,11
	s7.9,3.7,11.7,0.3C105.8,299.6,106.1,295,103.3,291.9 M99.4,300.7c-3.4,3-6,3.2-7.6,1.4c-2.1-2.3-0.6-5.8,2.5-8.6s6.1-3.2,7.8-1.4
	C104.1,294.4,103,297.5,99.4,300.7 M121.6,306.3l0.4-0.6c-1.9-0.9-3.6-1.7-5.2-2.7l-0.4,0.7c1.3,0.9,1.7,1.4,1.4,2.2
	c-0.3,0.7-0.9,1.9-2.3,4.1l-2.3,3.6l0,0l-1.8-14.1c-0.9-0.7-1.9-1.5-3-2.4l-0.5,0.7c0.8,0.6,0.8,1.3,0.9,2.1c0,0.7-0.3,1.2-1.1,2.5
	l-2.6,4.1c-1.4,2.2-2.2,3.2-2.7,3.8c-0.6,0.7-1.2,0.4-2.2-0.2l-0.4,0.7c1.6,1.2,3.1,2.4,4.8,3.5l0.4-0.7c-1.3-0.9-1.5-1.6-1.1-2.4
	c0.3-0.7,0.9-1.9,2.3-4.1l2.7-4.3l0,0l1.5,14.9l1.3,0.7l4.9-7.8c1.4-2.2,2.2-3.2,2.7-3.8C119.7,306.1,120.6,305.9,121.6,306.3
	 M87.6,209.9l-12.5-4.7c-2.2-0.8-2.4-1.1-2.6-2.5h-0.8v5.3h0.8l0.1-0.6c0.1-1.1,0.5-1.1,1.7-0.8c1,0.3,2.1,0.6,2.8,0.9v4.1
	c-0.9,0.3-2.1,0.8-2.9,1.1c-1,0.4-1.4,0.3-1.5-0.6l-0.1-0.6h-0.8v6.4h0.8c0.1-1.2,0.4-1.6,2.7-2.4c2.5-0.9,5.3-1.9,8.2-2.9l4.5-1.5
	L87.6,209.9z M83.3,209.6l-5,1.7v-3.4L83.3,209.6L83.3,209.6z M83.9,286.2l10-4.6c1,1.8,1.7,2.5,1.5,3s-0.7,1-1.8,1.8l0.4,0.7
	c1.5-0.8,3.1-1.7,4-2.1l-0.2-0.4c-0.6-0.2-0.8-0.4-1.1-0.9c-1.7-2.6-3.1-5.4-4.3-8.2c-0.3-0.6-0.3-0.8,0-1.4l-0.2-0.4
	c-1.1,0.5-2.8,1.1-4.4,1.8l0.4,0.8c1.2-0.3,2-0.3,2.4-0.2c0.5,0.1,0.9,0.6,1.7,2.4l0.2,0.5l-9.9,4.6c-2.4,1.1-2.7,1.1-3.7-0.7
	l-0.7,0.3c1.1,2.4,2.3,4.7,3.5,6.8l0.7-0.4C81.7,287.5,81.5,287.3,83.9,286.2 M83.9,221.8h-8.4c-2.6,0-2.9-0.2-3-2h-0.8v5.9
	c0,5.5,2.7,9.9,8.7,9.9c2.2,0,4-0.9,5.1-2c1.6-1.6,2.2-3.9,2.2-6.6v-7h-0.8C86.7,221.6,86.5,221.8,83.9,221.8 M79.7,232.1
	c-4.1,0-6.9-2.1-6.9-5.4c0-1.7,0.6-1.9,2.9-1.9h9.5c0.7,0,1.2,0,1.3,0.2c0.1,0.1,0.2,0.7,0.2,1.3C86.6,229.6,84.9,232.1,79.7,232.1
	 M87.6,135.9h-0.8c-0.1,1.7-0.4,1.9-3,1.9h-8.4c-2.6,0-2.9-0.2-3-2.1h-0.8v11.5c0.7,0.2,3.2,0.7,4.2,0.8l0.2-0.8
	c-1.2-0.4-2.1-0.7-2.5-1.1c-0.6-0.5-0.6-1.6-0.6-2.7c0-1-0.1-1.6,0.1-2c0.2-0.5,0.9-0.6,2.6-0.6h3.8v1.7c0,2-0.1,2.1-2,2.3v0.8h5.3
	v-0.8c-1.9-0.2-2-0.3-2-2.3v-1.7h5c0.9,0,0.9,0,0.9,0.9v0.9c0,1.4-0.1,2.1-0.6,2.5c-0.4,0.4-1.1,0.6-2.3,0.9l0.1,0.8
	c1.6-0.1,3.4-0.2,3.8-0.3C87.6,146.5,87.6,135.9,87.6,135.9z M87.6,109.9h-0.8c-0.1,1.7-0.3,1.9-3,1.9h-8.4c-2.6,0-2.8-0.2-3-1.9
	h-0.8v6.8h0.8c0.1-1.7,0.3-1.9,3-1.9h8.4c2.7,0,2.8,0.2,3,1.9h0.8V109.9z M76.5,175.2c2.6,0,3.9-1.7,4.7-3.6l0.3-0.7
	c0.8-1.7,1.6-2.5,2.9-2.5c1.4,0,2.4,0.8,2.4,2.3c0,2-1.7,2.7-3.2,3.1l0.2,0.8c1.5-0.2,2.6-0.4,3.4-0.5c0.1-0.3,0.2-0.6,0.3-1
	c0.2-0.7,0.3-1.4,0.3-2.1c0-3.2-2.2-5.2-4.8-5.2c-2.3,0-3.7,1.7-4.6,3.6l-0.2,0.5c-0.8,1.8-1.6,2.6-3.3,2.6c-1.4,0-2.6-0.9-2.6-2.4
	c0-2.3,2.6-3.6,3.9-4l-0.3-0.8c-1.5,0.3-3.1,0.5-3.8,0.7c-0.1,0.3-0.3,0.7-0.6,1.4c-0.2,0.6-0.4,1.5-0.4,2.4
	C71.4,173,73.6,175.2,76.5,175.2 M75.1,257c2.5-0.9,5.3-1.9,8.2-2.9l4.5-1.5l-0.3-1.1L75,246.8c-2.2-0.8-2.4-1.1-2.6-2.5h-0.8v5.3
	h0.8l0.1-0.6c0.1-1.1,0.5-1.1,1.7-0.8c1,0.3,2.1,0.6,2.8,0.9v4.1c-0.9,0.3-2.2,0.8-3,1.1c-1,0.4-1.3,0.3-1.4-0.6l-0.2-0.6h-0.8
	c0,2.3,0.2,4.5,0.4,6.6l0.8-0.1C73.1,258.6,72.8,257.8,75.1,257 M78.3,249.3l5,1.7v0.1l-5,1.7V249.3z M82.3,273.2c0,0,5.5-1.9,6.3-2
	c0.9-0.1,1.5,0.3,1.8,1.4l0.8-0.2c-0.6-1.8-1.2-3.6-1.7-5.5l-0.8,0.2c0.3,1.5,0.3,2.2-0.5,2.5c-0.7,0.3-6.1,2.2-6.1,2.2
	c-3.7,1.2-6.4,0.4-7-2.3c-0.6-2.5,1.1-4.2,4.7-5.3l5-1.6c2.4-0.7,2.6-0.4,3.2,1.2l0.8-0.2c-0.4-2.3-0.8-4.6-0.9-6.8l-0.8,0.1
	c0.3,1.8-0.3,1.9-2.8,2.7l-5.5,1.7c-2.7,0.8-4.2,1.9-4.9,3.3c-0.7,1.3-0.6,3-0.3,4.4C74.8,275.4,80,273.9,82.3,273.2 M75.5,182.3
	h8.4c2.6,0,2.8,0.2,3,1.9h0.8v-6.8h-0.8c-0.1,1.7-0.4,1.9-3,1.9h-8.4c-2.6,0-2.9-0.2-3-1.9h-0.8v6.8h0.8
	C72.6,182.5,72.9,182.3,75.5,182.3 M71.7,192.8c0,5.5,2.7,9.9,8.7,9.9c2.2,0,4-0.9,5.1-2c1.6-1.6,2.2-3.9,2.2-6.6v-7h-0.8
	c-0.1,1.6-0.4,1.8-3,1.8h-8.4c-2.6,0-2.9-0.2-3-2h-0.8L71.7,192.8L71.7,192.8z M75.7,192h9.5c0.7,0,1.2,0,1.3,0.2
	c0.1,0.1,0.2,0.7,0.2,1.3c0,3.3-1.7,5.8-6.9,5.8c-4.1,0-6.9-2.1-6.9-5.4C72.8,192.2,73.4,192,75.7,192"/>
<path class="st4" d="M170.2,256.1v29.6c-5.7-2.2-11-1.5-15.6,1.7c-2.1,1.5-4.6,4.9-8.5,4.9l0,0l0,0c-4,0-6.5-3.5-8.5-4.9
	c-4.5-3.3-9.9-3.9-15.6-1.7v-29.6l-2.5,1.2v32.3l1.8-0.9c5.5-2.7,10.5-2.3,14.8,0.8c1.4,1,4.3,5.4,10,5.4l0,0l0,0
	c5.6,0,8.6-4.4,10-5.4c4.3-3.1,9.3-3.4,14.8-0.8l1.8,0.9v-32.3L170.2,256.1z"/>
<path class="st4" d="M145,145.2c0.1,0.1,0.5-0.7,0.3-0.7c-1.2-0.4-3-0.4-3.2-0.3c-0.3,0.1-0.9,0.4-1.1,0.6c-0.1,0.1,0,0.5,0.4,0.4
	c0.2-0.1,0.6-0.2,1.1-0.3C143.2,144.8,144.2,145,145,145.2 M144.9,150.1c0.3,0.1,0.8,0.4,1.2,0.4l0,0l0,0l0,0l0,0
	c0.4,0,0.8-0.3,1.2-0.4c0.3-0.1,0-0.4-0.3-0.4s-0.7,0.2-0.9,0.2c-0.3,0-0.6-0.2-0.9-0.2C144.9,149.6,144.6,150,144.9,150.1
	 M144.2,145.6c-1.4-0.2-2.3,0.1-2.3,0.2c0,0.5,0.4,0.8,0.6,0.9c0.3,0.1,1,0.2,1.5,0.1c0.3-0.1,0.7-0.4,0.8-0.5
	C144.8,146.1,144.4,145.6,144.2,145.6 M147.4,147.4c0-0.2,0-0.9,0.1-0.9s0.3,0,0.7,0.2h0.1c0.5,0.1,1.2,0,1.5-0.1
	c0.2-0.1,0.6-0.4,0.6-0.9c0-0.1-0.9-0.4-2.3-0.2c0,0,0,0-0.1,0c-0.2,0,0-0.6,0.4-0.6c0.5-0.1,1-0.1,1.5-0.1s0.9,0.2,1.1,0.3
	c0.4,0.1,0.5-0.3,0.4-0.4c-0.3-0.2-0.9-0.5-1.1-0.6c-0.3-0.1-2-0.1-3.2,0.3l0,0l0,0l0,0l0,0c-0.1,0.2-0.1,0.8-0.1,1.1
	c0,0.2,0.1,1.7,0.2,2.2C147,148.1,147.4,147.6,147.4,147.4 M144.2,163.1c-1.1-1.2-3.3-1.5-4.6-1.7c-0.3,0-0.3,0.5-0.1,0.5
	c2.1,0.4,3.3,1.2,4.1,1.9C144.1,164.2,144.6,163.6,144.2,163.1 M150.9,185.6c-1.3-1.8-1-4.6-3.1-5.1c-0.3-0.1-0.5,0.4-0.2,0.5
	c0.1,0.1,0.3,0.2,0.4,0.3c0.1,0.2,0.3,0.4,0.4,0.6c0.7,1.3,1.1,3.7,2.8,4.8c0.2,0.1,0.3,0,0.3-0.1l0,0c0.1-0.1,0.1-0.2,0-0.3l0,0
	C151.3,186.1,151.1,185.8,150.9,185.6L150.9,185.6 M152.7,161.4c-1.3,0.2-3.5,0.4-4.6,1.7c-0.4,0.4,0.1,1.1,0.6,0.7
	c0.9-0.7,2.1-1.5,4.1-1.9C153,161.9,153,161.4,152.7,161.4 M185.1,112c-0.3,0.6-1.3,2.6-1.3,2.9c-1.1-0.1-1.7,1.3-2.4,2.4
	c-0.6,1-3.2,4-1.5,7.1c-1.1,6.4-7.5,5.4-13.9,19.3c-1.8,2.1-6.5,5.1-9.1,10.1c-1,0.5-3.4,0.6-4.9,1.5v-1.5c1.2-2.4,2-6.1,2.4-10
	c0.4-3.5-2-8.6-8.2-8.6s-8.6,5.1-8.2,8.6c0.4,3.9,1.1,7.7,2.4,10c0,0.1,0,1.5,0,1.5c-1.5-0.9-3.9-1-4.9-1.5c-2.7-5-7.4-8-9.1-10.1
	c-6.4-13.9-12.8-12.9-13.9-19.3c1.7-3.1-0.9-6-1.5-7.1s-1.3-2.5-2.3-2.4c-0.1-0.3-1-2.2-1.3-2.9c-1.1-2.1-4.4-1.6-4.3,1.5
	c0.2,6.8,1.7,10.3,3.1,13c3.7,7,6.4,15.9,13.1,22.8c1.4,4.2,5.2,11.8,10.6,16.3c0,2,2,8.2,3.4,10.3c-0.2,2.4,0.7,6.7,1.2,8.7
	c-0.4,2.7-0.6,7.6-0.2,9.4c-1.4,5.2-2,9.7-2,14.4c0,10.7,4.1,20.9,4,26.7c-0.1,5.7-1.1,7.8-1,12.2c0,7.9,4.7,18.9,4.7,23.8
	c0,2.7-1.8,8.7-2,11.3c-0.1,0.9,0.1,1.9,0.5,2.8c0.9,2,4.5,4.8,6.9,4.8h0.9h0.9c2.4,0,6-2.9,6.9-4.8c0.4-0.9,0.6-1.9,0.5-2.8
	c-0.2-2.5-2-8.5-2-11.3c0-4.9,4.7-16,4.7-23.8c0.1-4.4-0.9-6.5-1-12.2c-0.1-5.8,4.1-16,4-26.7c0-4.7-0.6-9.2-2-14.4
	c0.4-1.8,0.2-6.7-0.2-9.4c0.5-2,1.4-6.3,1.2-8.7c1.4-2.1,3.4-8.3,3.4-10.3c5.4-4.5,9.2-12.1,10.6-16.3c6.7-6.9,9.3-15.8,13.1-22.8
	c1.4-2.8,2.9-6.3,3.1-13C189.6,110.3,186.2,109.8,185.1,112 M140.1,144.6c0-0.3,0-0.6,0-1c-0.1-1.9,0.4-3.5,1.5-4.6s2.7-1.7,4.5-1.7
	l0,0l0,0c1.8,0,3.4,0.6,4.5,1.7c1.1,1.1,1.6,2.7,1.5,4.6c0,0.4,0,0.7,0,1c-0.2,1.8-0.7,5.1-1.3,6.7c-0.8,2-2.7,4-3.1,4.2
	c-0.3,0.3-1.1,0.3-1.6,0.3l0,0l0,0c-0.5,0-1.3-0.1-1.6-0.3c-0.3-0.3-2.3-2.2-3.1-4.2C140.8,149.7,140.3,146.3,140.1,144.6
	 M187.5,114.1c0,0.2,0,0.3,0,0.5c-0.4-0.1-1.1-0.1-1.3,0.6c-0.5,1.6-0.8,3.7-0.9,3.9c-0.3,0.3-1.2,0.9-2,1.7
	c-0.9,0.9-0.7,2.2-0.7,2.3c0,0.2,0.3,0.2,0.3,0c0-0.3,0.3-0.8,0.7-1.4c0.4-0.5,1.9-1.9,2.2-2.2c0.2-0.3,0.8-3.2,1.1-4
	c0.1-0.3,0.3-0.4,0.6-0.4c-0.2,1.9-0.6,4.9-0.8,5.6c-0.4,1.2-2.2,5.4-3,7.2c-0.2,0.4-0.3,0.7-0.3,0.8c-1.8,4.4-8.3,16.3-12,19.4
	l-0.1,0.1c-1.8,6.4-8.4,14.3-10.6,16.5l-0.1,0.1c-0.3,3.2-2.2,7.8-2.9,9.2c-0.8,1.6-2.2,2.1-4.2,2.1c-0.3,0-0.6,0-0.8-0.1
	c-0.5,0-1-0.1-1.5-0.2c-0.1,0-0.3,0.1-0.3,0.2c0,0.1,0,0.2,0.1,0.2c0,0,0,0.1,0.1,0.1c0.2,0.1,1.3,0.3,3.2,0.5
	c1.3,0.1,2.1,0.1,2.6-0.2c-0.1,2.3-0.3,5.4-1.1,7.6c-0.5,1.2-1.2,2.7-1.8,3.4c-0.1,0.2,0,0.4,0.3,0.3c0.4-0.3,1.1-0.8,1.7-1.5
	c0.2,2.1,0.1,4.2,0.1,5.8c-0.1,1-0.6,3.6-1.5,5.2c-0.2,0.2,0.1,0.6,0.4,0.4c0.3-0.2,1.1-1.4,1.5-2.1c0.9,3.5,2.3,8.8,1.1,18.9
	c-0.9,7.5-1.7,11.1-2.3,13.8c-0.3,1.4-0.6,2.6-0.7,3.9c-0.4,3.6-0.2,6.4,0,9.1c0.2,2,0.3,3.8,0.2,5.9c-0.4,7.2-1.6,12-2.7,15.9
	c-0.7,2.5-1.2,4.6-1.4,6.8c-0.1,2.2,0,4.6,0.3,6.2c0.6,3.1,1,5.9,1,7.1c-0.1,1.8-2.3,3.6-3.7,4.3c-0.4,0.1-0.7,0.2-1,0.1
	c-0.1,0-0.3-0.1-0.3-0.6c-0.1-2.5,0.1-7,0.2-9.9c0.1-1.3,0.1-2.3,0.1-2.7c0-0.8-0.1-2.6-0.3-5c-0.2-3.4-0.5-7.5-0.5-10
	c0-2,0.1-3.3,0.3-4.7c0.1-1.4,0.3-2.8,0.3-5c0-2.6-0.2-5.6-0.4-8c-0.1-1.7-0.2-3.1-0.2-3.9c0-1.5,0.1-2.2,0.2-3
	c0.1-0.7,0.2-1.3,0.2-2.2c0-1.1-0.1-2.2-0.3-3.2c-0.1-0.7-0.2-1.3-0.2-1.8c0-0.2,0-0.4,0-0.6c0-3.5,0.2-15.7,0.5-18.2
	c2.4-0.5,3.1-3.2,4.4-4.9c0.2-0.2,0.4-0.4,0.5-0.6c0.1-0.1,0.2-0.2,0.4-0.3c0.3-0.2,0-0.6-0.3-0.4c-2.9,1.7-3,5.2-5.9,5.2l0,0l0,0
	c-2.9,0-3-3.4-5.9-5.2c-0.3-0.2-0.6,0.2-0.3,0.4c0.1,0.1,0.2,0.2,0.4,0.3c0.2,0.2,0.3,0.4,0.5,0.6c1.3,1.7,1.9,4.4,4.4,4.9
	c0.2,2.6,0.5,14.7,0.5,18.2c0,0.2,0,0.4,0,0.6c0,0.5-0.1,1.1-0.2,1.8c-0.1,1-0.3,2.1-0.3,3.2c0,0.9,0.1,1.6,0.2,2.2
	c0.1,0.8,0.2,1.6,0.2,3c0,0.8-0.1,2.3-0.2,3.9c-0.2,2.4-0.4,5.4-0.4,8c0,2.2,0.2,3.7,0.3,5c0.1,1.4,0.3,2.6,0.3,4.7
	c0,2.5-0.3,6.7-0.5,10c-0.1,2.3-0.3,4.2-0.3,5c0,0.4,0,1.4,0.1,2.7c0.1,2.9,0.3,7.4,0.2,9.9c0,0.5-0.2,0.6-0.3,0.6
	c-0.2,0.1-0.6,0.1-1-0.1c-1.4-0.8-3.6-2.6-3.7-4.3c0-1.2,0.3-4,1-7.1c0.3-1.6,0.4-4,0.3-6.2c-0.1-2.1-0.7-4.3-1.4-6.8
	c-1-3.8-2.3-8.6-2.7-15.9c-0.1-2,0.1-3.9,0.2-5.9c0.2-2.7,0.4-5.5,0-9.1c-0.1-1.3-0.4-2.4-0.7-3.9c-0.6-2.6-1.4-6.2-2.3-13.8
	c-1.2-10.1,0.1-15.4,1.1-18.9c0.4,0.7,1.2,1.9,1.5,2.1c0.3,0.2,0.5-0.2,0.4-0.4c-0.9-1.6-1.4-4.3-1.5-5.2c-0.1-1.6-0.1-3.7,0-5.8
	c0.6,0.7,1.3,1.2,1.7,1.5c0.2,0.1,0.4-0.1,0.3-0.3c-0.6-0.7-1.3-2.2-1.8-3.4c-0.8-2.2-1-5.3-1.1-7.6c0.5,0.3,1.2,0.4,2.6,0.2
	c1.9-0.2,3-0.5,3.2-0.5c0,0,0.1,0,0.1-0.1c0.1-0.1,0.1-0.1,0.1-0.2c0-0.1-0.2-0.2-0.3-0.2c-0.5,0.1-1,0.2-1.5,0.2
	c-0.3,0-0.5,0-0.8,0.1c-1.9,0.1-3.3-0.4-4.2-2.1c-0.7-1.4-2.6-6.1-2.9-9.2c0-0.1,0-0.1-0.1-0.1c-2.2-2.2-8.8-10.1-10.6-16.5
	c0,0,0-0.1-0.1-0.1c-3.8-3.1-10.2-15-12-19.4c0-0.1-0.2-0.4-0.3-0.8c-0.8-1.8-2.6-6-3-7.2c-0.2-0.7-0.6-3.7-0.8-5.6
	c0.3-0.1,0.5,0,0.6,0.4c0.2,0.9,0.8,3.7,1.1,4c0.3,0.3,1.8,1.7,2.2,2.2c0.4,0.5,0.7,1.1,0.7,1.4c0,0.2,0.3,0.2,0.3,0
	s0.2-1.4-0.7-2.3c-0.8-0.8-1.8-1.4-2-1.7c-0.1-0.1-0.4-2.3-0.9-3.9c-0.2-0.7-0.9-0.7-1.3-0.6c0-0.2,0-0.4,0-0.5
	c-0.1-1.1,0.1-1.4,0.1-1.5c0,0,0,0,0.2,0c0.5,0.1,1,1,1.5,2.3l0.1,0.4c0.3,0.9,0.6,1.8,1.4,3.3c0.1,0.1,0.2,0.2,0.3,0.1
	c0.1-0.1,0.2-0.2,0.1-0.3c-0.3-0.6-0.6-1.1-0.8-1.5c0.4,0,0.8,0.3,1,1.1c0.3,0.9,0.8,1.5,1.2,2c0.1,0.2,0.3,0.3,0.3,0.4
	c1.2,1.8,0.3,3.5,0.2,3.6c0,0.1,0,0.1,0,0.2c0.2,1,0.7,2.3,1.1,3.1c0.7,1.3,1.7,2.7,3.1,4c4.2,4,7.3,7.7,10,13.4c0,0,0,0,0,0.1
	c0.6,0.7,1.6,1.7,2.8,2.9c2.4,2.5,5.5,5.5,6.6,7.6c0,0,0,0.1,0.1,0.1c0.5,0.3,1.3,0.6,2.2,0.8c1.8,0.5,4,1.2,5.5,2.9l0.1,0.1
	c0.2,0.3,0.4,0.7,0.8,1.1c0,0,0.1,0.1,0.2,0.1c0.1,0,0.1,0,0.2-0.1c0.1-0.1,0.1-0.2,0-0.3c-0.9-0.9-1-1.8-1-2c-0.1-0.7,0-1.3,0-2.1
	c0-0.2,0-0.4,0-0.5c0.8,0.7,1.9,1.6,2.4,1.7c0.7,0.1,1.6,0.1,1.7,0.1c0.1,0,1,0,1.7-0.1c0.5-0.1,1.5-0.9,2.4-1.7c0,0.2,0,0.4,0,0.5
	c0.1,0.7,0.1,1.4,0,2.1c0,0.3-0.2,1.1-1,2c-0.1,0.1-0.1,0.3,0,0.3c0,0,0.1,0.1,0.2,0.1c0.1,0,0.1,0,0.2-0.1c0.3-0.4,0.6-0.7,0.8-1.1
	c0,0,0.1,0,0.1-0.1c1.5-1.7,3.7-2.4,5.5-2.9c0.9-0.3,1.7-0.5,2.2-0.8l0.1-0.1c1.1-2.1,4.1-5.2,6.6-7.6c1.1-1.2,2.1-2.1,2.8-2.9
	c0,0,0,0,0-0.1c2.6-5.8,5.8-9.4,10-13.4c1.4-1.3,2.5-2.7,3.1-4c0.4-0.8,0.9-2.1,1.1-3.1c0-0.1,0-0.1,0-0.2s-1-1.8,0.2-3.6
	c0.1-0.1,0.2-0.3,0.3-0.4c0.4-0.5,1-1.1,1.2-2c0.3-0.8,0.6-1.1,1-1.1c-0.2,0.4-0.4,0.9-0.8,1.5c-0.1,0.1,0,0.3,0.1,0.3
	c0.1,0.1,0.3,0,0.3-0.1c0.9-1.5,1.2-2.4,1.5-3.3l0.1-0.4c0.4-1.4,1-2.2,1.5-2.3c0.1,0,0.2,0,0.2,0
	C187.5,112.7,187.6,113,187.5,114.1 M144.5,180.5c-2.1,0.5-1.9,3.2-3.1,5.1l0,0c-0.2,0.3-0.4,0.5-0.6,0.7l0,0
	c-0.1,0.1-0.1,0.2,0,0.3l0,0c0.1,0.1,0.2,0.2,0.4,0.1c1.8-1.2,2.2-3.5,2.8-4.8c0.1-0.2,0.3-0.4,0.4-0.6c0.1-0.1,0.2-0.2,0.4-0.3
	C144.9,180.9,144.8,180.4,144.5,180.5"/>
<path class="st0" d="M145,145.2c0.1,0.1,0.5-0.7,0.3-0.7c-1.2-0.4-3-0.4-3.2-0.3c-0.3,0.1-0.9,0.4-1.1,0.6c-0.1,0.1,0,0.5,0.4,0.4
	c0.2-0.1,0.6-0.2,1.1-0.3C143.2,144.8,144.2,145,145,145.2 M144.9,150.1c0.3,0.1,0.8,0.4,1.2,0.4l0,0l0,0l0,0l0,0
	c0.4,0,0.8-0.3,1.2-0.4c0.3-0.1,0-0.4-0.3-0.4s-0.7,0.2-0.9,0.2c-0.3,0-0.6-0.2-0.9-0.2C144.9,149.6,144.6,150,144.9,150.1
	 M144.2,145.6c-1.4-0.2-2.3,0.1-2.3,0.2c0,0.5,0.4,0.8,0.6,0.9c0.3,0.1,1,0.2,1.5,0.1c0.3-0.1,0.7-0.4,0.8-0.5
	C144.8,146.1,144.4,145.6,144.2,145.6 M147.4,147.4c0-0.2,0-0.9,0.1-0.9s0.3,0,0.7,0.2h0.1c0.5,0.1,1.2,0,1.5-0.1
	c0.2-0.1,0.6-0.4,0.6-0.9c0-0.1-0.9-0.4-2.3-0.2c0,0,0,0-0.1,0c-0.2,0,0-0.6,0.4-0.6c0.5-0.1,1-0.1,1.5-0.1s0.9,0.2,1.1,0.3
	c0.4,0.1,0.5-0.3,0.4-0.4c-0.3-0.2-0.9-0.5-1.1-0.6c-0.3-0.1-2-0.1-3.2,0.3l0,0l0,0l0,0l0,0c-0.1,0.2-0.1,0.8-0.1,1.1
	c0,0.2,0.1,1.7,0.2,2.2C147,148.1,147.4,147.6,147.4,147.4 M144.2,163.1c-1.1-1.2-3.3-1.5-4.6-1.7c-0.3,0-0.3,0.5-0.1,0.5
	c2.1,0.4,3.3,1.2,4.1,1.9C144.1,164.2,144.6,163.6,144.2,163.1 M150.9,185.6c-1.3-1.8-1-4.6-3.1-5.1c-0.3-0.1-0.5,0.4-0.2,0.5
	c0.1,0.1,0.3,0.2,0.4,0.3c0.1,0.2,0.3,0.4,0.4,0.6c0.7,1.3,1.1,3.7,2.8,4.8c0.2,0.1,0.3,0,0.3-0.1l0,0c0.1-0.1,0.1-0.2,0-0.3l0,0
	C151.3,186.1,151.1,185.8,150.9,185.6L150.9,185.6 M152.7,161.4c-1.3,0.2-3.5,0.4-4.6,1.7c-0.4,0.4,0.1,1.1,0.6,0.7
	c0.9-0.7,2.1-1.5,4.1-1.9C153,161.9,153,161.4,152.7,161.4 M140.1,144.6c0-0.3,0-0.6,0-1c-0.1-1.9,0.4-3.5,1.5-4.6s2.7-1.7,4.5-1.7
	l0,0l0,0c1.8,0,3.4,0.6,4.5,1.7c1.1,1.1,1.6,2.7,1.5,4.6c0,0.4,0,0.7,0,1c-0.2,1.8-0.7,5.1-1.3,6.7c-0.8,2-2.7,4-3.1,4.2
	c-0.3,0.3-1.1,0.3-1.6,0.3l0,0l0,0c-0.5,0-1.3-0.1-1.6-0.3c-0.3-0.3-2.3-2.2-3.1-4.2C140.8,149.7,140.3,146.3,140.1,144.6
	 M187.5,114.1c0,0.2,0,0.3,0,0.5c-0.4-0.1-1.1-0.1-1.3,0.6c-0.5,1.6-0.8,3.7-0.9,3.9c-0.3,0.3-1.2,0.9-2,1.7
	c-0.9,0.9-0.7,2.2-0.7,2.3c0,0.2,0.3,0.2,0.3,0c0-0.3,0.3-0.8,0.7-1.4c0.4-0.5,1.9-1.9,2.2-2.2c0.2-0.3,0.8-3.2,1.1-4
	c0.1-0.3,0.3-0.4,0.6-0.4c-0.2,1.9-0.6,4.9-0.8,5.6c-0.4,1.2-2.2,5.4-3,7.2c-0.2,0.4-0.3,0.7-0.3,0.8c-1.8,4.4-8.3,16.3-12,19.4
	l-0.1,0.1c-1.8,6.4-8.4,14.3-10.6,16.5l-0.1,0.1c-0.3,3.2-2.2,7.8-2.9,9.2c-0.8,1.6-2.2,2.1-4.2,2.1c-0.3,0-0.6,0-0.8-0.1
	c-0.5,0-1-0.1-1.5-0.2c-0.1,0-0.3,0.1-0.3,0.2c0,0.1,0,0.2,0.1,0.2c0,0,0,0.1,0.1,0.1c0.2,0.1,1.3,0.3,3.2,0.5
	c1.3,0.1,2.1,0.1,2.6-0.2c-0.1,2.3-0.3,5.4-1.1,7.6c-0.5,1.2-1.2,2.7-1.8,3.4c-0.1,0.2,0,0.4,0.3,0.3c0.4-0.3,1.1-0.8,1.7-1.5
	c0.2,2.1,0.1,4.2,0.1,5.8c-0.1,1-0.6,3.6-1.5,5.2c-0.2,0.2,0.1,0.6,0.4,0.4c0.3-0.2,1.1-1.4,1.5-2.1c0.9,3.5,2.3,8.8,1.1,18.9
	c-0.9,7.5-1.7,11.1-2.3,13.8c-0.3,1.4-0.6,2.6-0.7,3.9c-0.4,3.6-0.2,6.4,0,9.1c0.2,2,0.3,3.8,0.2,5.9c-0.4,7.2-1.6,12-2.7,15.9
	c-0.7,2.5-1.2,4.6-1.4,6.8c-0.1,2.2,0,4.6,0.3,6.2c0.6,3.1,1,5.9,1,7.1c-0.1,1.8-2.3,3.6-3.7,4.3c-0.4,0.1-0.7,0.2-1,0.1
	c-0.1,0-0.3-0.1-0.3-0.6c-0.1-2.5,0.1-7,0.2-9.9c0.1-1.3,0.1-2.3,0.1-2.7c0-0.8-0.1-2.6-0.3-5c-0.2-3.4-0.5-7.5-0.5-10
	c0-2,0.1-3.3,0.3-4.7c0.1-1.4,0.3-2.8,0.3-5c0-2.6-0.2-5.6-0.4-8c-0.1-1.7-0.2-3.1-0.2-3.9c0-1.5,0.1-2.2,0.2-3
	c0.1-0.7,0.2-1.3,0.2-2.2c0-1.1-0.1-2.2-0.3-3.2c-0.1-0.7-0.2-1.3-0.2-1.8c0-0.2,0-0.4,0-0.6c0-3.5,0.2-15.7,0.5-18.2
	c2.4-0.5,3.1-3.2,4.4-4.9c0.2-0.2,0.4-0.4,0.5-0.6c0.1-0.1,0.2-0.2,0.4-0.3c0.3-0.2,0-0.6-0.3-0.4c-2.9,1.7-3,5.2-5.9,5.2l0,0l0,0
	c-2.9,0-3-3.4-5.9-5.2c-0.3-0.2-0.6,0.2-0.3,0.4c0.1,0.1,0.2,0.2,0.4,0.3c0.2,0.2,0.3,0.4,0.5,0.6c1.3,1.7,1.9,4.4,4.4,4.9
	c0.2,2.6,0.5,14.7,0.5,18.2c0,0.2,0,0.4,0,0.6c0,0.5-0.1,1.1-0.2,1.8c-0.1,1-0.3,2.1-0.3,3.2c0,0.9,0.1,1.6,0.2,2.2
	c0.1,0.8,0.2,1.6,0.2,3c0,0.8-0.1,2.3-0.2,3.9c-0.2,2.4-0.4,5.4-0.4,8c0,2.2,0.2,3.7,0.3,5c0.1,1.4,0.3,2.6,0.3,4.7
	c0,2.5-0.3,6.7-0.5,10c-0.1,2.3-0.3,4.2-0.3,5c0,0.4,0,1.4,0.1,2.7c0.1,2.9,0.3,7.4,0.2,9.9c0,0.5-0.2,0.6-0.3,0.6
	c-0.2,0.1-0.6,0.1-1-0.1c-1.4-0.8-3.6-2.6-3.7-4.3c0-1.2,0.3-4,1-7.1c0.3-1.6,0.4-4,0.3-6.2c-0.1-2.1-0.7-4.3-1.4-6.8
	c-1-3.8-2.3-8.6-2.7-15.9c-0.1-2,0.1-3.9,0.2-5.9c0.2-2.7,0.4-5.5,0-9.1c-0.1-1.3-0.4-2.4-0.7-3.9c-0.6-2.6-1.4-6.2-2.3-13.8
	c-1.2-10.1,0.1-15.4,1.1-18.9c0.4,0.7,1.2,1.9,1.5,2.1c0.3,0.2,0.5-0.2,0.4-0.4c-0.9-1.6-1.4-4.3-1.5-5.2c-0.1-1.6-0.1-3.7,0-5.8
	c0.6,0.7,1.3,1.2,1.7,1.5c0.2,0.1,0.4-0.1,0.3-0.3c-0.6-0.7-1.3-2.2-1.8-3.4c-0.8-2.2-1-5.3-1.1-7.6c0.5,0.3,1.2,0.4,2.6,0.2
	c1.9-0.2,3-0.5,3.2-0.5c0,0,0.1,0,0.1-0.1c0.1-0.1,0.1-0.1,0.1-0.2c0-0.1-0.2-0.2-0.3-0.2c-0.5,0.1-1,0.2-1.5,0.2
	c-0.3,0-0.5,0-0.8,0.1c-1.9,0.1-3.3-0.4-4.2-2.1c-0.7-1.4-2.6-6.1-2.9-9.2c0-0.1,0-0.1-0.1-0.1c-2.2-2.2-8.8-10.1-10.6-16.5
	c0,0,0-0.1-0.1-0.1c-3.8-3.1-10.2-15-12-19.4c0-0.1-0.2-0.4-0.3-0.8c-0.8-1.8-2.6-6-3-7.2c-0.2-0.7-0.6-3.7-0.8-5.6
	c0.3-0.1,0.5,0,0.6,0.4c0.2,0.9,0.8,3.7,1.1,4c0.3,0.3,1.8,1.7,2.2,2.2c0.4,0.5,0.7,1.1,0.7,1.4c0,0.2,0.3,0.2,0.3,0
	s0.2-1.4-0.7-2.3c-0.8-0.8-1.8-1.4-2-1.7c-0.1-0.1-0.4-2.3-0.9-3.9c-0.2-0.7-0.9-0.7-1.3-0.6c0-0.2,0-0.4,0-0.5
	c-0.1-1.1,0.1-1.4,0.1-1.5c0,0,0,0,0.2,0c0.5,0.1,1,1,1.5,2.3l0.1,0.4c0.3,0.9,0.6,1.8,1.4,3.3c0.1,0.1,0.2,0.2,0.3,0.1
	c0.1-0.1,0.2-0.2,0.1-0.3c-0.3-0.6-0.6-1.1-0.8-1.5c0.4,0,0.8,0.3,1,1.1c0.3,0.9,0.8,1.5,1.2,2c0.1,0.2,0.3,0.3,0.3,0.4
	c1.2,1.8,0.3,3.5,0.2,3.6c0,0.1,0,0.1,0,0.2c0.2,1,0.7,2.3,1.1,3.1c0.7,1.3,1.7,2.7,3.1,4c4.2,4,7.3,7.7,10,13.4c0,0,0,0,0,0.1
	c0.6,0.7,1.6,1.7,2.8,2.9c2.4,2.5,5.5,5.5,6.6,7.6c0,0,0,0.1,0.1,0.1c0.5,0.3,1.3,0.6,2.2,0.8c1.8,0.5,4,1.2,5.5,2.9l0.1,0.1
	c0.2,0.3,0.4,0.7,0.8,1.1c0,0,0.1,0.1,0.2,0.1c0.1,0,0.1,0,0.2-0.1c0.1-0.1,0.1-0.2,0-0.3c-0.9-0.9-1-1.8-1-2c-0.1-0.7,0-1.3,0-2.1
	c0-0.2,0-0.4,0-0.5c0.8,0.7,1.9,1.6,2.4,1.7c0.7,0.1,1.6,0.1,1.7,0.1c0.1,0,1,0,1.7-0.1c0.5-0.1,1.5-0.9,2.4-1.7c0,0.2,0,0.4,0,0.5
	c0.1,0.7,0.1,1.4,0,2.1c0,0.3-0.2,1.1-1,2c-0.1,0.1-0.1,0.3,0,0.3c0,0,0.1,0.1,0.2,0.1c0.1,0,0.1,0,0.2-0.1c0.3-0.4,0.6-0.7,0.8-1.1
	c0,0,0.1,0,0.1-0.1c1.5-1.7,3.7-2.4,5.5-2.9c0.9-0.3,1.7-0.5,2.2-0.8l0.1-0.1c1.1-2.1,4.1-5.2,6.6-7.6c1.1-1.2,2.1-2.1,2.8-2.9
	c0,0,0,0,0-0.1c2.6-5.8,5.8-9.4,10-13.4c1.4-1.3,2.5-2.7,3.1-4c0.4-0.8,0.9-2.1,1.1-3.1c0-0.1,0-0.1,0-0.2s-1-1.8,0.2-3.6
	c0.1-0.1,0.2-0.3,0.3-0.4c0.4-0.5,1-1.1,1.2-2c0.3-0.8,0.6-1.1,1-1.1c-0.2,0.4-0.4,0.9-0.8,1.5c-0.1,0.1,0,0.3,0.1,0.3
	c0.1,0.1,0.3,0,0.3-0.1c0.9-1.5,1.2-2.4,1.5-3.3l0.1-0.4c0.4-1.4,1-2.2,1.5-2.3c0.1,0,0.2,0,0.2,0
	C187.5,112.7,187.6,113,187.5,114.1 M144.5,180.5c-2.1,0.5-1.9,3.2-3.1,5.1l0,0c-0.2,0.3-0.4,0.5-0.6,0.7l0,0
	c-0.1,0.1-0.1,0.2,0,0.3l0,0c0.1,0.1,0.2,0.2,0.4,0.1c1.8-1.2,2.2-3.5,2.8-4.8c0.1-0.2,0.3-0.4,0.4-0.6c0.1-0.1,0.2-0.2,0.4-0.3
	C144.9,180.9,144.8,180.4,144.5,180.5"/>
<path class="st0" d="M154.4,272c-0.4-3.7,3.4-10.4,4.3-18.1c2.9-2.1,6.1-1.8,9.1-0.6v29.5c-3.6-1.1-7.5-1-11.7,1.1
	C156.8,280.6,154.9,276.3,154.4,272"/>
<path class="st0" d="M137.8,272c0.4-3.7-3.4-10.4-4.3-18.1c-2.9-2.1-6.1-1.8-9.1-0.6v29.5c3.6-1.1,7.5-1,11.7,1.1
	C135.4,280.6,137.3,276.3,137.8,272"/>
<path class="st4" d="M151.2,348c-1.7,0.1-3.3,0.1-5.1,0.1c-1.9,0-3.5,0-5.1-0.1c-0.4,0-0.7,0.3-0.6,0.7l1.4,6.4
	c0.1,0.5,0.6,0.9,1.1,1c0.9,0.1,2,0.2,3.3,0.2s2.4-0.1,3.3-0.2c0.5-0.1,1-0.4,1.1-1l1.4-6.4C151.9,348.3,151.6,348,151.2,348
	 M237.4,302.9c-3.1,7.9-9.9,17.3-14.8,22.4c-0.6,0.6,0.1,1.6,0.8,1c3.9-3.1,11.8-11.8,15.3-18.2c0.2,1,0.4,2,0.5,3
	c-3.1,5-8,11.4-10.5,14.3c-0.4,0.4,0.3,1.2,0.8,0.7c3.8-4,6.7-7.6,10-11.9c0,1.1,0,2.2,0,3.3c-2.9,4.9-5.5,7.6-8.1,10.6
	c-0.4,0.4,0.3,1.1,0.8,0.7c1.8-1.6,4.5-4.3,6.7-6.9c-1.2,5.4-4,9.9-7.8,12.8c-0.6,0.5,0.1,1.4,0.7,0.9c8.6-6.1,13.5-18.5,9.2-32.7
	C240.3,300.7,238.1,301.1,237.4,302.9 M30.4,187.2c0.7-8.4,2.5-18,5.2-26c0.6,0.9,1.1,1.9,1.6,2.8c-2,6-3.2,14.6-3.2,19.8
	c0,0.7,1,0.7,1.1,0c0.2-4.7,1.7-11.3,3.5-16.8c0.6,1.5,1.1,3,1.5,4.6c-1.1,3.5-2.3,8.3-2.7,12.9c0,0.7,1,0.8,1,0.1
	c0.4-3.5,1.3-6.7,2.3-9.6c0.8,4.7,0.7,9.7-0.3,14.7c-0.2,0.9,0.9,1,1,0.4c3.7-11.8,1.2-24.7-5.4-32.6c-0.6-0.8-1.8-0.7-2.1,0.4
	c-2.9,9.6-4.4,20.7-4.7,29.2C29.3,187.8,30.3,187.9,30.4,187.2 M27.7,220.1c2.4,0,4.4-2,4.4-4.4s-2-4.4-4.4-4.4s-4.4,2-4.4,4.4
	C23.3,218.1,25.2,220.1,27.7,220.1 M27.7,213.8c1.1,0,1.9,0.9,1.9,1.9c0,1.1-0.9,1.9-1.9,1.9c-1.1,0-1.9-0.9-1.9-1.9
	C25.7,214.7,26.6,213.8,27.7,213.8 M264.5,211.4c-2.4,0-4.4,2-4.4,4.4s2,4.4,4.4,4.4s4.4-2,4.4-4.4
	C268.9,213.3,267,211.4,264.5,211.4 M264.5,217.6c-1.1,0-1.9-0.9-1.9-1.9c0-1.1,0.9-1.9,1.9-1.9c1.1,0,1.9,0.9,1.9,1.9
	C266.5,216.8,265.6,217.6,264.5,217.6 M257.1,135.7c0-6.4,5.6-9.5,7.3-9.6c4.6-0.5,10.1,1.9,11.1,6.4c0.2,1,1.9,1.2,2.3,0.2
	c2.1-5.5,1.4-14-3.9-19.1c3.8-7.3,3.3-13.6,1-18.1c-0.8-1.7-2.2-2.9-4-3.5V13.3H21.2V92c-1.8,0.6-3.2,1.9-4,3.5
	c-2.3,4.5-2.7,10.8,1,18.1c-5.3,5.1-6,13.6-3.9,19.1c0.4,1,2.1,0.8,2.3-0.2c1-4.6,6.5-6.9,11.1-6.4c1.7,0.2,7.3,3.3,7.3,9.6
	c0,12.2-22.5,39.8-21.8,70.4c0.3,16.1,3.9,32.6,7.3,42.1c-3,2.3-4.5,5.6-5.2,8.1l0,0c-0.1,0.6-0.2,1.2-0.3,1.9
	c-0.1,2.2,1.3,4.9,2.6,5.8c0.5,0.3,1,0,1.1-0.2c2.1-3.8,5.6-6.3,8.1-7.1c8.2,3.7,12.6,10.6,12.2,22.1c-1.6,46,0.7,60.2,25.9,79.4
	c8.7,6.6,29.2,15.4,46.5,13.4c0,1.4,0.6,2.9,2.1,4c7.1,5,18.6,9.7,32.3,9.7s25.2-4.7,32.3-9.7c1.5-1.1,2.1-2.6,2.1-4
	c17.3,1.9,37.8-6.8,46.5-13.4c25.2-19.2,27.5-33.3,25.9-79.4c-0.4-11.6,4-18.5,12.2-22.1c2.5,0.9,6,3.3,8.1,7.1
	c0.1,0.3,0.6,0.5,1.1,0.2c1.3-0.8,2.7-3.6,2.6-5.8c0-0.7-0.1-1.4-0.3-1.9l0,0c-0.6-2.5-2.2-5.8-5.2-8.1c3.4-9.4,7-26,7.3-42.1
	C279.5,175.5,257.1,147.9,257.1,135.7 M16.4,206.1c0-28.6,21.2-56.2,21.2-70.4c0-6.7-4.9-11.6-9.5-12.1c-4.4-0.4-9.1,0.9-11.8,4.3
	c-0.1-1-0.1-2.1,0.1-3.3c2.7-2.2,7.9-3.3,12.5-2.8c0.7,0.1,0.8-1,0.1-1.1c-3.1-0.6-8.5-0.6-12.1,1.1c0.3-0.9,0.6-1.9,1-2.8
	c2.1-0.6,6.9-1.3,12.7,0c0.6,0.1,0.8-0.9,0.2-1.1c-5-1.5-9.1-1.5-11.7-1.3c0.5-0.8,1-1.6,1.6-2.2c0.3-0.3,0.3-0.7,0.2-1
	c-0.2-0.5-0.3-0.9-0.5-1.4c2.8,0.9,7.5,2.4,10.6,4.2c0.5,0.3,1.1-0.5,0.5-1c-2.4-1.9-9-4.6-12-6.1c-0.2-0.6-0.3-1.1-0.4-1.7
	c3.4,1.8,8.5,3.5,10.5,4.8c0.7,0.5,1.2-0.4,0.7-0.8c-2.8-2.3-9.4-4.6-11.7-7c-0.1-0.6-0.1-1.2-0.1-1.9c0.9,1,2.1,1.8,3.8,2.4
	c10.3,3.8,25.7,18.3,25.7,42.7v53.5c-2-2.6-5.6-5.5-12.2-8.5c-0.7-0.3-1.3-0.1-1.8,0.3c-3.6,2.9-6.8,5.9-9.6,9.3
	c-0.3,0.3,0.2,1.1,0.6,0.8c3.4-3,7.1-6,10.5-7.7c3.6,1.6,12.5,6.5,12.5,13.2v14.8c0,6.9-2.6,14-6.8,19.7l-4.6-6.7l5.4-4.4
	c0.8-0.6,1.1-1.7,0.7-2.8c-0.6-1.6-2-4.3-3.2-5.7c-0.9-1.1-2.5-1.3-3.5-0.5l-3.4,2.5c-1,0.7-1.3,2.1-0.7,3.2l1,1.7L21.8,239
	C19.6,231.6,16.4,217,16.4,206.1 M34.1,227.9l3.1-2.1c0.8,1,2.1,3.5,2.4,4.4l-16.8,13.3c-0.1-0.4-0.3-1-0.5-1.6l13.6-10.6
	L34.1,227.9z M34.6,238.3l4.9,7.1c-0.6,0.7-1.2,1.3-1.8,1.9c-5.2-2-10-2.1-13.2-1.3L34.6,238.3z M18.6,260.2
	c-0.2,0.2-0.4,0.4-0.6,0.7c-0.8-1.3-0.6-2.9,0.1-4.1c0.7-1.2,3.8-1.9,7.1-0.8C22.6,256.7,20.4,258.1,18.6,260.2 M74.4,359.8
	c-6.1-3.6-5.3-17.1-4.6-20l11.2-4.6c0.5-0.2,0.2-1.1-0.3-0.9c0,0-9.4,2.4-12.5,3.2c-0.3,0.1-0.8,0.6-0.9,0.9l0,0
	c-1.3,4.9-1.1,12.8,0.4,17.3c-0.2-0.2-0.4-0.3-0.6-0.5c-24.9-18.1-26.7-35.8-25.2-76.5c0.8-14.9-7.1-21.6-15.1-25
	c-2.1-0.9-4.3-1.4-6.3-1.3c0.7-0.7,1.5-1.4,2.5-2c3.8,0.1,10.1,2.9,14.6,8.3c0.5,0.5,1.2-0.3,0.8-0.7c-3-4-8.1-8-11.8-9.1
	c1.1-0.3,2.4-0.4,3.8-0.4c4.1,2,7.9,5.8,10.3,10.1c0.3,0.6,1.3,0.2,1-0.5c-1.4-3.2-4.1-6.8-6.5-9c1.1,0.2,2.2,0.6,3.4,1
	c0.7-0.7,1.4-1.3,2-2c0.6,3.6,1.6,7.4,2.4,9.4c0.2,0.6,1.2,0.4,1.1-0.3c-0.9-3.9-1.5-8.4-1.6-11.3c0.7-0.8,1.3-1.5,1.9-2.3
	c-0.1,3.8,0.3,8.2,0.8,10.5c0.2,0.7,1.2,0.6,1.1-0.2l0,0c-0.4-1.8-0.2-11.2,0.6-14.1c0.5-0.9,0.9-1.8,1.3-2.6v14.9
	c0,21.6,6.9,42.1,19.9,59.2c11.9,15.7,28.1,27.3,47.1,33.9l-8.5,6.4l-1.4-1.4c-0.9-0.9-2.3-0.9-3.2-0.1l-3.3,2.6
	c-1,0.8-1.2,2.3-0.4,3.5c1,1.5,2.9,3.8,4.3,4.8c1,0.7,2.1,0.7,2.9,0.1l1.7-1.3c1.2,2.4,4.2,8.1,4.3,8.3
	C96.6,369.2,83.7,364.8,74.4,359.8 M117.7,346.4c0.5,0.2,1.3,0.4,1.8,0.6l-15.8,11.5c-0.9-0.8-2.5-2.7-3.3-3.7l2.9-2.4l2.6,2.6
	L117.7,346.4z M108.9,358.5l13.5-10.1l3.3,6c-1.9,2.1-9.3,10-11.9,12.9C112.8,365.4,110,360.3,108.9,358.5 M176.7,373.2
	c-0.6,0.4-1.2,0.8-1.9,1.2c0,0-0.1,0-0.1,0.1c-1.7,0.9-3.2-0.2-4.3-1.5l-8.2-10.1c-0.7-0.8-2.2,0.1-1.7,1.2l6,10.9v0.1
	c0.8,1.4,0.4,3.1-0.9,3.6c-0.7,0.2-1.5,0.5-2.3,0.7c-2,0.5-3.2-0.3-4.2-2.4l-4.9-10.3c-0.5-1.1-2.2-0.5-1.9,0.7L155,378
	c0.4,1.6,0.1,2.8-1.5,3c-0.9,0.1-1.7,0.2-2.7,0.2c-1.6,0.1-2.5-1.1-2.7-2.6l-1.1-10.4c0-0.5-0.5-0.9-1-0.9s-1,0.4-1,0.9l-1.1,10.4
	c-0.3,1.6-1.1,2.7-2.7,2.6c-0.9-0.1-1.8-0.1-2.7-0.2c-1.6-0.2-1.9-1.4-1.5-3l2.8-10.8c0.3-1.2-1.4-1.8-1.9-0.7l-4.9,10.3
	c-1,2.1-2.2,2.9-4.2,2.4c-0.8-0.2-1.6-0.5-2.3-0.7c-1.2-0.4-1.6-2.1-0.9-3.6v-0.1l6-10.9c0.5-1-1-2-1.7-1.2l-8.2,10.1
	c-1.1,1.3-2.6,2.5-4.3,1.5c0,0-0.1,0-0.1-0.1c-0.7-0.4-1.4-0.8-2-1.2c-1-0.6-1.1-2.2,0-3.7c0.2-0.3,12.6-14.9,12.6-14.9l-3-6.2
	c3.1,0.6,7.3,1.4,9.9,1.6l0.8,2.5c0.1,0.3-0.1,0.6-0.4,0.5c-0.7-0.1-1.3-0.1-1.8-0.2c-0.2,0-0.4-0.2-0.5-0.4l-0.5-1.4
	c-0.2-0.4-1.2-0.4-1.2,0.2v2.5c0,0.7,0.5,1.3,1.2,1.4l3.7,0.5c1.7,0.2,2.7-1.3,2.2-3l-1.1-3.6c-0.3-0.9-1-1.4-1.9-1.5
	c-3.6-0.3-10.8-1.7-13.1-2.3c-43.1-11.8-72-49.1-72-92.8v-28.3c0-0.2,0-0.3,0-0.5l0,0v-75.7c0-23-13.8-40-27.3-45
	c-3.3-1.2-4.2-3.5-3.9-5.3l0,0c0.1-0.3,0.2-0.7,0.4-1c0.4-0.8,1.1-1.5,2-2c0.3,1.9,0.7,5.6,0.7,5.6c0.1,0.4,0.5,0.8,0.9,0.7
	c0.4-0.1,0.7-0.4,0.7-0.8v-8.2v-0.3l0,0V15.9h244.5v75.6l0,0v0.3v8.2c0,0.4,0.3,0.7,0.7,0.8c0.4,0.1,0.8-0.3,0.9-0.7
	c0,0,0.5-3.7,0.8-5.6c0.9,0.5,1.6,1.2,2,2c0.1,0.3,0.2,0.7,0.3,1l0,0c0.3,1.8-0.5,4.1-3.9,5.3c-13.6,5-27.3,22.1-27.3,45v75.7l0,0
	c0,0.2,0,0.3,0,0.5v28.3c0,43.7-28.9,81-72,92.8c-2.3,0.7-9.5,2-13.1,2.3c-0.9,0.1-1.6,0.7-1.9,1.5l-1.1,3.6c-0.5,1.6,0.4,3.2,2.2,3
	l3.7-0.5c0.7-0.1,1.2-0.7,1.2-1.4v-2.5c0-0.6-1-0.6-1.2-0.2l-0.5,1.4c-0.1,0.2-0.3,0.4-0.5,0.4c-0.6,0.1-1.2,0.1-1.8,0.2
	c-0.3,0-0.5-0.3-0.4-0.5l0.8-2.5c2.7-0.2,6.8-1,9.9-1.6l-3,6.2c0,0,12.4,14.5,12.6,14.9C177.8,371,177.7,372.5,176.7,373.2
	 M174.5,346.4l11.7,8.6l2.6-2.6l2.9,2.4c-0.7,1-2.4,2.9-3.3,3.7L172.6,347C173.2,346.8,173.9,346.6,174.5,346.4 M178.4,367.2
	c-2.6-2.9-10-10.8-11.9-12.9l3.3-6l13.5,10.1C182.2,360.3,179.4,365.4,178.4,367.2 M274.1,256.7c0.7,1.1,0.8,2.8,0.1,4.1
	c-0.2-0.2-0.4-0.4-0.6-0.7c-1.8-2-4-3.4-6.7-4.2C270.3,254.8,273.4,255.5,274.1,256.7 M271.7,252.6c-1.9-0.1-4.2,0.4-6.3,1.3
	c-8,3.3-15.9,10-15.1,25c1.5,40.7-0.3,58.3-25.2,76.5c-0.2,0.1-0.4,0.3-0.6,0.5c1.5-4.6,1.8-12.4,0.4-17.3c-0.1-0.2-0.6-0.8-0.9-0.9
	c-3.1-0.8-12.5-3.2-12.5-3.2c-0.5-0.1-0.8,0.7-0.3,0.9l11.2,4.6c0.7,2.9,1.5,16.4-4.6,20c-9.2,5-22.2,9.4-36.8,8.4
	c0.1-0.2,3.1-5.9,4.3-8.3l1.7,1.3c0.8,0.6,1.9,0.6,2.9-0.1c1.4-1,3.2-3.2,4.3-4.8c0.8-1.2,0.6-2.7-0.4-3.5l-3.3-2.6
	c-1-0.8-2.3-0.7-3.2,0.1l-1.4,1.4l-8.5-6.4c19-6.6,35.2-18.2,47.1-33.9c13-17.1,19.9-37.6,19.9-59.2v-14.9c0.4,0.9,0.8,1.8,1.3,2.6
	c0.8,2.9,1,12.3,0.6,14.1l0,0c-0.1,0.8,0.9,0.9,1.1,0.2c0.5-2.3,0.9-6.8,0.8-10.5c0.6,0.8,1.2,1.5,1.9,2.3
	c-0.1,2.9-0.6,7.3-1.6,11.3c-0.2,0.7,0.8,0.9,1.1,0.3c0.8-2.1,1.8-5.9,2.4-9.4c0.6,0.7,1.3,1.3,2,2c1.2-0.4,2.3-0.7,3.4-1
	c-2.5,2.2-5.1,5.8-6.5,9c-0.3,0.7,0.7,1,1,0.5c2.3-4.3,6.2-8.1,10.3-10.1c1.4,0,2.6,0.1,3.8,0.4c-3.8,1.1-8.9,5.1-11.8,9.1
	c-0.3,0.4,0.4,1.2,0.8,0.7c4.4-5.4,10.7-8.2,14.6-8.3C270.2,251.1,271,251.8,271.7,252.6 M269.9,241.9c-0.2,0.6-0.3,1.2-0.5,1.6
	l-16.8-13.3c0.3-1,1.6-3.5,2.4-4.4l3.1,2.1l-1.8,3.4L269.9,241.9z M267.7,246.1c-3.2-0.8-8.1-0.7-13.2,1.3c-0.6-0.6-1.2-1.3-1.8-1.9
	l4.9-7.1L267.7,246.1z M270.6,239.3l-11.1-8.7l1-1.7c0.6-1.1,0.3-2.4-0.7-3.2l-3.4-2.5c-1.1-0.7-2.6-0.5-3.5,0.5
	c-1.2,1.4-2.6,4.1-3.2,5.7c-0.4,1.1-0.1,2.2,0.7,2.8l5.4,4.4l-4.6,6.7c-4.3-5.7-6.8-12.8-6.8-19.7v-14.8c0-6.7,8.9-11.6,12.5-13.2
	c3.3,1.6,7,4.6,10.5,7.7c0.5,0.3,1-0.5,0.6-0.8c-2.8-3.4-6-6.4-9.6-9.3c-0.5-0.4-1.1-0.6-1.8-0.3c-6.6,2.9-10.2,5.9-12.2,8.5v-53.5
	c0-24.4,15.4-38.9,25.7-42.7c1.7-0.6,2.9-1.5,3.8-2.4c0,0.6,0,1.3-0.1,1.9c-2.3,2.4-8.9,4.6-11.7,7c-0.5,0.4-0.1,1.3,0.7,0.8
	c2-1.3,7.2-3,10.5-4.8c-0.1,0.6-0.3,1.1-0.4,1.7c-3,1.5-9.6,4.1-12,6.1c-0.7,0.5,0,1.3,0.5,1c3.1-1.8,7.8-3.2,10.6-4.2
	c-0.2,0.4-0.3,0.9-0.5,1.4c-0.1,0.4-0.1,0.8,0.2,1c0.6,0.6,1.1,1.3,1.6,2.2c-2.6-0.3-6.7-0.2-11.7,1.3c-0.6,0.2-0.4,1.2,0.2,1.1
	c5.8-1.3,10.5-0.5,12.7,0c0.4,0.9,0.7,1.8,1,2.8c-3.6-1.6-9-1.6-12.1-1.1c-0.7,0.1-0.6,1.2,0.1,1.1c4.7-0.5,9.9,0.6,12.5,2.8
	c0.2,1.1,0.2,2.3,0.1,3.3c-2.7-3.4-7.4-4.8-11.8-4.3c-4.6,0.5-9.5,5.4-9.5,12.1c0,14.2,21.2,41.8,21.2,70.4
	C275.8,217,272.6,231.6,270.6,239.3 M201.7,340.8c-2.4,0-4.4,2-4.4,4.4s2,4.4,4.4,4.4s4.4-2,4.4-4.4
	C206.1,342.8,204.1,340.8,201.7,340.8 M201.7,347.1c-1.1,0-1.9-0.9-1.9-1.9c0-1.1,0.9-1.9,1.9-1.9c1.1,0,1.9,0.9,1.9,1.9
	C203.6,346.3,202.8,347.1,201.7,347.1 M244,122.9c1.4-6.1,7.5-13.4,8.9-15.8c1.8-3.2,1.8-4.9,1.8-11.7c0-1-0.1-4.9-0.1-6.1
	c0-1.1-1.5-1-1.5,0.1c0,3.3-3.4,6.6-6.1,9.4c-1.9,2-5.3,5.2-5.3,11.6V123C241.8,124,243.8,123.9,244,122.9 M244.6,110.8
	c0.3-3.8,1-5.8,2.4-7.7c0.8-1.1,4.5-5,5.3-7c0,3.9-0.2,5.7-1.4,8.6c-1.1,2.7-5.4,8.4-6.5,10.6C244.5,113.8,244.5,111.9,244.6,110.8
	 M90.5,340.8c-2.4,0-4.4,2-4.4,4.4s2,4.4,4.4,4.4s4.4-2,4.4-4.4S92.9,340.8,90.5,340.8 M90.5,347.1c-1.1,0-1.9-0.9-1.9-1.9
	c0-1.1,0.9-1.9,1.9-1.9c1.1,0,1.9,0.9,1.9,1.9C92.4,346.3,91.6,347.1,90.5,347.1 M54.8,302.9c-0.7-1.7-2.8-2.2-3.5,0
	c-4.3,14.2,0.6,26.6,9.2,32.7c0.7,0.5,1.4-0.5,0.7-0.9c-3.9-2.9-6.6-7.4-7.8-12.8c2.3,2.6,4.9,5.3,6.7,6.9c0.5,0.4,1.2-0.3,0.8-0.7
	c-2.6-3-5.2-5.7-8.1-10.6c-0.1-1.1-0.1-2.2,0-3.3c3.3,4.3,6.2,7.9,10,11.9c0.4,0.5,1.2-0.3,0.8-0.7C61,322.5,56.1,316,53,311
	c0.1-1,0.3-2,0.5-3c3.5,6.5,11.4,15.1,15.3,18.2c0.7,0.5,1.4-0.4,0.8-1C64.7,320.2,57.9,310.8,54.8,302.9 M39.1,89.4
	c0-1.1-1.5-1.2-1.5-0.1c0,1.2,0,5.1-0.1,6.1c0,6.8,0,8.5,1.8,11.7c1.4,2.5,7.5,9.7,8.9,15.8c0.2,0.9,2.2,1.1,2.2,0v-12.6
	c0-6.3-3.4-9.6-5.3-11.6C42.4,95.9,39.1,92.7,39.1,89.4 M47.7,115.2c-1.1-2.3-5.4-7.9-6.5-10.6c-1.1-2.8-1.4-4.7-1.4-8.6
	c0.9,2,4.5,5.8,5.3,7c1.4,2,2.1,3.9,2.4,7.7C47.7,111.9,47.7,113.8,47.7,115.2 M256.1,157.5c-6.5,7.9-9,20.8-5.4,32.6
	c0.2,0.5,1.2,0.4,1-0.4c-1-5-1-10-0.3-14.7c1,2.9,1.9,6.2,2.3,9.6c0.1,0.7,1.1,0.6,1.1-0.1c-0.3-4.6-1.5-9.3-2.7-12.9
	c0.4-1.6,0.9-3.1,1.5-4.6c1.8,5.5,3.3,12.1,3.5,16.8c0,0.7,1.1,0.7,1.1,0c0-5.2-1.2-13.8-3.2-19.8c0.5-1,1-1.9,1.6-2.8
	c2.6,8,4.5,17.6,5.2,26c0.1,0.7,1.1,0.6,1-0.1c-0.3-8.5-1.7-19.6-4.7-29.2C257.9,156.8,256.7,156.8,256.1,157.5"/>
<g>
	<path class="st4" d="M57.9,36.4c0-1.8-0.9-3.4-3-3.4H52v10.7h2.1v-3.9h0.8C57,39.9,57.9,38.3,57.9,36.4z M54.1,38.1v-3.2h0.6
		c0.7,0,1.1,0.6,1.1,1.6c0,1-0.4,1.6-1.1,1.6L54.1,38.1L54.1,38.1z"/>
	<path class="st4" d="M58.8,38.4c0,3.1,1,5.5,3.3,5.5c2.4,0,3.3-2.4,3.3-5.5c0-3.1-1-5.5-3.3-5.5S58.8,35.3,58.8,38.4z M63.4,38.4
		c0,2.1-0.3,3.7-1.2,3.7c-1,0-1.2-1.7-1.2-3.7c0-2.2,0.3-3.7,1.2-3.7C63.1,34.7,63.4,36.3,63.4,38.4z"/>
	<path class="st4" d="M72.8,36.4c0-2-1.2-3.3-2.9-3.3h-3v10.7h2.1v-3.9h0.6l1.1,3.9h2.2l-1.5-4.5C71.9,39,72.8,38.2,72.8,36.4z
		 M69.4,38.1h-0.6v-3.2h0.6c0.7,0,1.1,0.6,1.1,1.6C70.7,37.4,70.3,38.1,69.4,38.1z"/>
	<polygon class="st4" points="76.8,33 76.8,43.8 81.5,43.8 81.5,42 78.8,42 78.8,33 	"/>
	<path class="st4" d="M81.8,43.8h2.1l0.3-2h2.1l0.3,2h2.1L86.4,33h-2.3L81.8,43.8z M85.2,35.3l0.7,4.8h-1.6L85.2,35.3z"/>
	<path class="st4" d="M98,36.4c0-2-1.2-3.3-2.9-3.3h-3v10.7h2.1v-3.9h0.6l1.1,3.9h2.2l-1.5-4.5C97.2,39,98,38.2,98,36.4z M94.7,38.1
		h-0.6v-3.2h0.6c0.7,0,1.1,0.6,1.1,1.6C95.9,37.4,95.5,38.1,94.7,38.1z"/>
	<polygon class="st4" points="104.2,34.9 104.2,33 99.4,33 99.4,43.8 104.2,43.8 104.2,42 101.5,42 101.5,39.2 104.1,39.2 
		104.1,37.5 101.5,37.5 101.5,34.9 	"/>
	<path class="st4" d="M104.7,43.8h2.1l0.3-2h2.1l0.3,2h2.1L109.2,33H107L104.7,43.8z M108.1,35.3l0.7,4.8h-1.6L108.1,35.3z"/>
	<polygon class="st4" points="112.4,33 112.4,43.8 117,43.8 117,42 114.3,42 114.3,33 	"/>
	<rect x="118.2" y="33" class="st4" width="2.1" height="10.7"/>
	<polygon class="st4" points="121.5,43.8 126.7,43.8 126.7,42 123.8,42 126.6,34.7 126.6,33 121.5,33 121.5,34.9 124.2,34.9 
		121.5,42 	"/>
	<path class="st4" d="M127.1,43.8h2.1l0.3-2h2.1l0.3,2h2.1L131.7,33h-2.3L127.1,43.8z M130.5,35.3l0.7,4.8h-1.6L130.5,35.3z"/>
	<path class="st4" d="M137.8,34.7c0.6,0,0.8,0.5,1.1,1.3l1.7-0.6c-0.3-1.1-0.9-2.5-2.7-2.5c-2.4,0-3.3,2.4-3.3,5.5
		c0,3.2,1,5.5,3.3,5.5c1.8,0,2.4-1.6,2.7-2.7l-1.6-0.6c-0.2,0.8-0.4,1.6-1.1,1.6c-0.9,0-1.2-1.6-1.2-3.7
		C136.4,36.2,136.8,34.7,137.8,34.7z"/>
	<rect x="141.7" y="33" class="st4" width="2.1" height="10.7"/>
	<polygon class="st4" points="150.2,29.8 148.5,29.8 147.3,32.1 148.4,32.1 	"/>
	<path class="st4" d="M144.9,38.4c0,3.1,1,5.5,3.3,5.5c2.3,0,3.3-2.4,3.3-5.5c0-3.1-1-5.5-3.3-5.5C145.9,32.9,144.9,35.3,144.9,38.4
		z M148.3,34.7c0.9,0,1.2,1.6,1.2,3.7c0,2.1-0.3,3.7-1.2,3.7c-1,0-1.2-1.7-1.2-3.7C147.1,36.3,147.4,34.7,148.3,34.7z"/>
	<polygon class="st4" points="155.1,33 153,33 153,43.8 155.1,43.8 155.1,37.6 157.2,43.8 159.1,43.8 159.1,33 157,33 157,39 	"/>
	<path class="st4" d="M163.4,33v10.7h2.1v-3.9h0.8c2.1,0,3-1.6,3-3.4c0-1.8-0.9-3.4-3-3.4L163.4,33L163.4,33z M167.2,36.4
		c0,1-0.4,1.6-1.1,1.6h-0.6v-3.2h0.6C166.8,34.9,167.2,35.5,167.2,36.4z"/>
	<polygon class="st4" points="170.4,33 170.4,43.8 175.1,43.8 175.1,42 172.5,42 172.5,33 	"/>
	<polygon class="st4" points="181,34.9 181,33 176.3,33 176.3,43.8 181,43.8 181,42 178.4,42 178.4,39.2 180.9,39.2 180.9,37.5 
		178.4,37.5 178.4,34.9 	"/>
	<polygon class="st4" points="184.4,33 182.4,33 182.4,43.8 184.4,43.8 184.4,37.6 186.6,43.8 188.5,43.8 188.5,33 186.5,33 
		186.5,39 	"/>
	<path class="st4" d="M189.3,43.8h2.1l0.3-2h2.1l0.3,2h2.1L193.9,33h-2.3L189.3,43.8z M192.7,35.3l0.7,4.8h-1.6L192.7,35.3z"/>
	<path class="st4" d="M199.5,33v10.7h2.7c2.6,0,3.6-2.3,3.6-5.4s-1-5.4-3.6-5.4L199.5,33L199.5,33z M203.8,38.4
		c0,2.3-0.5,3.5-1.6,3.5h-0.6v-7.2h0.6C203.3,34.9,203.8,36.1,203.8,38.4z"/>
	<polygon class="st4" points="211.9,34.9 211.9,33 207.2,33 207.2,43.8 211.9,43.8 211.9,42 209.3,42 209.3,39.2 211.8,39.2 
		211.8,37.5 209.3,37.5 209.3,34.9 	"/>
	<polygon class="st4" points="213.3,33 213.3,43.8 218,43.8 218,42 215.3,42 215.3,33 	"/>
	<path class="st4" d="M223.7,42.1c-0.6,0-1.3-0.3-1.8-0.8l-0.8,1.6c0.7,0.7,1.6,1,2.7,1c1.8,0,3-1.3,3-3.1c0-3.2-3.4-3.4-3.4-5.1
		c0-0.6,0.4-1.1,1-1.1c0.6,0,1,0.2,1.5,0.6l0.7-1.6c-0.6-0.5-1.5-0.8-2.3-0.8c-1.9,0-3,1.3-3,3c0,3.2,3.4,3.2,3.4,5.1
		C224.8,41.7,224.4,42.1,223.7,42.1z"/>
	<polygon class="st4" points="232.8,34.9 232.8,33 228.1,33 228.1,43.8 232.8,43.8 232.8,42 230.1,42 230.1,39.2 232.7,39.2 
		232.7,37.5 230.1,37.5 230.1,34.9 	"/>
	<path class="st4" d="M240.1,36.4c0-2-1.2-3.3-2.9-3.3h-3v10.7h2.1v-3.9h0.6l1.1,3.9h2.2l-1.5-4.5C239.3,39,240.1,38.2,240.1,36.4z
		 M236.9,38.1h-0.7v-3.2h0.6c0.7,0,1.1,0.6,1.1,1.6C238,37.4,237.6,38.1,236.9,38.1z"/>
</g>
</svg>
